<?xml version="1.0" standalone="no"?>
<!DOCTYPE svg PUBLIC "-//W3C//DTD SVG 1.1//EN" "http://www.w3.org/Graphics/SVG/1.1/DTD/svg11.dtd" >
<svg xmlns="http://www.w3.org/2000/svg" xmlns:xlink="http://www.w3.org/1999/xlink" version="1.1">
<metadata>
Created by FontForge 20170731 at Thu Oct 15 11:10:34 2020
 By Aleksey,,,
Copyright 2011 The Bitter Project Authors (https://github.com/solmatas/BitterPro)
</metadata>
<defs>
<font id="Bitter-Bold" horiz-adv-x="0" >
  <font-face 
    font-family="Bitter"
    font-weight="700"
    font-stretch="normal"
    units-per-em="1000"
    panose-1="0 0 0 0 0 0 0 0 0 0"
    ascent="800"
    descent="-200"
    x-height="534"
    cap-height="704"
    bbox="-167 -321 1268 1164"
    underline-thickness="50"
    underline-position="-175"
    unicode-range="U+000D-FB02"
  />
<missing-glyph horiz-adv-x="499" 
d="M93 -230l209 337l107 660l-209 -336zM166 -161l56 21l47 43h-81l24 37h120v-10h-77l-46 -43h91l-23 -36zM166 -26l56 75l110 38l-55 -74zM199 7l67 16l33 31l-66 -15zM166 147l56 75l22 38l-33 -53l66 -18l11 30l-22 8l12 -15l-24 -16l-33 38l66 26l-10 -75zM166 282
l56 22l89 33l-12 45l22 -22l-44 -67zM166 339l34 21l44 24l22 25l-44 11l-56 22l111 -12l21 -21l-43 -12l-22 -47zM199 502l22 12l11 24l-21 -12zM166 469l56 68l67 12l-23 -47l44 23l-33 -21zM166 598l56 22l44 11l-22 25l-44 12l23 21l109 11l-56 -20l-43 -12l22 -25
l43 -12l-21 -22z" />
    <glyph glyph-name="fi" unicode="fi" horiz-adv-x="665" 
d="M31 0v72l80 23l-13 -15v373l13 -15h-83v74l86 22l-16 -21v63q0 107 57 158.5t152 51.5q13 0 30.5 -1t34.5 -3.5t29 -5.5l-11 -97q-14 4 -26.5 5.5t-24.5 1.5q-50 0 -75.5 -23t-25.5 -75v-75l-15 19l360 6v-456l-10 12l77 -22v-72h-274v72l77 22l-10 -12v370l21 -14h-240
l14 15v-373l-13 15l93 -23v-72h-287zM511 616q-37 0 -59.5 21t-22.5 60q0 42 23.5 62.5t59.5 20.5q35 0 58 -20.5t23 -61.5t-23.5 -61.5t-58.5 -20.5z" />
    <glyph glyph-name="fl" unicode="fl" horiz-adv-x="681" 
d="M31 0v72l82 24l-15 -22v380l15 -18h-85v75l83 22l-13 -21v62q0 74 32 121t89 69t129 22q40 0 84 -6.5t91 -20.5l-126 6l202 11v-702l-15 22l82 -24v-72h-276v72l84 24l-15 -22v617l28 -17q-35 6 -66 10t-55 4q-48 0 -74 -12.5t-37.5 -31t-14 -37t-2.5 -31.5v-64l-16 17
h140l-3 -93h-137l16 18v-380l-15 22l95 -24v-72h-287z" />
    <glyph glyph-name="f_f" unicode="ff" horiz-adv-x="719" 
d="M31 0v72l80 23l-13 -15v371l13 -15h-83v75l86 21l-16 -20v51q0 74 31.5 120t86 67t122.5 21q60 0 124.5 -14.5t127.5 -39.5l-73 -78q-43 16 -85 25t-78 9q-52 0 -84 -23.5t-32 -80.5v-57l-18 17h292v-93h-288l14 15v-371l-13 15l83 -23v-72h-277zM376 0v72l80 23l-13 -15
v496q0 107 57 158.5t153 51.5q28 0 57.5 -5t63.5 -14l-20 -93q-19 6 -39 9.5t-38 3.5q-41 0 -67.5 -22.5t-26.5 -76.5v-76l-18 17h143l-3 -93h-136l14 15v-371l-13 15l93 -23v-72h-287z" />
    <glyph glyph-name="f_f_i" unicode="ffi" horiz-adv-x="1010" 
d="M31 0v72l80 23l-13 -15v373l13 -15h-83v75l86 21l-16 -21v50q0 74 32 120t87.5 67t123.5 21q60 0 125 -14.5t128 -40.5l-74 -77q-43 16 -85 25t-77 9q-52 0 -86 -23.5t-34 -80.5v-56l-18 18h291v-93h-287l14 15v-373l-13 15l83 -23v-72h-277zM376 0v72l80 23l-13 -15v496
q0 107 57 158.5t152 51.5q13 0 30.5 -1t34.5 -3.5t29 -5.5l-11 -97q-14 4 -26.5 5.5t-24.5 1.5q-50 0 -75.5 -23t-25.5 -75v-75l-15 19l360 6v-456l-10 12l77 -22v-72h-274v72l77 22l-10 -12v370l21 -14h-240l14 15v-373l-13 15l93 -23v-72h-287zM856 616q-37 0 -59.5 21
t-22.5 60q0 42 23.5 62.5t59.5 20.5q35 0 58 -20.5t23 -61.5t-23.5 -61.5t-58.5 -20.5z" />
    <glyph glyph-name="f_f_l" unicode="ffl" horiz-adv-x="1030" 
d="M31 0v72l80 23l-13 -15v371l13 -15h-83v75l86 21l-16 -20v51q0 74 32 120t87.5 67t123.5 21q60 0 125 -14.5t128 -40.5l-74 -77q-43 16 -85 25t-77 9q-52 0 -86 -23.5t-34 -80.5v-57l-18 17h296v-93h-292l14 15v-371l-13 15l83 -23v-72h-277zM380 0v72l81 24l-15 -22v500
q0 74 32.5 121t88.5 69t128 22q41 0 85.5 -6.5t90.5 -20.5l-125 6l201 11v-702l-15 22l82 -24v-72h-275v72l83 24l-15 -22v617l28 -17q-36 6 -68 9t-57 3q-59 0 -91.5 -23.5t-32.5 -86.5v-64l-15 17h137l-3 -93h-134l15 18v-380l-15 22l95 -24v-72h-286z" />
    <glyph glyph-name=".notdef" horiz-adv-x="499" 
d="M93 -230l209 337l107 660l-209 -336zM166 -161l56 21l47 43h-81l24 37h120v-10h-77l-46 -43h91l-23 -36zM166 -26l56 75l110 38l-55 -74zM199 7l67 16l33 31l-66 -15zM166 147l56 75l22 38l-33 -53l66 -18l11 30l-22 8l12 -15l-24 -16l-33 38l66 26l-10 -75zM166 282
l56 22l89 33l-12 45l22 -22l-44 -67zM166 339l34 21l44 24l22 25l-44 11l-56 22l111 -12l21 -21l-43 -12l-22 -47zM199 502l22 12l11 24l-21 -12zM166 469l56 68l67 12l-23 -47l44 23l-33 -21zM166 598l56 22l44 11l-22 25l-44 12l23 21l109 11l-56 -20l-43 -12l22 -25
l43 -12l-21 -22z" />
    <glyph glyph-name=".null" 
 />
    <glyph glyph-name="nonmarkingreturn" horiz-adv-x="333" 
 />
    <glyph glyph-name="NULL" 
 />
    <glyph glyph-name="NULL" 
 />
    <glyph glyph-name="CR" unicode="&#xd;" horiz-adv-x="180" 
 />
    <glyph glyph-name="space" unicode=" " horiz-adv-x="180" 
 />
    <glyph glyph-name="exclam" unicode="!" horiz-adv-x="321" 
d="M109 240l-22 464h148l-22 -457zM81 66q0 35 24 56.5t56 21.5q37 0 58 -21.5t21 -56.5t-23.5 -56.5t-55.5 -21.5q-37 0 -58.5 21.5t-21.5 56.5z" />
    <glyph glyph-name="quotedbl" unicode="&#x22;" horiz-adv-x="434" 
d="M84 503l-21 271h125l-20 -271h-84zM267 503l-21 271h125l-20 -271h-84z" />
    <glyph glyph-name="numbersign" unicode="#" horiz-adv-x="672" 
d="M73 533h565v-86h-565v86zM35 263h565v-86h-565v86zM203 704h113l-99 -704h-113zM455 704h113l-99 -704h-113z" />
    <glyph glyph-name="dollar" unicode="$" horiz-adv-x="607" 
d="M262 -131v156l39 -23q-6 0 -12.5 -0.5t-12.5 -0.5q-44 0 -102 10.5t-112 31.5l2 190h86l17 -101q28 -13 58.5 -19t59.5 -6q37 0 66 10t47 30.5t18 50.5q0 32 -19 51.5t-50.5 31.5t-69.5 22.5t-75.5 23.5t-69 33.5t-50.5 54t-19 84.5q0 67 32.5 111.5t88.5 67.5t125 24
l-47 -27v155h97v-154l-39 26h10q28 0 65.5 -6.5t74 -16.5t63.5 -21l-10 -174h-85l-19 96q-22 8 -46.5 12.5t-49.5 4.5q-32 0 -60 -8.5t-45 -26t-17 -47.5q0 -29 19.5 -47.5t51 -31t69.5 -23t76 -24t69.5 -35t50.5 -55t19 -84.5q0 -67 -32.5 -112.5t-88 -70.5t-123.5 -30
l47 30v-163h-97z" />
    <glyph glyph-name="percent" unicode="%" horiz-adv-x="868" 
d="M139 -13l474 728h114l-473 -728h-115zM214 348q-83 0 -128.5 50t-45.5 132q0 83 46 134.5t135 51.5q88 0 130 -49t42 -127q0 -86 -46 -139t-133 -53zM216 424q41 0 57 28.5t16 81.5q1 53 -14.5 79.5t-55.5 26.5q-41 0 -58 -28t-17 -82q0 -51 16.5 -78.5t55.5 -27.5z
M649 -12q-83 0 -128.5 50t-45.5 132q0 83 46 134.5t135 51.5q87 0 129.5 -49.5t42.5 -126.5q0 -86 -46.5 -139t-132.5 -53zM651 64q41 0 57 28.5t16 81.5t-15.5 79t-54.5 26q-42 0 -59 -27.5t-17 -82.5q0 -50 16.5 -77.5t56.5 -27.5z" />
    <glyph glyph-name="ampersand" unicode="&#x26;" horiz-adv-x="672" 
d="M307 -12q-71 0 -128 22t-89.5 66.5t-32.5 112.5q0 48 20.5 88t63.5 67.5t108 35.5l4 -16q-87 9 -132.5 54.5t-45.5 111.5t34.5 107t91 60t122.5 19q53 0 108 -10t107 -30l-9 -158h-88l-19 92l26 -18q-30 9 -57.5 14t-55.5 5q-52 0 -83.5 -22t-31.5 -72q0 -47 35.5 -72
t89.5 -25h301v-75l-83 -24l14 25v-121q0 -76 -33.5 -129t-94 -80.5t-142.5 -27.5zM323 98q53 0 84.5 30t31.5 88v121l25 -19h-132q-43 0 -72 -14.5t-43 -39t-14 -55.5q0 -52 33.5 -81.5t86.5 -29.5z" />
    <glyph glyph-name="quotesingle" unicode="'" horiz-adv-x="251" 
d="M84 503l-21 271h125l-20 -271h-84z" />
    <glyph glyph-name="parenleft" unicode="(" horiz-adv-x="316" 
d="M311 835q-72 -104 -109 -223.5t-37 -237.5q0 -117 37 -236.5t109 -224.5l-89 -53q-97 115 -144 248.5t-47 265.5t47 266t144 248z" />
    <glyph glyph-name="parenright" unicode=")" horiz-adv-x="316" 
d="M4 -86q74 104 110.5 223.5t36.5 237.5q0 117 -36.5 236.5t-110.5 223.5l90 54q97 -115 143.5 -248.5t46.5 -265.5q0 -133 -46.5 -266.5t-143.5 -248.5z" />
    <glyph glyph-name="asterisk" unicode="*" horiz-adv-x="456" 
d="M295 429l-68 112l9 40l42 -4l83 -99zM162 428l-69 49l84 101l40 3l10 -40zM177 578l-126 24l27 80l117 -44l17 -40zM226 611l-31 27l-12 121l84 2l-8 -124zM278 577l-34 24l15 36l114 48l28 -82z" />
    <glyph glyph-name="plus" unicode="+" horiz-adv-x="546" 
d="M243 400l-23 -23v216h106v-216l-23 23h208v-100h-208l23 23v-216h-106v216l23 -23h-208v100h208z" />
    <glyph glyph-name="comma" unicode="," horiz-adv-x="251" 
d="M37 -141q32 49 43 76.5t11 39.5q0 15 -9 27t-18 27t-9 39q0 38 25 58t56 20q19 0 37 -9t29.5 -28t11.5 -49q0 -41 -28 -101.5t-98 -134.5z" />
    <glyph glyph-name="hyphen" unicode="-" horiz-adv-x="446" 
d="M380 346v-106h-314v106h314z" />
    <glyph glyph-name="period" unicode="." horiz-adv-x="233" 
d="M37 68q0 35 23.5 56.5t55.5 21.5q37 0 58.5 -21.5t21.5 -56.5t-24 -56.5t-56 -21.5q-36 0 -57.5 21.5t-21.5 56.5z" />
    <glyph glyph-name="slash" unicode="/" horiz-adv-x="339" 
d="M348 808l-259 -893h-98l258 893h99z" />
    <glyph glyph-name="zero" unicode="0" horiz-adv-x="635" 
d="M313 -12q-94 0 -153 40t-86.5 119.5t-27.5 198.5q0 122 28.5 204.5t90 124t161.5 41.5q99 0 156 -39t81.5 -117.5t24.5 -195.5q0 -123 -29 -207t-89 -126.5t-157 -42.5zM316 97q47 0 73.5 28t38 86.5t11.5 146.5q1 88 -10 143t-37 80.5t-71 25.5q-48 0 -76 -28t-39.5 -85
t-11.5 -144q0 -86 11.5 -142t38.5 -83.5t72 -27.5z" />
    <glyph glyph-name="one" unicode="1" horiz-adv-x="432" 
d="M323 64l-27 37l131 -29v-72h-375v72l156 27l-28 -35v522l39 -2l-166 -92l-46 87l197 129h119v-644z" />
    <glyph glyph-name="two" unicode="2" horiz-adv-x="563" 
d="M35 0v120q114 94 186.5 161t107.5 120.5t35 105.5t-33 77t-84 25q-24 0 -52 -5.5t-58 -15.5l16 24l-18 -113h-85l-11 179q62 19 121 28.5t111 9.5q71 0 126 -19t86 -61t31 -109q0 -73 -37 -140t-107 -137.5t-170 -153.5v16h329v-112h-494z" />
    <glyph glyph-name="three" unicode="3" horiz-adv-x="576" 
d="M253 -12q-59 0 -117 14t-110 42l37 100q45 -21 92.5 -33t91.5 -12q40 0 71.5 11.5t50 36t18.5 62.5q0 33 -15 56.5t-46 36t-79 12.5h-88v101h83q65 0 98.5 25.5t33.5 74.5q0 53 -34.5 75.5t-86.5 22.5q-31 0 -61 -6t-59 -16l19 19l-13 -104h-85l-8 169q60 20 120.5 30.5
t116.5 10.5q67 0 120.5 -17.5t84.5 -56t31 -103.5q0 -77 -46.5 -120.5t-130.5 -53.5l-5 12q100 -7 147.5 -51t47.5 -122q0 -56 -22 -96.5t-61 -67.5t-89.5 -39.5t-106.5 -12.5z" />
    <glyph glyph-name="four" unicode="4" horiz-adv-x="609" 
d="M351 184l36 -29h-364l-15 99l318 463l168 -13v-465l-35 26h139v-110h-139l35 29v-184h-143v184zM389 265l-35 -26v397l48 -8l-282 -414l-27 51h296z" />
    <glyph glyph-name="five" unicode="5" horiz-adv-x="547" 
d="M254 -11q-109 0 -226 53l39 100q42 -19 85 -30t80 -11q39 0 69 13.5t46.5 39.5t16.5 64q0 47 -26.5 70.5t-76 32t-120.5 8.5h-71l14 375h399l-2 -110h-296l40 25l-11 -216l-37 30h60q100 0 161 -25t88.5 -71.5t27.5 -110.5q0 -78 -33.5 -130.5t-92.5 -79.5t-134 -27z" />
    <glyph glyph-name="six" unicode="6" horiz-adv-x="591" 
d="M169 284l-6 94q43 25 90.5 40.5t97.5 15.5q59 0 107.5 -23.5t77.5 -70t29 -115.5q0 -75 -34 -128t-92 -81t-132 -28q-76 0 -136.5 33t-96 103.5t-35.5 184.5q0 127 44 218t123 140t183 49q59 0 123 -17l-10 -103q-26 6 -50 8t-44 2q-79 0 -127.5 -34.5t-71.5 -101.5
t-23 -165q0 -106 29.5 -156.5t91.5 -50.5q51 0 80.5 31t29.5 90q0 39 -14.5 64t-40 38t-57.5 13q-33 0 -68 -12.5t-68 -37.5z" />
    <glyph glyph-name="seven" unicode="7" horiz-adv-x="538" 
d="M525 603l-259 -603h-159l270 612l20 -21h-298l31 21l-25 -120h-86v212h506v-101z" />
    <glyph glyph-name="eight" unicode="8" horiz-adv-x="602" 
d="M289 -12q-48 0 -92.5 12t-80.5 36.5t-56.5 60t-20.5 82.5q0 37 13.5 69t38.5 56.5t58 41t71 24.5l83 -41q-24 -6 -46.5 -17.5t-40 -27.5t-28.5 -37t-11 -48q0 -33 15.5 -57.5t43 -38t62.5 -13.5q37 0 65 14t43.5 38t15.5 54q0 35 -19.5 57t-52 38t-71.5 29t-77.5 28.5
t-71 37.5t-52 54t-19.5 81q0 66 35.5 109t93 64.5t121.5 21.5q62 0 116 -20t87 -60.5t33 -101.5q0 -35 -12.5 -63t-35.5 -48t-53 -34t-66 -23l-101 44q29 3 52.5 12t41.5 23.5t27.5 34t9.5 43.5q0 30 -14 50.5t-38 31t-53 10.5q-28 0 -52 -10t-39 -29.5t-15 -48.5
q0 -33 20 -54.5t52 -36.5t71 -28t78 -28.5t71.5 -38t52 -56t19.5 -82.5q0 -53 -23 -93.5t-62 -67t-87.5 -40.5t-99.5 -14z" />
    <glyph glyph-name="nine" unicode="9" horiz-adv-x="591" 
d="M421 421l7 -95q-42 -25 -90 -41t-99 -16q-62 0 -110 24.5t-75 71.5t-28 112q0 76 33.5 129t92 81.5t132.5 28.5q76 0 136.5 -32.5t96 -103.5t35.5 -186q0 -124 -43.5 -215.5t-122 -141t-185.5 -49.5q-58 0 -122 17l10 102q26 -5 50 -7.5t43 -2.5q80 0 129 34.5t71.5 102
t22.5 165.5q0 105 -29.5 156t-91.5 51q-51 0 -80.5 -31.5t-29.5 -88.5q0 -40 14.5 -66t39.5 -39t57 -13q34 0 69 13.5t67 39.5z" />
    <glyph glyph-name="colon" unicode=":" horiz-adv-x="233" 
d="M37 68q0 35 23.5 56.5t55.5 21.5q37 0 58.5 -21.5t21.5 -56.5t-24 -56.5t-56 -21.5q-36 0 -57.5 21.5t-21.5 56.5zM37 403q0 35 23.5 56.5t55.5 21.5q37 0 58.5 -21.5t21.5 -56.5t-24 -56.5t-56 -21.5q-36 0 -57.5 21.5t-21.5 56.5z" />
    <glyph glyph-name="semicolon" unicode=";" horiz-adv-x="251" 
d="M37 -141q32 49 43 76.5t11 39.5q0 15 -9 27t-18 27t-9 39q0 38 25 58t56 20q19 0 37 -9t29.5 -28t11.5 -49q0 -41 -28 -101.5t-98 -134.5zM55 403q0 35 23.5 56.5t55.5 21.5q37 0 58.5 -21.5t21.5 -56.5t-24 -56.5t-56 -21.5q-36 0 -57.5 21.5t-21.5 56.5z" />
    <glyph glyph-name="less" unicode="&#x3c;" horiz-adv-x="545" 
d="M457 112l-420 191v103l420 198l37 -97l-351 -164v27l352 -157z" />
    <glyph glyph-name="equal" unicode="=" horiz-adv-x="533" 
d="M497 496v-100h-461v100h461zM497 295v-100h-461v100h461z" />
    <glyph glyph-name="greater" unicode="&#x3e;" horiz-adv-x="541" 
d="M90 582l414 -170v-103l-415 -176l-35 94l345 144v-26l-346 131z" />
    <glyph glyph-name="question" unicode="?" horiz-adv-x="448" 
d="M118 244q-3 16 -5 32.5t-2 28.5q0 39 16.5 65.5t41.5 46t49.5 38t41 39.5t16.5 50q0 35 -25.5 51.5t-64.5 16.5q-29 0 -63.5 -7.5t-68.5 -19.5l-30 91q102 42 202 42q54 0 98 -15t70 -47.5t26 -86.5q0 -49 -19.5 -82t-48.5 -58t-58.5 -46.5t-49 -46t-19.5 -58.5
q0 -5 0.5 -13t1.5 -15zM104 65q0 36 24 57.5t58 21.5q35 0 56.5 -21.5t21.5 -55.5q0 -36 -24 -57.5t-58 -21.5t-56 21t-22 56z" />
    <glyph glyph-name="at" unicode="@" horiz-adv-x="868" 
d="M394 -112q-100 0 -178.5 44.5t-123 129t-44.5 201.5q0 98 31 172t85.5 124.5t127.5 75.5t155 25t151.5 -24.5t121 -71t80 -114t28.5 -153.5q0 -114 -51.5 -174t-142.5 -60q-53 0 -86.5 22t-46.5 70h20q-24 -43 -63.5 -67.5t-81.5 -24.5q-32 0 -59 14.5t-43.5 42.5
t-16.5 68q0 56 35 88t112 32h106l-14 -17v57q0 32 -21.5 45t-54.5 13q-26 0 -57.5 -6.5t-61.5 -16.5l-17 70q43 17 85.5 25.5t79.5 8.5q68 0 111.5 -33.5t43.5 -109.5v-157q0 -28 11.5 -39.5t32.5 -11.5q37 0 53.5 40.5t16.5 99.5q0 97 -33 163t-94.5 100t-147.5 34
t-150.5 -35t-99.5 -103.5t-35 -169.5q0 -91 30.5 -156t86 -100t132.5 -35q34 0 72 7t77 21l29 -76q-48 -19 -97 -28.5t-94 -9.5zM419 142q23 0 46 15.5t41 41.5l-10 -32v104l14 -17h-73q-36 0 -51 -14.5t-15 -40.5q0 -28 13.5 -42.5t34.5 -14.5z" />
    <glyph glyph-name="A" unicode="A" horiz-adv-x="713" 
d="M661 67l-37 33l86 -28v-72h-287v72l87 25l-14 -20l-40 130l22 -18h-264l17 17l-43 -127l-4 15l80 -22v-72h-261v72l83 26l-32 -28l236 632l147 4zM250 269l-10 19h215l-14 -22l-104 361h33z" />
    <glyph glyph-name="B" unicode="B" horiz-adv-x="647" 
d="M368 350l9 14q70 -1 121 -17.5t79 -53t28 -97.5q0 -62 -30.5 -106t-90.5 -67t-149 -23h-299v72l93 27l-19 -29v560l23 -30l-97 27v72l211 5h103q73 0 124 -18.5t78 -57t27 -98.5q0 -82 -52.5 -126.5t-158.5 -53.5zM322 603h-91l22 22v-237l-22 20h69q38 0 68.5 9
t48.5 31.5t18 61.5q0 37 -15 57t-40.5 28t-57.5 8zM322 102q39 0 70 9t49 32t18 63q0 39 -16 61.5t-41 31.5t-55 9h-116l22 25v-254l-22 23h91z" />
    <glyph glyph-name="C" unicode="C" horiz-adv-x="632" 
d="M341 -12q-82 0 -150 40.5t-109 121t-41 198.5q0 116 40 198t113 126t171 44q52 0 107 -13t118 -39l-9 -180h-85l-24 117l24 -23q-35 14 -67 21t-59 7q-57 0 -96 -28.5t-59 -82.5t-20 -129q0 -88 23.5 -146.5t65 -87t93.5 -28.5q39 0 82.5 16.5t87.5 50.5l53 -83
q-62 -50 -128.5 -75t-130.5 -25z" />
    <glyph glyph-name="D" unicode="D" horiz-adv-x="712" 
d="M351 704q73 0 132.5 -21t101.5 -64t64.5 -106.5t22.5 -148.5q0 -119 -42.5 -200t-119 -122.5t-180.5 -41.5h-294v72l93 27l-19 -29v560l21 -29l-95 26v72l227 5h88zM337 103q32 0 64 9.5t58.5 35.5t42.5 76t16 132q0 79 -15 127.5t-40 74t-55.5 34.5t-60.5 9h-116l22 22
v-542l-22 22h106z" />
    <glyph glyph-name="E" unicode="E" horiz-adv-x="609" 
d="M474 188h85l-2 -188h-521v72l93 27l-19 -29v560l18 -28l-92 25v72l214 5h296v-180h-85l-20 97l27 -20h-237l22 22v-237l-22 22h237v-99h-237l22 25v-253l-22 22h249l-27 -22z" />
    <glyph glyph-name="F" unicode="F" horiz-adv-x="562" 
d="M36 0v72l89 26l-15 -21v553l20 -29l-94 26v72l214 5h291v-182h-85l-19 94l26 -15h-232l22 22v-239l-22 20h233v-103h-233l22 23v-247l-18 21l109 -26v-72h-308z" />
    <glyph glyph-name="G" unicode="G" horiz-adv-x="716" 
d="M369 -12q-98 0 -172 41t-114.5 121t-40.5 198q0 116 40.5 198.5t116.5 126t183 43.5q58 0 120.5 -13t126.5 -40l-10 -179h-85l-24 116l22 -20q-35 12 -71 19.5t-68 7.5q-62 0 -106 -29t-67.5 -86t-23.5 -142q0 -118 48.5 -185t141.5 -67q28 0 59 6.5t64 18.5l-17 -30v190
l23 -25l-96 19v74l278 5v-75l-86 -23l14 25v-239q-69 -28 -134 -42t-122 -14z" />
    <glyph glyph-name="H" unicode="H" horiz-adv-x="787" 
d="M36 0v72l93 27l-19 -29v560l23 -30l-97 27v72l290 5v-72l-95 -32l22 31v-243l-22 22h326l-22 -22v242l22 -29l-96 26v72l290 5v-72l-93 -31l20 30v-561l-20 29l93 -27v-72h-290v72l92 27l-18 -29v260l22 -23h-326l22 23v-260l-18 29l91 -27v-72h-290z" />
    <glyph glyph-name="I" unicode="I" horiz-adv-x="362" 
d="M326 632l-88 -30l15 22v-547l-15 21l88 -26v-72h-290v72l87 25l-13 -20v547l18 -22l-92 25v72l290 5v-72z" />
    <glyph glyph-name="J" unicode="J" horiz-adv-x="342" 
d="M20 699l296 5v-70l-89 -33l16 29v-524q0 -63 -10 -113t-34 -85.5t-64.5 -54t-102.5 -18.5q-18 0 -36.5 1.5t-39.5 4.5l12 102q10 -1 18 -2t16 -1q54 0 76 33.5t22 103.5v553l17 -27l-97 24v72z" />
    <glyph glyph-name="K" unicode="K" horiz-adv-x="718" 
d="M658 68l-39 30l86 -26v-72h-284v72l76 26l-3 -24l-171 262l38 -28h-130l22 29v-267l-18 31l88 -29v-72h-287v72l89 26l-15 -28v561l15 -27l-89 23v72l287 5v-70l-88 -30l18 30v-246l-22 23h140l-37 -22l142 240l11 -21l-84 19v72l270 5v-72l-89 -28l31 24l-173 -280v37z
" />
    <glyph glyph-name="L" unicode="L" horiz-adv-x="558" 
d="M452 212h85v-212h-501v72l90 26l-16 -28v560l16 -27l-90 24v72l297 5v-72l-95 -29l15 27v-549l-22 22h218l-20 -23z" />
    <glyph glyph-name="M" unicode="M" horiz-adv-x="873" 
d="M837 632l-93 -32l20 37v-567l-20 29l93 -27v-72h-279v72l97 28l-23 -30v481l21 -1l-183 -367l-90 -5l-176 374h21v-482l-16 27l90 -25v-72h-263v72l93 27l-19 -29v567l19 -35l-93 25v72l249 5l165 -383h-17l173 378l231 5v-72z" />
    <glyph glyph-name="N" unicode="N" horiz-adv-x="772" 
d="M483 699l265 5v-72l-94 -31l21 30v-631h-165l-302 553h20v-483l-21 30l95 -28v-72h-266v72l95 28l-21 -30v560l14 -26l-88 23v72l244 5l297 -542h-21v469l22 -29l-95 25v72z" />
    <glyph glyph-name="O" unicode="O" horiz-adv-x="732" 
d="M352 -12q-95 0 -164.5 40.5t-107.5 119.5t-38 195q0 93 24 163t68 116.5t104.5 70t134.5 23.5q73 0 131.5 -23t100 -67t64.5 -109.5t23 -151.5q0 -117 -42.5 -201.5t-118.5 -130t-179 -45.5zM363 98q50 0 89 24.5t62.5 82t23.5 154.5q0 90 -21.5 144.5t-59.5 78.5t-90 24
q-50 0 -89 -24t-60.5 -80t-21.5 -154q0 -90 20 -144.5t57.5 -80t89.5 -25.5z" />
    <glyph glyph-name="P" unicode="P" horiz-adv-x="610" 
d="M303 249h-79l29 22v-201l-20 28l115 -26v-72h-312v72l96 28l-22 -30v562l25 -31l-99 26v72l220 5h91q83 0 136 -28.5t78.5 -77.5t25.5 -111q0 -67 -30.5 -121.5t-93 -85.5t-160.5 -31zM324 602h-93l22 22v-294l-29 22h80q67 0 102 36t35 96q0 55 -29.5 86.5t-87.5 31.5z
" />
    <glyph glyph-name="Q" unicode="Q" horiz-adv-x="738" 
d="M662 -193q-37 0 -80.5 20t-106 62.5t-156.5 109.5l33 -11q-95 1 -165 42t-107.5 119.5t-37.5 194.5q0 92 24 161.5t68.5 116.5t105.5 70.5t136 23.5q73 0 132.5 -23t101.5 -67t64.5 -109.5t22.5 -150.5q0 -100 -31 -176t-87 -124t-132 -66l4 17q57 -34 95 -55.5t66 -31.5
t52 -10q25 0 50 9.5t57 28.5l51 -87q-51 -31 -87.5 -47.5t-72.5 -16.5zM196 348q0 -89 20 -144t58 -80.5t91 -25.5q56 0 96 26.5t61 84.5t21 151q0 87 -20.5 141.5t-59 79.5t-94.5 25q-54 0 -93 -26.5t-59.5 -83t-20.5 -148.5z" />
    <glyph glyph-name="R" unicode="R" horiz-adv-x="667" 
d="M36 0v72l92 26l-18 -28v560l25 -30l-99 27v72l223 5h97q120 0 181 -50t61 -144q0 -84 -51.5 -139t-161.5 -67l1 16q39 -1 64 -12t41.5 -30.5t30.5 -46.5l80 -154l-41 25l92 -30v-72h-164l-90 193q-18 38 -31 58.5t-32 28t-55 6.5h-52l24 20v-236l-19 29l101 -27v-72h-299
zM253 350l-24 35h83q70 0 105 29t35 86q0 48 -28 75t-86 27h-109l24 22v-274z" />
    <glyph glyph-name="S" unicode="S" horiz-adv-x="601" 
d="M195 527q0 -29 20 -48t52 -32.5t71 -26t77 -28t70.5 -39t52 -59.5t19.5 -90q0 -74 -38.5 -122t-102.5 -71.5t-142 -23.5q-53 0 -108.5 10.5t-109.5 31.5l5 190h83l21 -121l-13 24q30 -14 63.5 -21.5t65.5 -7.5q37 0 68 10t49 31t18 52t-19 51t-51.5 33.5t-70.5 25
t-76.5 26.5t-71 38t-51.5 58.5t-19 89.5q0 71 34 116.5t92 68.5t131 23q52 0 108 -11t112 -33l-11 -175h-85l-21 109l16 -16q-25 10 -53.5 15.5t-57.5 5.5q-34 0 -63 -8.5t-46.5 -27t-17.5 -48.5z" />
    <glyph glyph-name="T" unicode="T" horiz-adv-x="612" 
d="M149 0v72l111 28l-26 -36v559l29 -22h-163l32 28l-27 -127h-85v202h572v-202h-85l-25 121l30 -22h-163l29 22v-559l-25 36l110 -28v-72h-314z" />
    <glyph glyph-name="U" unicode="U" horiz-adv-x="742" 
d="M434 699l290 5v-72l-89 -30l16 36v-363q0 -51 -9.5 -94.5t-30.5 -79t-54 -61t-80.5 -39t-109.5 -13.5q-83 0 -135 20.5t-81 53t-41.5 70t-15 72t-2.5 58.5v375l16 -34l-90 24v72l290 5v-72l-87 -30l14 35v-375q0 -26 2.5 -50.5t9.5 -45t21.5 -36t39 -24t61.5 -8.5
q38 0 63 9t40.5 25.5t23 38.5t10 48.5t2.5 55.5v363l13 -33l-87 22v72z" />
    <glyph glyph-name="V" unicode="V" horiz-adv-x="709" 
d="M274 -1l-212 628l33 -25l-91 25v72l296 5v-72l-98 -28l17 35l153 -515h-20l167 507l11 -28l-91 24v72l267 5v-72l-90 -27l33 25l-223 -631h-152z" />
    <glyph glyph-name="W" unicode="W" horiz-adv-x="1021" 
d="M755 699l263 5v-72l-91 -26l33 37l-181 -644h-135l-150 532h26l-156 -532h-134l-166 632l14 -23l-74 19v72l276 5v-72l-87 -28l17 27l113 -503l-29 1l157 571l132 4l152 -573l-29 -1l128 501l12 -26l-91 22v72z" />
    <glyph glyph-name="X" unicode="X" horiz-adv-x="711" 
d="M654 68l-42 30l82 -26v-72h-295v72l83 24l3 -22l-162 226l34 1l-164 -233l-7 31l87 -27v-72h-255v72l82 27l-39 -33l226 305l-1 -37l-212 296l33 -22l-77 19v72l289 5v-72l-78 -24l5 18l146 -210l-32 7l144 203l7 -21l-81 22v72l251 5v-72l-81 -32l35 30l-211 -285l4 36z
" />
    <glyph glyph-name="Y" unicode="Y" horiz-adv-x="648" 
d="M173 0v72l96 28l-19 -30v207l12 -49l-207 397l26 -22l-79 24v72l279 5v-72l-89 -24l11 25l144 -305h-27l146 299l11 -25l-92 25v72l260 5v-72l-80 -24l28 21l-211 -401l11 49v-207l-20 30l96 -28v-72h-296z" />
    <glyph glyph-name="Z" unicode="Z" horiz-adv-x="623" 
d="M34 0v95l387 521l15 -17h-304l33 16l-23 -113h-85v202h520v-95l-386 -526l-5 22h319l-30 -21l20 118h86l-1 -202h-546z" />
    <glyph glyph-name="bracketleft" unicode="[" horiz-adv-x="348" 
d="M85 -110v971l253 -5v-86l-133 -7v-775l133 -8v-85z" />
    <glyph glyph-name="backslash" unicode="\" horiz-adv-x="351" 
d="M-4 808h101l258 -893h-99z" />
    <glyph glyph-name="bracketright" unicode="]" horiz-adv-x="348" 
d="M263 861v-971l-253 5v85l133 8v775l-133 7v86z" />
    <glyph glyph-name="asciicircum" unicode="^" horiz-adv-x="544" 
d="M29 534l192 347h101l193 -347h-129l-149 295h67l-150 -295h-125z" />
    <glyph glyph-name="underscore" unicode="_" horiz-adv-x="491" 
d="M492 -61v-89h-493v89h493z" />
    <glyph glyph-name="grave" unicode="`" horiz-adv-x="346" 
d="M103 839l208 -161l-53 -72l-228 135z" />
    <glyph glyph-name="a" unicode="a" horiz-adv-x="561" 
d="M482 71l-19 28l86 -27v-71l-175 -9l-19 96l10 -3q-40 -49 -87 -73t-97 -24q-64 0 -106 41t-42 118q0 57 24.5 90.5t71.5 48.5t114 15h109l-10 -11v66q0 47 -22.5 67t-65.5 20q-21 0 -45 -4t-52 -12l14 15l-13 -81h-87l-8 146q68 20 124.5 29.5t103.5 9.5q93 0 142 -40
t49 -124v-311zM174 161q0 -37 17.5 -54.5t44.5 -17.5q25 0 55 15.5t57 42.5l-6 -24v114l10 -10h-86q-52 0 -72 -16t-20 -50z" />
    <glyph glyph-name="b" unicode="b" horiz-adv-x="589" 
d="M249 -12q-39 0 -84 5t-97 15v702l22 -38l-89 26v72l207 8v-330l-17 21q36 36 79 56.5t91 20.5q58 0 102 -30.5t69.5 -90.5t25.5 -148q0 -63 -15.5 -115.5t-51 -91.5t-95 -60.5t-147.5 -21.5zM274 88q72 0 105 47t33 131q0 55 -13 94.5t-36 61t-57 21.5q-26 0 -55 -14
t-60 -43l17 43v-363l-17 34q47 -12 83 -12z" />
    <glyph glyph-name="c" unicode="c" horiz-adv-x="516" 
d="M273 -12q-69 0 -124.5 32.5t-87.5 93.5t-32 148q0 79 23 133t62 87.5t87 48.5t99 15q48 0 97 -12t80 -27l-4 -147h-90l-15 82l11 -8q-15 6 -36.5 9t-39.5 3q-43 0 -71.5 -21.5t-42.5 -61t-14 -93.5q0 -58 16 -98t45.5 -60.5t68.5 -20.5q31 0 68 13t77 39l47 -71
q-56 -43 -112 -63.5t-112 -20.5z" />
    <glyph glyph-name="d" unicode="d" horiz-adv-x="604" 
d="M230 -12q-58 0 -102.5 30.5t-70 90.5t-25.5 146q0 148 75 219.5t211 71.5q22 0 44 -2t46 -7l-26 -16v165l10 -14l-82 27v71l212 8v-700l-17 20l84 -26v-71l-176 -8l-18 86l14 -5q-44 -43 -87.5 -64.5t-91.5 -21.5zM284 91q26 0 55 14.5t60 42.5l-17 -42v359l17 -32
q-47 13 -85 13q-71 0 -103.5 -47.5t-32.5 -130.5q0 -54 13 -94t36.5 -61.5t56.5 -21.5z" />
    <glyph glyph-name="e" unicode="e" horiz-adv-x="549" 
d="M275 -12q-73 0 -128 30.5t-85.5 91t-30.5 147.5q0 90 32.5 154.5t91.5 99.5t139 35q78 0 127 -31t72 -84.5t23 -120.5q0 -17 -1.5 -34t-4.5 -36h-366v83h246l-18 -13q1 40 -7.5 70.5t-28 47.5t-53.5 17q-39 0 -63 -22.5t-34.5 -60.5t-10.5 -85q0 -53 13 -95t42.5 -66
t77.5 -24q34 0 73.5 12.5t82.5 37.5l47 -75q-58 -40 -118.5 -59.5t-117.5 -19.5z" />
    <glyph glyph-name="f" unicode="f" horiz-adv-x="374" 
d="M31 0v72l80 23l-13 -15v371l13 -15h-83v75l86 22l-16 -21v64q0 107 57 158.5t153 51.5q28 0 57.5 -5t63.5 -14l-20 -93q-19 6 -39 9.5t-38 3.5q-41 0 -67.5 -22.5t-26.5 -76.5v-76l-18 17h143l-3 -93h-136l14 15v-371l-13 15l93 -23v-72h-287z" />
    <glyph glyph-name="g" unicode="g" horiz-adv-x="574" 
d="M260 -242q-125 0 -186 33t-61 98q0 50 34.5 83.5t101.5 55.5l-2 -28q-38 3 -62 20t-24 45q0 9 3 19t11 25.5t22 38.5t35 58l2 -23q-50 23 -76 65t-26 100q0 93 63.5 145.5t176.5 52.5q81 0 138 -28l-32 6l167 6v-75l-79 -16l9 15q15 -18 23 -42t8 -55q0 -93 -65 -146.5
t-175 -53.5q-52 0 -100 14l23 14l-16 -107l-21 10h200q101 0 153 -39t52 -114q0 -86 -74.5 -131.5t-222.5 -45.5zM272 -144q80 0 115.5 17t35.5 50q0 32 -24 47t-69 15h-174l33 7q-54 -34 -54 -77q0 -29 33 -44t104 -15zM266 251q49 0 75 26t26 77t-24 74.5t-72 23.5
q-49 0 -74 -25t-25 -75q0 -49 24 -75t70 -26z" />
    <glyph glyph-name="h" unicode="h" horiz-adv-x="630" 
d="M16 0v72l83 24l-17 -20v620l17 -22l-83 24v72l206 8v-335l-31 7q48 49 102 72.5t103 23.5q45 0 81 -19t56.5 -56.5t19.5 -94.5v-300l-13 20l80 -24v-72h-267v72l77 22l-17 -21v273q1 48 -21 71t-57 23q-27 0 -59 -15t-64 -45l10 21v-328l-13 21l73 -22v-72h-266z" />
    <glyph glyph-name="i" unicode="i" horiz-adv-x="318" 
d="M236 82l-10 12l77 -22v-72h-274v72l77 22l-10 -12v365l9 -9l-76 21v72l207 7v-456zM162 616q-37 0 -59.5 21t-22.5 60q0 42 23.5 62.5t59.5 20.5q35 0 58 -20.5t23 -61.5t-23.5 -61.5t-58.5 -20.5z" />
    <glyph glyph-name="j" unicode="j" horiz-adv-x="291" 
d="M7 -242q-16 0 -32 2t-34 5l10 99q11 -1 21 -2t19 -1q49 0 70.5 22t21.5 76v493l13 -16l-80 23v72l207 7v-537q0 -66 -15.5 -112t-43.5 -75t-68 -42.5t-89 -13.5zM144 616q-37 0 -59.5 21t-22.5 60q0 42 23.5 62.5t59.5 20.5q35 0 58 -20.5t23 -61.5t-23.5 -61.5
t-58.5 -20.5z" />
    <glyph glyph-name="k" unicode="k" horiz-adv-x="594" 
d="M16 0v72l83 24l-17 -26v622l11 -16l-77 22v72l206 8v-460l-23 21h128l-34 -16l90 137l10 -15l-70 14v71l244 8v-71l-84 -19l38 21l-123 -182l2 36l132 -249l-21 18l76 -21v-71h-162l-127 255l20 -9h-119l23 9v-185l-14 27l78 -25v-72h-270z" />
    <glyph glyph-name="l" unicode="l" horiz-adv-x="305" 
d="M222 82l-10 12l77 -22v-72h-273v72l77 22l-11 -12v605l9 -10l-75 21v72l206 8v-696z" />
    <glyph glyph-name="m" unicode="m" horiz-adv-x="954" 
d="M544 453l-20 -5q48 49 102 73.5t103 24.5q63 0 105.5 -41.5t42.5 -127.5v-301l-13 20l80 -24v-72h-263v72l73 22l-17 -21v273q0 48 -19.5 71t-50.5 23q-26 0 -58 -16t-64 -47l10 31q2 -8 2 -14.5v-11.5v-306l-13 20l70 -24v-72h-254v72l73 22l-16 -21v273q0 48 -20 71
t-50 23q-26 0 -58 -15t-62 -45l9 21v-328l-13 21l70 -22v-72h-264v72l84 24l-17 -20v381l17 -23l-84 25v72l176 8l18 -96l-18 7q47 47 100.5 71.5t102.5 24.5q46 0 82 -22.5t54 -70.5z" />
    <glyph glyph-name="n" unicode="n" horiz-adv-x="644" 
d="M29 0v72l84 24l-17 -20v381l17 -23l-84 25v72l176 8l18 -96l-18 7q48 49 102 72.5t103 23.5q68 0 113 -42.5t44 -128.5v-299l-13 20l80 -24v-72h-267v72l76 22l-16 -21v272q0 49 -21.5 72t-56.5 23q-27 0 -59 -15t-63 -45l9 21v-328l-13 21l73 -22v-72h-267z" />
    <glyph glyph-name="o" unicode="o" horiz-adv-x="577" 
d="M296 546q118 0 184 -70t66 -199q0 -90 -32 -154.5t-92 -99.5t-144 -35q-118 0 -182.5 70t-64.5 199q0 90 31.5 154.5t90.5 99.5t143 35zM289 446q-57 0 -85 -44.5t-28 -137.5t27 -134.5t82 -41.5q40 0 65 20t38 61t13 101q0 91 -28 133.5t-84 42.5z" />
    <glyph glyph-name="p" unicode="p" horiz-adv-x="608" 
d="M20 -230v72l85 28l-18 -24v607l16 -19l-83 25v72l176 8l16 -87l-16 8q47 42 91.5 64t92.5 22q58 0 102 -30.5t69.5 -90t25.5 -145.5q0 -97 -33 -162t-92.5 -97.5t-138.5 -32.5q-24 0 -50 3.5t-54 9.5l18 16v-171l-15 21l93 -25v-72h-285zM295 87q71 0 103.5 48t32.5 131
q0 55 -13 94.5t-36 61t-57 21.5q-26 0 -55 -14t-60 -43l17 37v-349l-17 27q47 -14 85 -14z" />
    <glyph glyph-name="q" unicode="q" horiz-adv-x="590" 
d="M300 -230v75l97 27l-15 -24v218l27 8q-44 -43 -87.5 -64.5t-91.5 -21.5q-58 0 -102.5 30.5t-70 90.5t-25.5 146q0 107 37.5 171t104.5 92t156 28q44 0 92 -6t100 -16v-676l-16 24l83 -27v-75h-289zM284 91q26 0 55 14.5t60 42.5l-17 -42v360l17 -33q-47 13 -85 13
q-71 0 -103.5 -47.5t-32.5 -130.5q0 -54 13 -94t36.5 -61.5t56.5 -21.5z" />
    <glyph glyph-name="r" unicode="r" horiz-adv-x="470" 
d="M29 0v72l81 23l-14 -21v384l16 -24l-83 25v72l176 8l18 -95l-18 4q45 47 89 72.5t94 25.5q32 0 68 -10l-9 -185h-81l-15 108l13 -27q-6 2 -12.5 3t-12.5 1q-31 0 -61.5 -19t-52.5 -49l11 38v-332l-16 21l99 -23v-72h-290z" />
    <glyph glyph-name="s" unicode="s" horiz-adv-x="493" 
d="M183 399q0 -23 20 -37t51.5 -24t67 -21t67 -28.5t51.5 -46.5t20 -75q0 -59 -32 -99t-87 -60t-124 -20q-40 0 -84.5 7t-91.5 19l6 151h88l11 -88l-12 17q20 -6 44 -9.5t42 -3.5q26 0 48.5 7t37 20.5t14.5 34.5q0 24 -20 38t-51.5 24t-66 21t-66 29t-51.5 48t-20 78
q0 58 29 94.5t77.5 53.5t106.5 17q41 0 87 -7.5t94 -21.5l-5 -134h-89l-16 79l19 -21q-47 13 -83 13q-37 0 -59.5 -14.5t-22.5 -40.5z" />
    <glyph glyph-name="t" unicode="t" horiz-adv-x="395" 
d="M224 -12q-69 0 -104.5 41.5t-35.5 123.5v306l18 -18h-96v75l98 23l-20 -24v136l141 25v-161l-15 19h152l-2 -93h-150l15 18v-287q0 -43 14 -62t42 -19q16 0 35.5 5.5t42.5 14.5l26 -77q-84 -46 -161 -46z" />
    <glyph glyph-name="u" unicode="u" horiz-adv-x="631" 
d="M233 -12q-67 0 -112 43.5t-45 131.5v292l13 -20l-79 24v72l206 7v-352q0 -47 21 -69.5t56 -22.5q27 0 59.5 14.5t64.5 45.5l-10 -25v329l13 -23l-79 24v72l206 7v-464l-17 24l84 -26v-71l-176 -8l-19 98l20 -7q-50 -48 -103.5 -72t-102.5 -24z" />
    <glyph glyph-name="v" unicode="v" horiz-adv-x="544" 
d="M322 530l226 8v-71l-57 -25l19 21l-165 -465h-164l-145 460l20 -16l-60 16v72l245 8v-71l-73 -22l10 18l102 -376h-11l113 368l8 -11l-68 14v72z" />
    <glyph glyph-name="w" unicode="w" horiz-adv-x="832" 
d="M623 530l213 8v-71l-62 -20l18 15l-127 -464h-151l-108 430l27 -1l-122 -429h-151l-118 458l15 -13l-61 15v72l236 8v-71l-73 -20l15 11l84 -376h-23l119 449l143 8l110 -462h-21l92 378l13 -13l-68 16v72z" />
    <glyph glyph-name="x" unicode="x" horiz-adv-x="569" 
d="M10 0v71l83 19l-34 -19l157 217l32 3l161 239l137 8v-71l-85 -22l40 22l-152 -205l-30 -2l-171 -260h-138zM292 0v72l65 12l-8 -19l-125 177l-161 224l28 -24l-69 16v72l248 8v-71l-67 -15l10 21l109 -158l179 -243l-24 19l80 -19v-72h-265z" />
    <glyph glyph-name="y" unicode="y" horiz-adv-x="556" 
d="M8 -235l13 99q16 -2 29.5 -3t25.5 -1q44 0 71.5 17.5t48 54t40.5 94.5l-5 -47l-192 477l13 -12l-58 14v72l249 8v-71l-70 -19l7 12l127 -374l-34 7l113 365l7 -14l-69 14v72l236 8v-71l-63 -20l19 12l-165 -457q-21 -58 -45 -103t-54.5 -76.5t-71 -48t-94.5 -16.5
q-35 0 -78 7z" />
    <glyph glyph-name="z" unicode="z" horiz-adv-x="504" 
d="M470 172l1 -172h-437v82l291 385l18 -27h-243l38 30l-14 -97h-85l-1 161h421v-82l-293 -396l-5 38h233l-36 -38l27 116h85z" />
    <glyph glyph-name="braceleft" unicode="{" horiz-adv-x="361" 
d="M279 -110q-90 0 -131 45.5t-41 137.5v150q0 48 -18.5 77t-71.5 29v93q55 0 72.5 29t17.5 77v149q0 93 41 138.5t131 45.5h63v-86q-46 0 -70 -9t-32.5 -32t-8.5 -65v-155q0 -54 -21 -86t-57 -46t-84 -14v15q48 0 84 -14t57 -46t21 -86v-155q0 -42 8.5 -65t32.5 -32.5
t70 -9.5v-85h-63z" />
    <glyph glyph-name="bar" unicode="|" horiz-adv-x="312" 
d="M103 811h106v-918h-106v918z" />
    <glyph glyph-name="braceright" unicode="}" horiz-adv-x="361" 
d="M82 -110q90 0 131 45.5t41 137.5v150q0 48 19 77t72 29v93q-55 0 -73 29t-18 77v149q0 93 -41 138.5t-131 45.5h-63v-86q46 0 70 -9t33 -32t9 -65v-155q0 -54 20.5 -86t57 -46t83.5 -14v15q-47 0 -83.5 -14t-57 -46t-20.5 -86v-155q0 -42 -9 -65t-33 -32.5t-70 -9.5v-85
h63z" />
    <glyph glyph-name="asciitilde" unicode="~" horiz-adv-x="589" 
d="M398 272q-29 0 -56.5 10t-53.5 23.5t-50 23.5t-49 10q-22 0 -43.5 -11t-45.5 -41l-57 37q33 64 70 90.5t78 26.5q30 0 57.5 -10t53.5 -23.5t51 -23.5t49 -10q22 0 43.5 11.5t44.5 40.5l56 -38q-34 -64 -70.5 -90t-77.5 -26z" />
    <glyph glyph-name="uni00A0" unicode="&#xa0;" horiz-adv-x="180" 
 />
    <glyph glyph-name="exclamdown" unicode="&#xa1;" horiz-adv-x="321" 
d="M212 274l23 -464h-149l23 457zM240 448q0 -35 -23.5 -56.5t-55.5 -21.5q-37 0 -58.5 21.5t-21.5 56.5t24 56.5t56 21.5q37 0 58 -21.5t21 -56.5z" />
    <glyph glyph-name="cent" unicode="&#xa2;" horiz-adv-x="534" 
d="M490 181q-49 -38 -98.5 -56.5t-97.5 -22.5l37 29v-152h-92v150l42 -27q-70 0 -122.5 30t-82.5 87.5t-30 137.5q0 85 31.5 140t84 84t113.5 33l-36 -28v152h92v-148l-51 24q37 2 72.5 -2.5t66.5 -14t51 -19.5l-4 -134h-80l-12 68q-16 6 -35 8.5t-34 2.5q-42 0 -70 -20.5
t-41.5 -56t-13.5 -83.5q0 -53 15 -90.5t43.5 -56.5t67.5 -19q31 0 67 12.5t73 38.5z" />
    <glyph glyph-name="sterling" unicode="&#xa3;" horiz-adv-x="653" 
d="M54 0v72l104 33l-41 -32q24 19 32.5 51t8.5 71q0 35 -4.5 74t-9.5 81l20 -25h-110v75l97 11l-12 -22q-3 32 -6 64.5t-3 56.5q0 79 30.5 124t83 63.5t119.5 18.5q47 0 99.5 -8t109.5 -23l-11 -170h-85l-20 105l13 -20q-25 6 -49 9.5t-44 3.5q-48 0 -75 -22.5t-27 -79.5
q0 -21 3 -54t6 -64l-24 18h188v-86h-180l21 31q4 -30 7 -58.5t3 -56.5q0 -45 -12.5 -83.5t-47.5 -68.5l-16 15l270 -1l-20 -24l23 122h85v-201h-526z" />
    <glyph glyph-name="currency" unicode="&#xa4;" horiz-adv-x="655" 
d="M594 119l-68 -72l-107 100l52 2q-27 -24 -63.5 -38t-82.5 -14t-83 14.5t-62 40.5l57 3l-113 -107l-61 66l110 103l-2 -57q-24 26 -37 60.5t-13 72.5q0 39 13.5 74t37.5 64l-9 -48l-105 98l69 73l109 -103l-48 -6q28 23 64 36t81 13t79 -12.5t58 -32.5l-47 3l106 99
l60 -65l-106 -100l-3 55q27 -28 41 -64t14 -76q0 -38 -13 -73.5t-38 -63.5l-2 58zM327 181q33 0 53.5 14.5t30.5 40.5t10 60q1 53 -21 83.5t-70 30.5q-32 0 -53.5 -14.5t-31.5 -41t-10 -61.5q0 -50 22.5 -81t69.5 -31z" />
    <glyph glyph-name="yen" unicode="&#xa5;" horiz-adv-x="695" 
d="M113 291v66h130l-10 -23l-153 291l26 -22l-75 24v72l275 5v-72l-89 -24l8 25l144 -301h-24l146 295l11 -25l-92 25v72l256 5v-72l-76 -24l28 21l-157 -298l-12 26h131v-66h-467zM201 0v72l93 28l-19 -30v123l22 -22h-184v66h467v-66h-189l27 24v-125l-20 30l93 -28v-72
h-290z" />
    <glyph glyph-name="brokenbar" unicode="&#xa6;" horiz-adv-x="312" 
d="M103 436v375h106v-375h-106zM103 -107v375h106v-375h-106z" />
    <glyph glyph-name="section" unicode="&#xa7;" horiz-adv-x="550" 
d="M243 -182q-39 0 -81.5 6.5t-86.5 18.5l7 143h85l12 -85l-12 19q18 -7 37.5 -10.5t37.5 -3.5q40 0 67.5 18t27.5 54q0 30 -19.5 52t-51.5 41t-67 38.5t-66.5 43t-51.5 55t-20 75.5q0 50 25.5 82t68 49.5t93.5 22.5l16 -39q-17 -3 -36.5 -17.5t-32.5 -36t-13 -46.5
q0 -30 20.5 -52.5t53.5 -42t69 -39.5t69 -44.5t53.5 -57.5t20.5 -80q0 -54 -29.5 -90.5t-80.5 -55t-115 -18.5zM290 99l-6 40q18 5 38 20t34 37t14 46q0 31 -20.5 53.5t-52.5 41.5t-68.5 39.5t-68.5 45t-52.5 58.5t-20.5 81q0 76 57.5 115t148.5 39q39 0 83 -7t90 -21
l-6 -127h-86l-16 77l19 -22q-19 6 -37.5 9t-37.5 3q-38 0 -62.5 -16.5t-24.5 -48.5q0 -30 20 -52t52 -41t67.5 -38t67 -42t52 -54.5t20.5 -75.5q0 -48 -28 -82t-74 -53t-102 -25z" />
    <glyph glyph-name="dieresis" unicode="&#xa8;" horiz-adv-x="466" 
d="M342 624q-33 0 -51 19.5t-18 54.5q-1 35 19.5 55t49.5 20q33 0 52 -20t19 -55t-20.5 -54.5t-50.5 -19.5zM122 624q-32 0 -50 19.5t-19 54.5t19.5 55t49.5 20q33 0 52 -20t19 -55t-21 -54.5t-50 -19.5z" />
    <glyph glyph-name="copyright" unicode="&#xa9;" horiz-adv-x="859" 
d="M424 151q-78 0 -128.5 51.5t-50.5 145.5q0 67 26 112.5t70 69t98 23.5q66 0 133 -32l-3 -104h-65l-10 58l6 -6q-10 4 -25.5 6.5t-27.5 2.5q-48 0 -70 -34t-22 -89q0 -65 25 -96t67 -31q23 0 50.5 9t54.5 29l35 -55q-40 -31 -82 -45.5t-81 -14.5zM417 -12q-78 0 -144 26
t-114.5 74t-75 113t-26.5 144q0 80 28 148t78.5 118t119.5 77.5t150 27.5q79 0 146 -26t117 -74t78 -113t28 -143q0 -80 -29.5 -148t-82 -118.5t-122.5 -78t-151 -27.5zM424 64q63 0 115 21.5t89.5 60.5t58.5 92t21 116q0 84 -36 148.5t-99.5 101t-146.5 36.5
q-84 0 -145.5 -37t-95.5 -102t-34 -149t33.5 -148.5t95 -102t144.5 -37.5z" />
    <glyph glyph-name="ordfeminine" unicode="&#xaa;" horiz-adv-x="438" 
d="M370 372l-16 23l65 -21v-53l-132 -5l-13 68l7 -2q-28 -34 -63.5 -52t-74.5 -18q-50 0 -81 31.5t-31 84.5q0 41 18 65t53 35t85 11h84l-7 -7v48q0 32 -17 46t-50 14q-16 0 -34.5 -2.5t-39.5 -8.5l10 12l-11 -58h-65l-7 105q51 14 95.5 21t79.5 7q72 0 108.5 -29t36.5 -89
v-226zM138 440q0 -25 12.5 -39.5t33.5 -14.5q19 0 41.5 9.5t42.5 26.5l-4 -13v88l7 -8h-66q-12 0 -24 -2t-22 -6.5t-15.5 -14.5t-5.5 -26zM34 151v96h385v-96h-385z" />
    <glyph glyph-name="guillemotleft" unicode="&#xab;" horiz-adv-x="536" 
d="M209 46l-163 189v69l164 189l66 -50l-133 -200v54l132 -198zM428 46l-163 189v69l164 189l66 -50l-133 -200v54l132 -198z" />
    <glyph glyph-name="logicalnot" unicode="&#xac;" horiz-adv-x="593" 
d="M416 113v204l16 -17h-388v100h486v-287h-114z" />
    <glyph glyph-name="uni00AD" unicode="&#xad;" horiz-adv-x="433" 
d="M373 346v-106h-314v106h314z" />
    <glyph glyph-name="registered" unicode="&#xae;" horiz-adv-x="712" 
d="M212 302v37l44 15l-11 -16v241l15 -17l-48 13v38l116 3h40q58 0 88.5 -22.5t30.5 -64.5q0 -34 -25 -57t-79 -30l5 11q29 -1 44 -11.5t26 -32.5l35 -70l-24 14l43 -14v-37h-82l-40 91q-7 18 -15.5 25.5t-18.5 9.5t-24 2h-25l12 12v-104l-10 16l50 -15v-37h-147zM319 466
l-12 12h34q33 0 50 11.5t17 34.5q0 19 -13.5 29.5t-41.5 10.5h-46l12 13v-111zM347 158q-86 1 -152 38t-103.5 102t-37.5 151q0 88 39.5 156t109 107.5t156.5 39.5t154.5 -37.5t106.5 -102.5t39 -151q0 -64 -24 -119.5t-66.5 -96.5t-99 -64t-122.5 -23zM349 218
q69 0 123.5 31t86 86t31.5 125t-30 121.5t-82.5 80.5t-119.5 29q-68 0 -121.5 -30.5t-83.5 -85t-30 -125.5q0 -69 28.5 -121.5t79.5 -81.5t118 -29z" />
    <glyph glyph-name="macron" unicode="&#xaf;" horiz-adv-x="428" 
d="M364 758v-97h-300v97h300z" />
    <glyph glyph-name="degree" unicode="&#xb0;" horiz-adv-x="441" 
d="M202 421q-73 0 -119 42.5t-46 117.5q0 48 21 84t58.5 56t86.5 20q73 0 119 -42.5t46 -114.5q0 -75 -46 -119t-120 -44zM202 498q35 0 53.5 21.5t18.5 63.5q1 41 -19 61.5t-53 20.5q-32 0 -51.5 -20.5t-20.5 -61.5q1 -42 19.5 -63.5t52.5 -21.5z" />
    <glyph glyph-name="plusminus" unicode="&#xb1;" horiz-adv-x="580" 
d="M260 473l-23 -23v197h106v-197l-23 23h200v-100h-200l23 23v-196h-106v196l23 -23h-200l-1 100h201zM520 135v-100h-460v100h460z" />
    <glyph glyph-name="uni00B2" unicode="&#xb2;" horiz-adv-x="368" 
d="M27 345v82q62 46 103.5 85.5t63 73t21.5 60.5q0 28 -14.5 39.5t-39.5 11.5q-32 0 -60 -12l13 20l-9 -70h-71l-8 126q40 11 79 16.5t75 5.5q66 0 110.5 -27t44.5 -90q0 -36 -17.5 -69.5t-44.5 -63.5t-59.5 -57t-62.5 -51l-2 10h191v-90h-313z" />
    <glyph glyph-name="uni00B3" unicode="&#xb3;" horiz-adv-x="373" 
d="M165 336q-38 0 -76.5 8.5t-73.5 24.5l34 73q26 -10 53 -16.5t51 -6.5q31 0 52.5 13t21.5 43q0 24 -16 37.5t-54 13.5h-60v73h53q38 0 55 13.5t17 39.5q0 29 -18 41t-46 12q-15 0 -31.5 -3t-33.5 -8l18 16l-8 -61h-71l-5 108q39 13 78.5 19.5t76.5 6.5q44 0 79.5 -11
t56.5 -35.5t21 -64.5q0 -49 -30.5 -74.5t-77.5 -31.5l-6 5q62 -4 91 -30.5t29 -72.5q0 -45 -24.5 -74.5t-65.5 -43.5t-90 -14z" />
    <glyph glyph-name="acute" unicode="&#xb4;" horiz-adv-x="348" 
d="M107 606l-49 68l208 162l71 -96z" />
    <glyph glyph-name="uni00B5" unicode="&#xb5;" horiz-adv-x="658" 
d="M138 111l32 -52q9 -31 21.5 -71.5t22 -94t9.5 -123.5h-140v686l13 -21l-80 24v72l207 6v-357q0 -44 20 -65t54 -21q28 0 61 15.5t65 46.5l-9 -23v325l13 -23l-80 24v72l207 6v-463l-17 24l83 -26v-71l-175 -8l-19 98l14 -7q-44 -47 -91 -71.5t-88 -24.5q-46 0 -79 29.5
t-44 93.5z" />
    <glyph glyph-name="paragraph" unicode="&#xb6;" horiz-adv-x="644" 
d="M140 -170v72l92 27l-19 -29v425l23 -21q-61 0 -107.5 24t-73 69t-26.5 107q0 60 26.5 105t73.5 70t108 25h366v-72l-93 -31l20 30v-801h-117v804l22 -33h-127l22 33v-804h-190z" />
    <glyph glyph-name="periodcentered" unicode="&#xb7;" horiz-adv-x="233" 
d="M37 325q0 35 23.5 56.5t55.5 21.5q37 0 58.5 -21.5t21.5 -56.5t-24 -56.5t-56 -21.5q-36 0 -57.5 21.5t-21.5 56.5z" />
    <glyph glyph-name="cedilla" unicode="&#xb8;" horiz-adv-x="322" 
d="M144 -254q-27 0 -55.5 6t-53.5 19l26 67q19 -7 41.5 -12t40.5 -5q21 0 34.5 8t13.5 23q0 13 -14 22t-37.5 13.5t-51.5 5.5l6 107h83v-49q58 -6 86 -31.5t28 -62.5t-20.5 -61.5t-54 -37t-72.5 -12.5z" />
    <glyph glyph-name="uni00B9" unicode="&#xb9;" horiz-adv-x="294" 
d="M223 403l-17 24l83 -24v-58h-255v58l96 20l-17 -20v276l30 1l-109 -60l-32 68l133 87h88v-372z" />
    <glyph glyph-name="ordmasculine" unicode="&#xba;" horiz-adv-x="472" 
d="M226 312q-88 0 -138.5 52t-50.5 142q0 65 24.5 112t70.5 72.5t111 25.5q90 0 141 -51.5t51 -140.5q0 -64 -25 -112t-71.5 -74t-112.5 -26zM54 151v96h365v-96h-365zM234 391q28 0 47 15t28 43.5t9 69.5q0 58 -20 87.5t-61 29.5q-42 0 -62.5 -31.5t-20.5 -91.5
q0 -61 20 -91.5t60 -30.5z" />
    <glyph glyph-name="guillemotright" unicode="&#xbb;" horiz-adv-x="536" 
d="M327 493l163 -189v-69l-164 -189l-66 50l133 200v-54l-132 198zM108 493l163 -189v-69l-165 -189l-66 50l134 200v-54l-132 198z" />
    <glyph glyph-name="onequarter" unicode="&#xbc;" horiz-adv-x="897" 
d="M234 334l-17 24l83 -24v-58h-255v58l96 20l-17 -20v276l30 1l-109 -60l-32 68l133 87h88v-372zM170 -9l417 723h111l-417 -723h-111zM702 110l13 -22h-203l-14 80l174 268l143 -9v-277l-26 17h82v-79h-82l26 22v-110h-113v110zM718 167l-16 -17v222l16 -1l-149 -234
l-14 30h163z" />
    <glyph glyph-name="onehalf" unicode="&#xbd;" horiz-adv-x="921" 
d="M244 334l-17 24l83 -24v-58h-255v58l96 20l-17 -20v276l30 1l-109 -60l-32 68l133 87h88v-372zM179 -9l417 723h111l-417 -723h-111zM570 0v82q62 46 103.5 85.5t63 73t21.5 60.5q0 28 -14.5 39.5t-39.5 11.5q-32 0 -60 -12l13 20l-9 -70h-71l-8 126q40 11 79 16.5
t75 5.5q66 0 110.5 -27t44.5 -90q0 -36 -17.5 -69.5t-44.5 -63.5t-59.5 -57t-62.5 -51l-2 10h191v-90h-313z" />
    <glyph glyph-name="threequarters" unicode="&#xbe;" horiz-adv-x="932" 
d="M165 267q-38 0 -76.5 8.5t-73.5 24.5l34 73q26 -10 53 -16.5t51 -6.5q31 0 52.5 13t21.5 43q0 24 -16 37.5t-54 13.5h-60v73h53q38 0 55 13.5t17 39.5q0 29 -18 41t-46 12q-15 0 -31.5 -3t-33.5 -8l18 16l-8 -61h-71l-5 108q39 13 78.5 19.5t76.5 6.5q44 0 79.5 -11
t56.5 -35.5t21 -64.5q0 -49 -30.5 -74.5t-77.5 -31.5l-6 5q62 -4 91 -30.5t29 -72.5q0 -45 -24.5 -74.5t-65.5 -43.5t-90 -14zM206 -9l417 723h111l-417 -723h-111zM737 110l13 -22h-203l-14 80l174 268l143 -9v-277l-26 17h82v-79h-82l26 22v-110h-113v110zM753 167
l-16 -17v222l16 -1l-149 -234l-14 30h163z" />
    <glyph glyph-name="questiondown" unicode="&#xbf;" horiz-adv-x="438" 
d="M313 290q4 -16 6 -32t2 -29q0 -39 -16.5 -65.5t-41 -46t-49.5 -38t-41.5 -39.5t-16.5 -50q0 -35 25.5 -51.5t64.5 -16.5q28 0 63 8t69 19l30 -91q-103 -42 -202 -42q-54 0 -98.5 15t-70.5 48t-26 86q0 49 20 82t49 58t58 46.5t49 46t20 58.5q0 5 -0.5 13t-1.5 15z
M327 469q0 -36 -23.5 -57.5t-57.5 -21.5q-35 0 -56.5 21.5t-21.5 55.5q0 36 24 57.5t58 21.5t55.5 -21t21.5 -56z" />
    <glyph glyph-name="Agrave" unicode="&#xc0;" horiz-adv-x="713" 
d="M661 67l-37 33l86 -28v-72h-287v72l87 25l-14 -20l-40 130l22 -18h-264l17 17l-43 -127l-4 15l80 -22v-72h-261v72l83 26l-32 -28l236 632l147 4zM250 269l-10 19h215l-14 -22l-104 361h33zM470 753l-246 98l55 106l229 -128z" />
    <glyph glyph-name="Aacute" unicode="&#xc1;" horiz-adv-x="713" 
d="M661 67l-37 33l86 -28v-72h-287v72l87 25l-14 -20l-40 130l22 -18h-264l17 17l-43 -127l-4 15l80 -22v-72h-261v72l83 26l-32 -28l236 632l147 4zM250 269l-10 19h215l-14 -22l-104 361h33zM267 753l-40 76l230 128l54 -106z" />
    <glyph glyph-name="Acircumflex" unicode="&#xc2;" horiz-adv-x="713" 
d="M661 67l-37 33l86 -28v-72h-287v72l87 25l-14 -20l-40 130l22 -18h-264l17 17l-43 -127l-4 15l80 -22v-72h-261v72l83 26l-32 -28l236 632l147 4zM250 269l-10 19h215l-14 -22l-104 361h33zM219 749l-46 55l145 130l80 7l155 -137l-47 -55l-195 119l97 -1z" />
    <glyph glyph-name="Atilde" unicode="&#xc3;" horiz-adv-x="713" 
d="M661 67l-37 33l86 -28v-72h-287v72l87 25l-14 -20l-40 130l22 -18h-264l17 17l-43 -127l-4 15l80 -22v-72h-261v72l83 26l-32 -28l236 632l147 4zM250 269l-10 19h215l-14 -22l-104 361h33zM233 776l-58 26q19 61 45.5 87.5t62.5 26.5q27 0 53 -10.5t50.5 -21.5t43.5 -11
q18 0 32 11t29 35l59 -26q-20 -61 -48.5 -88t-66.5 -27q-25 0 -51 11t-50 21.5t-44 10.5q-16 0 -29 -11t-28 -34z" />
    <glyph glyph-name="Adieresis" unicode="&#xc4;" horiz-adv-x="713" 
d="M661 67l-37 33l86 -28v-72h-287v72l87 25l-14 -20l-40 130l22 -18h-264l17 17l-43 -127l-4 15l80 -22v-72h-261v72l83 26l-32 -28l236 632l147 4zM250 269l-10 19h215l-14 -22l-104 361h33zM472 762q-33 0 -51 19.5t-18 54.5q-1 35 19.5 55t49.5 20q33 0 52 -20t19 -55
t-20.5 -54.5t-50.5 -19.5zM252 762q-32 0 -50 19.5t-19 54.5t19.5 55t49.5 20q33 0 52 -20t19 -55t-21 -54.5t-50 -19.5z" />
    <glyph glyph-name="Aring" unicode="&#xc5;" horiz-adv-x="713" 
d="M661 67l-37 33l86 -28v-72h-287v72l87 25l-14 -20l-40 130l22 -18h-264l17 17l-43 -127l-4 15l80 -22v-72h-261v72l83 26l-32 -28l236 632l147 4zM250 269l-10 19h215l-14 -22l-104 361h33zM361 731q-42 0 -71.5 16t-45.5 43.5t-16 61.5q0 35 16 62.5t46.5 44t74.5 16.5
q42 0 71.5 -16t45 -43.5t15.5 -61.5q0 -33 -16 -61.5t-46 -45t-74 -16.5zM362 796q26 0 38.5 16t12.5 42q0 25 -12.5 40.5t-37.5 15.5t-38 -16t-13 -42q0 -25 12 -40.5t38 -15.5z" />
    <glyph glyph-name="AE" unicode="&#xc6;" horiz-adv-x="942" 
d="M1 0v72l86 26l-38 -29l263 553l15 -22l-98 27v72l226 5h424v-180h-85l-21 103l26 -26h-230l22 22v-233l-22 23h232v-100h-232l22 26v-259l-22 23h242l-26 -25l22 110h85l-1 -188h-510v72l85 28l-18 -24v149l22 -23h-244l31 23l-74 -157l-8 30l88 -26v-72h-262zM281 283
l-16 19h205l-22 -19v333l22 -15h-63l28 14z" />
    <glyph glyph-name="Ccedilla" unicode="&#xc7;" horiz-adv-x="632" 
d="M341 -12q-82 0 -150 40.5t-109 121t-41 198.5q0 116 40 198t113 126t171 44q52 0 107 -13t118 -39l-9 -180h-85l-24 117l24 -23q-35 14 -67 21t-59 7q-57 0 -96 -28.5t-59 -82.5t-20 -129q0 -88 23.5 -146.5t65 -87t93.5 -28.5q39 0 82.5 16.5t87.5 50.5l53 -83
q-62 -50 -128.5 -75t-130.5 -25zM352 -254q-27 0 -55.5 6t-53.5 19l26 67q19 -7 41.5 -12t40.5 -5q21 0 34.5 8t13.5 23q0 13 -14 22t-37.5 13.5t-51.5 5.5l6 107h83v-49q58 -6 86 -31.5t28 -62.5t-20.5 -61.5t-54 -37t-72.5 -12.5z" />
    <glyph glyph-name="Egrave" unicode="&#xc8;" horiz-adv-x="609" 
d="M474 188h85l-2 -188h-521v72l93 27l-19 -29v560l18 -28l-92 25v72l214 5h296v-180h-85l-20 97l27 -20h-237l22 22v-237l-22 22h237v-99h-237l22 25v-253l-22 22h249l-27 -22zM419 753l-246 98l55 106l229 -128z" />
    <glyph glyph-name="Eacute" unicode="&#xc9;" horiz-adv-x="609" 
d="M474 188h85l-2 -188h-521v72l93 27l-19 -29v560l18 -28l-92 25v72l214 5h296v-180h-85l-20 97l27 -20h-237l22 22v-237l-22 22h237v-99h-237l22 25v-253l-22 22h249l-27 -22zM216 753l-40 76l230 128l54 -106z" />
    <glyph glyph-name="Ecircumflex" unicode="&#xca;" horiz-adv-x="609" 
d="M474 188h85l-2 -188h-521v72l93 27l-19 -29v560l18 -28l-92 25v72l214 5h296v-180h-85l-20 97l27 -20h-237l22 22v-237l-22 22h237v-99h-237l22 25v-253l-22 22h249l-27 -22zM168 749l-46 55l145 130l80 7l155 -137l-47 -55l-195 119l97 -1z" />
    <glyph glyph-name="Edieresis" unicode="&#xcb;" horiz-adv-x="609" 
d="M474 188h85l-2 -188h-521v72l93 27l-19 -29v560l18 -28l-92 25v72l214 5h296v-180h-85l-20 97l27 -20h-237l22 22v-237l-22 22h237v-99h-237l22 25v-253l-22 22h249l-27 -22zM421 762q-33 0 -51 19.5t-18 54.5q-1 35 19.5 55t49.5 20q33 0 52 -20t19 -55t-20.5 -54.5
t-50.5 -19.5zM201 762q-32 0 -50 19.5t-19 54.5t19.5 55t49.5 20q33 0 52 -20t19 -55t-21 -54.5t-50 -19.5z" />
    <glyph glyph-name="Igrave" unicode="&#xcc;" horiz-adv-x="362" 
d="M326 632l-88 -30l15 22v-547l-15 21l88 -26v-72h-290v72l87 25l-13 -20v547l18 -22l-92 25v72l290 5v-72zM288 753l-246 98l55 106l229 -128z" />
    <glyph glyph-name="Iacute" unicode="&#xcd;" horiz-adv-x="362" 
d="M326 632l-88 -30l15 22v-547l-15 21l88 -26v-72h-290v72l87 25l-13 -20v547l18 -22l-92 25v72l290 5v-72zM85 753l-40 76l230 128l54 -106z" />
    <glyph glyph-name="Icircumflex" unicode="&#xce;" horiz-adv-x="362" 
d="M326 632l-88 -30l15 22v-547l-15 21l88 -26v-72h-290v72l87 25l-13 -20v547l18 -22l-92 25v72l290 5v-72zM37 749l-46 55l145 130l80 7l155 -137l-47 -55l-195 119l97 -1z" />
    <glyph glyph-name="Idieresis" unicode="&#xcf;" horiz-adv-x="362" 
d="M326 632l-88 -30l15 22v-547l-15 21l88 -26v-72h-290v72l87 25l-13 -20v547l18 -22l-92 25v72l290 5v-72zM290 762q-33 0 -51 19.5t-18 54.5q-1 35 19.5 55t49.5 20q33 0 52 -20t19 -55t-20.5 -54.5t-50.5 -19.5zM70 762q-32 0 -50 19.5t-19 54.5t19.5 55t49.5 20
q33 0 52 -20t19 -55t-21 -54.5t-50 -19.5z" />
    <glyph glyph-name="Eth" unicode="&#xd0;" horiz-adv-x="712" 
d="M36 311v94h346v-94h-346zM351 704q73 0 132.5 -21t101.5 -64t64.5 -106.5t22.5 -148.5q0 -119 -42.5 -200t-119 -122.5t-180.5 -41.5h-294v72l93 27l-19 -29v560l21 -29l-95 26v72l227 5h88zM337 103q32 0 64 9.5t58.5 35.5t42.5 76t16 132q0 79 -15 127.5t-40 74
t-55.5 34.5t-60.5 9h-116l22 22v-542l-22 22h106z" />
    <glyph glyph-name="Ntilde" unicode="&#xd1;" horiz-adv-x="772" 
d="M483 699l265 5v-72l-94 -31l21 30v-631h-165l-302 553h20v-483l-21 30l95 -28v-72h-266v72l95 28l-21 -30v560l14 -26l-88 23v72l244 5l297 -542h-21v469l22 -29l-95 25v72zM268 776l-58 26q19 61 45.5 87.5t62.5 26.5q27 0 53 -10.5t50.5 -21.5t43.5 -11q18 0 32 11
t29 35l59 -26q-20 -61 -48.5 -88t-66.5 -27q-25 0 -51 11t-50 21.5t-44 10.5q-16 0 -29 -11t-28 -34z" />
    <glyph glyph-name="Ograve" unicode="&#xd2;" horiz-adv-x="732" 
d="M352 -12q-95 0 -164.5 40.5t-107.5 119.5t-38 195q0 93 24 163t68 116.5t104.5 70t134.5 23.5q73 0 131.5 -23t100 -67t64.5 -109.5t23 -151.5q0 -117 -42.5 -201.5t-118.5 -130t-179 -45.5zM363 98q50 0 89 24.5t62.5 82t23.5 154.5q0 90 -21.5 144.5t-59.5 78.5t-90 24
q-50 0 -89 -24t-60.5 -80t-21.5 -154q0 -90 20 -144.5t57.5 -80t89.5 -25.5zM476 753l-246 98l55 106l229 -128z" />
    <glyph glyph-name="Oacute" unicode="&#xd3;" horiz-adv-x="732" 
d="M352 -12q-95 0 -164.5 40.5t-107.5 119.5t-38 195q0 93 24 163t68 116.5t104.5 70t134.5 23.5q73 0 131.5 -23t100 -67t64.5 -109.5t23 -151.5q0 -117 -42.5 -201.5t-118.5 -130t-179 -45.5zM363 98q50 0 89 24.5t62.5 82t23.5 154.5q0 90 -21.5 144.5t-59.5 78.5t-90 24
q-50 0 -89 -24t-60.5 -80t-21.5 -154q0 -90 20 -144.5t57.5 -80t89.5 -25.5zM274 753l-40 76l230 128l54 -106z" />
    <glyph glyph-name="Ocircumflex" unicode="&#xd4;" horiz-adv-x="732" 
d="M352 -12q-95 0 -164.5 40.5t-107.5 119.5t-38 195q0 93 24 163t68 116.5t104.5 70t134.5 23.5q73 0 131.5 -23t100 -67t64.5 -109.5t23 -151.5q0 -117 -42.5 -201.5t-118.5 -130t-179 -45.5zM363 98q50 0 89 24.5t62.5 82t23.5 154.5q0 90 -21.5 144.5t-59.5 78.5t-90 24
q-50 0 -89 -24t-60.5 -80t-21.5 -154q0 -90 20 -144.5t57.5 -80t89.5 -25.5zM225 749l-46 55l145 130l80 7l155 -137l-47 -55l-195 119l97 -1z" />
    <glyph glyph-name="Otilde" unicode="&#xd5;" horiz-adv-x="732" 
d="M352 -12q-95 0 -164.5 40.5t-107.5 119.5t-38 195q0 93 24 163t68 116.5t104.5 70t134.5 23.5q73 0 131.5 -23t100 -67t64.5 -109.5t23 -151.5q0 -117 -42.5 -201.5t-118.5 -130t-179 -45.5zM363 98q50 0 89 24.5t62.5 82t23.5 154.5q0 90 -21.5 144.5t-59.5 78.5t-90 24
q-50 0 -89 -24t-60.5 -80t-21.5 -154q0 -90 20 -144.5t57.5 -80t89.5 -25.5zM240 776l-58 26q19 61 45.5 87.5t62.5 26.5q27 0 53 -10.5t50.5 -21.5t43.5 -11q18 0 32 11t29 35l59 -26q-20 -61 -48.5 -88t-66.5 -27q-25 0 -51 11t-50 21.5t-44 10.5q-16 0 -29 -11t-28 -34z
" />
    <glyph glyph-name="Odieresis" unicode="&#xd6;" horiz-adv-x="732" 
d="M352 -12q-95 0 -164.5 40.5t-107.5 119.5t-38 195q0 93 24 163t68 116.5t104.5 70t134.5 23.5q73 0 131.5 -23t100 -67t64.5 -109.5t23 -151.5q0 -117 -42.5 -201.5t-118.5 -130t-179 -45.5zM363 98q50 0 89 24.5t62.5 82t23.5 154.5q0 90 -21.5 144.5t-59.5 78.5t-90 24
q-50 0 -89 -24t-60.5 -80t-21.5 -154q0 -90 20 -144.5t57.5 -80t89.5 -25.5zM479 762q-33 0 -51 19.5t-18 54.5q-1 35 19.5 55t49.5 20q33 0 52 -20t19 -55t-20.5 -54.5t-50.5 -19.5zM259 762q-32 0 -50 19.5t-19 54.5t19.5 55t49.5 20q33 0 52 -20t19 -55t-21 -54.5
t-50 -19.5z" />
    <glyph glyph-name="multiply" unicode="&#xd7;" horiz-adv-x="499" 
d="M111 137l-74 74l155 155l1 -35l-157 157l75 76l157 -157l-34 1l154 155l74 -74l-155 -154l-1 34l157 -157l-75 -75l-157 157l34 -2z" />
    <glyph glyph-name="Oslash" unicode="&#xd8;" horiz-adv-x="735" 
d="M585 781l74 -44l-78 -124l-21 -26l-315 -500l-8 -19l-92 -147l-74 45l92 145l14 17l323 510l6 17zM354 -12q-95 0 -164.5 40.5t-107.5 119.5t-38 195q0 93 24 163t68 116.5t104.5 70t134.5 23.5q73 0 131.5 -23t100 -67t64.5 -109.5t23 -151.5q0 -117 -42.5 -201.5
t-118.5 -130t-179 -45.5zM365 98q50 0 89 24.5t62.5 82t23.5 154.5q0 90 -21.5 144.5t-59.5 78.5t-90 24q-50 0 -89 -24t-60.5 -80t-21.5 -154q0 -90 20 -144.5t57.5 -80t89.5 -25.5z" />
    <glyph glyph-name="Ugrave" unicode="&#xd9;" horiz-adv-x="742" 
d="M434 699l290 5v-72l-89 -30l16 36v-363q0 -51 -9.5 -94.5t-30.5 -79t-54 -61t-80.5 -39t-109.5 -13.5q-83 0 -135 20.5t-81 53t-41.5 70t-15 72t-2.5 58.5v375l16 -34l-90 24v72l290 5v-72l-87 -30l14 35v-375q0 -26 2.5 -50.5t9.5 -45t21.5 -36t39 -24t61.5 -8.5
q38 0 63 9t40.5 25.5t23 38.5t10 48.5t2.5 55.5v363l13 -33l-87 22v72zM480 753l-246 98l55 106l229 -128z" />
    <glyph glyph-name="Uacute" unicode="&#xda;" horiz-adv-x="742" 
d="M434 699l290 5v-72l-89 -30l16 36v-363q0 -51 -9.5 -94.5t-30.5 -79t-54 -61t-80.5 -39t-109.5 -13.5q-83 0 -135 20.5t-81 53t-41.5 70t-15 72t-2.5 58.5v375l16 -34l-90 24v72l290 5v-72l-87 -30l14 35v-375q0 -26 2.5 -50.5t9.5 -45t21.5 -36t39 -24t61.5 -8.5
q38 0 63 9t40.5 25.5t23 38.5t10 48.5t2.5 55.5v363l13 -33l-87 22v72zM277 753l-40 76l230 128l54 -106z" />
    <glyph glyph-name="Ucircumflex" unicode="&#xdb;" horiz-adv-x="742" 
d="M434 699l290 5v-72l-89 -30l16 36v-363q0 -51 -9.5 -94.5t-30.5 -79t-54 -61t-80.5 -39t-109.5 -13.5q-83 0 -135 20.5t-81 53t-41.5 70t-15 72t-2.5 58.5v375l16 -34l-90 24v72l290 5v-72l-87 -30l14 35v-375q0 -26 2.5 -50.5t9.5 -45t21.5 -36t39 -24t61.5 -8.5
q38 0 63 9t40.5 25.5t23 38.5t10 48.5t2.5 55.5v363l13 -33l-87 22v72zM229 749l-46 55l145 130l80 7l155 -137l-47 -55l-195 119l97 -1z" />
    <glyph glyph-name="Udieresis" unicode="&#xdc;" horiz-adv-x="742" 
d="M434 699l290 5v-72l-89 -30l16 36v-363q0 -51 -9.5 -94.5t-30.5 -79t-54 -61t-80.5 -39t-109.5 -13.5q-83 0 -135 20.5t-81 53t-41.5 70t-15 72t-2.5 58.5v375l16 -34l-90 24v72l290 5v-72l-87 -30l14 35v-375q0 -26 2.5 -50.5t9.5 -45t21.5 -36t39 -24t61.5 -8.5
q38 0 63 9t40.5 25.5t23 38.5t10 48.5t2.5 55.5v363l13 -33l-87 22v72zM482 762q-33 0 -51 19.5t-18 54.5q-1 35 19.5 55t49.5 20q33 0 52 -20t19 -55t-20.5 -54.5t-50.5 -19.5zM262 762q-32 0 -50 19.5t-19 54.5t19.5 55t49.5 20q33 0 52 -20t19 -55t-21 -54.5t-50 -19.5z
" />
    <glyph glyph-name="Yacute" unicode="&#xdd;" horiz-adv-x="648" 
d="M173 0v72l96 28l-19 -30v207l12 -49l-207 397l26 -22l-79 24v72l279 5v-72l-89 -24l11 25l144 -305h-27l146 299l11 -25l-92 25v72l260 5v-72l-80 -24l28 21l-211 -401l11 49v-207l-20 30l96 -28v-72h-296zM232 753l-40 76l230 128l54 -106z" />
    <glyph glyph-name="Thorn" unicode="&#xde;" horiz-adv-x="599" 
d="M36 0v72l92 26l-18 -28v560l18 -28l-92 25v72l290 5v-72l-89 -32l16 28v-96l-22 26h130q104 0 159 -45.5t55 -142.5q0 -109 -68 -162.5t-185 -53.5h-91l22 25v-107l-19 27l111 -27v-72h-309zM253 231l-22 22h63q39 0 69.5 9.5t49 33.5t18.5 65q0 38 -15.5 59t-42 29.5
t-60.5 8.5h-82l22 23v-250z" />
    <glyph glyph-name="germandbls" unicode="&#xdf;" horiz-adv-x="697" 
d="M453 415q0 -23 17 -38.5t43.5 -29t57 -27.5t57 -34t43.5 -49.5t17 -73.5q0 -60 -29 -99t-77.5 -57.5t-109.5 -18.5q-38 0 -77.5 7t-80.5 19l7 146h85l12 -91l-16 26q17 -8 36.5 -12.5t36.5 -4.5q22 0 40 6.5t28.5 22t10.5 37.5q0 26 -16.5 44t-43 33t-56.5 30t-57 34
t-43.5 46t-16.5 65q0 36 13.5 59t33.5 39.5t39.5 31.5t33 32.5t13.5 44.5q0 26 -13.5 44.5t-36.5 29t-53 10.5q-49 0 -81 -25.5t-32 -80.5v-581h-207v72l85 24l-18 -22v373l18 -11h-88v75l86 22l-16 -20v55q0 61 20.5 102.5t56 67t82 37t97.5 11.5q68 0 121 -19t84 -56.5
t31 -92.5q0 -38 -14 -63t-34.5 -42t-41 -31t-34 -29.5t-13.5 -37.5z" />
    <glyph glyph-name="agrave" unicode="&#xe0;" horiz-adv-x="561" 
d="M482 71l-19 28l86 -27v-71l-175 -9l-19 96l10 -3q-40 -49 -87 -73t-97 -24q-64 0 -106 41t-42 118q0 57 24.5 90.5t71.5 48.5t114 15h109l-10 -11v66q0 47 -22.5 67t-65.5 20q-21 0 -45 -4t-52 -12l14 15l-13 -81h-87l-8 146q68 20 124.5 29.5t103.5 9.5q93 0 142 -40
t49 -124v-311zM174 161q0 -37 17.5 -54.5t44.5 -17.5q25 0 55 15.5t57 42.5l-6 -24v114l10 -10h-86q-52 0 -72 -16t-20 -50zM213 839l208 -161l-53 -72l-228 135z" />
    <glyph glyph-name="aacute" unicode="&#xe1;" horiz-adv-x="561" 
d="M482 71l-19 28l86 -27v-71l-175 -9l-19 96l10 -3q-40 -49 -87 -73t-97 -24q-64 0 -106 41t-42 118q0 57 24.5 90.5t71.5 48.5t114 15h109l-10 -11v66q0 47 -22.5 67t-65.5 20q-21 0 -45 -4t-52 -12l14 15l-13 -81h-87l-8 146q68 20 124.5 29.5t103.5 9.5q93 0 142 -40
t49 -124v-311zM174 161q0 -37 17.5 -54.5t44.5 -17.5q25 0 55 15.5t57 42.5l-6 -24v114l10 -10h-86q-52 0 -72 -16t-20 -50zM209 606l-49 68l208 162l71 -96z" />
    <glyph glyph-name="acircumflex" unicode="&#xe2;" horiz-adv-x="561" 
d="M482 71l-19 28l86 -27v-71l-175 -9l-19 96l10 -3q-40 -49 -87 -73t-97 -24q-64 0 -106 41t-42 118q0 57 24.5 90.5t71.5 48.5t114 15h109l-10 -11v66q0 47 -22.5 67t-65.5 20q-21 0 -45 -4t-52 -12l14 15l-13 -81h-87l-8 146q68 20 124.5 29.5t103.5 9.5q93 0 142 -40
t49 -124v-311zM174 161q0 -37 17.5 -54.5t44.5 -17.5q25 0 55 15.5t57 42.5l-6 -24v114l10 -10h-86q-52 0 -72 -16t-20 -50zM136 620l-46 51l143 143l80 7l154 -150l-48 -51l-193 131l97 -1z" />
    <glyph glyph-name="atilde" unicode="&#xe3;" horiz-adv-x="561" 
d="M482 71l-19 28l86 -27v-71l-175 -9l-19 96l10 -3q-40 -49 -87 -73t-97 -24q-64 0 -106 41t-42 118q0 57 24.5 90.5t71.5 48.5t114 15h109l-10 -11v66q0 47 -22.5 67t-65.5 20q-21 0 -45 -4t-52 -12l14 15l-13 -81h-87l-8 146q68 20 124.5 29.5t103.5 9.5q93 0 142 -40
t49 -124v-311zM174 161q0 -37 17.5 -54.5t44.5 -17.5q25 0 55 15.5t57 42.5l-6 -24v114l10 -10h-86q-52 0 -72 -16t-20 -50zM351 641q-28 0 -51 12t-44.5 24t-44.5 12q-19 0 -34.5 -11.5t-30.5 -35.5l-59 26q20 61 49.5 92t66.5 31q29 0 52.5 -12t45 -24t43.5 -12
q20 0 35 11.5t30 35.5l60 -24q-20 -62 -49.5 -93.5t-68.5 -31.5z" />
    <glyph glyph-name="adieresis" unicode="&#xe4;" horiz-adv-x="561" 
d="M482 71l-19 28l86 -27v-71l-175 -9l-19 96l10 -3q-40 -49 -87 -73t-97 -24q-64 0 -106 41t-42 118q0 57 24.5 90.5t71.5 48.5t114 15h109l-10 -11v66q0 47 -22.5 67t-65.5 20q-21 0 -45 -4t-52 -12l14 15l-13 -81h-87l-8 146q68 20 124.5 29.5t103.5 9.5q93 0 142 -40
t49 -124v-311zM174 161q0 -37 17.5 -54.5t44.5 -17.5q25 0 55 15.5t57 42.5l-6 -24v114l10 -10h-86q-52 0 -72 -16t-20 -50zM387 624q-33 0 -51 19.5t-18 54.5q-1 35 19.5 55t49.5 20q33 0 52 -20t19 -55t-20.5 -54.5t-50.5 -19.5zM167 624q-32 0 -50 19.5t-19 54.5t19.5 55
t49.5 20q33 0 52 -20t19 -55t-21 -54.5t-50 -19.5z" />
    <glyph glyph-name="aring" unicode="&#xe5;" horiz-adv-x="561" 
d="M482 71l-19 28l86 -27v-71l-175 -9l-19 96l10 -3q-40 -49 -87 -73t-97 -24q-64 0 -106 41t-42 118q0 57 24.5 90.5t71.5 48.5t114 15h109l-10 -11v66q0 47 -22.5 67t-65.5 20q-21 0 -45 -4t-52 -12l14 15l-13 -81h-87l-8 146q68 20 124.5 29.5t103.5 9.5q93 0 142 -40
t49 -124v-311zM174 161q0 -37 17.5 -54.5t44.5 -17.5q25 0 55 15.5t57 42.5l-6 -24v114l10 -10h-86q-52 0 -72 -16t-20 -50zM276 605q-42 0 -71.5 16t-45.5 43.5t-16 61.5q0 35 16 62.5t46.5 44t74.5 16.5q42 0 71.5 -16t45 -43.5t15.5 -61.5q0 -33 -16 -61.5t-46 -45
t-74 -16.5zM277 670q26 0 38.5 16t12.5 42q0 25 -12.5 40.5t-37.5 15.5t-38 -16t-13 -42q0 -25 12 -40.5t38 -15.5z" />
    <glyph glyph-name="ae" unicode="&#xe6;" horiz-adv-x="856" 
d="M70 365l-8 142q65 20 120 29.5t98 9.5q62 0 100 -20.5t50 -60.5l8 -21l-12 11q30 44 77 67.5t102 23.5q103 0 160.5 -63t57.5 -177q0 -23 -2 -43t-5 -34h-340l9 23l1 -14q3 -68 38 -107t92 -39q69 0 154 51l47 -76q-56 -38 -115.5 -58.5t-118.5 -20.5q-69 0 -121 31.5
t-78 88.5l35 -1q-43 -61 -102 -90.5t-115 -29.5q-46 0 -84 18.5t-61.5 54t-23.5 86.5q0 82 50 122.5t155 40.5h116l-10 -16v63q0 46 -21.5 67t-67.5 21q-20 0 -44.5 -4t-54.5 -13l12 15l-13 -77h-85zM352 132q-4 25 -6 53t-2 61l10 -17h-86q-52 0 -73 -13t-21 -52
q0 -37 21 -57t52 -20q27 0 56 14.5t56 42.5zM484 291l-11 18h215l-10 -12q1 79 -20.5 114t-66.5 35q-51 0 -78.5 -39t-28.5 -116z" />
    <glyph glyph-name="ccedilla" unicode="&#xe7;" horiz-adv-x="516" 
d="M273 -12q-69 0 -124.5 32.5t-87.5 93.5t-32 148q0 79 23 133t62 87.5t87 48.5t99 15q48 0 97 -12t80 -27l-4 -147h-90l-15 82l11 -8q-15 6 -36.5 9t-39.5 3q-43 0 -71.5 -21.5t-42.5 -61t-14 -93.5q0 -58 16 -98t45.5 -60.5t68.5 -20.5q31 0 68 13t77 39l47 -71
q-56 -43 -112 -63.5t-112 -20.5zM281 -254q-27 0 -55.5 6t-53.5 19l26 67q19 -7 41.5 -12t40.5 -5q21 0 34.5 8t13.5 23q0 13 -14 22t-37.5 13.5t-51.5 5.5l6 107h83v-49q58 -6 86 -31.5t28 -62.5t-20.5 -61.5t-54 -37t-72.5 -12.5z" />
    <glyph glyph-name="egrave" unicode="&#xe8;" horiz-adv-x="550" 
d="M275 -12q-73 0 -128 30.5t-85.5 91t-30.5 147.5q0 90 32.5 154.5t91.5 99.5t139 35q78 0 127 -31t72 -84.5t23 -120.5q0 -17 -1.5 -34t-4.5 -36h-366v83h246l-18 -13q1 40 -7.5 70.5t-28 47.5t-53.5 17q-39 0 -63 -22.5t-34.5 -60.5t-10.5 -85q0 -53 13 -95t42.5 -66
t77.5 -24q34 0 73.5 12.5t82.5 37.5l47 -75q-58 -40 -118.5 -59.5t-117.5 -19.5zM219 839l208 -161l-53 -72l-228 135z" />
    <glyph glyph-name="eacute" unicode="&#xe9;" horiz-adv-x="550" 
d="M275 -12q-73 0 -128 30.5t-85.5 91t-30.5 147.5q0 90 32.5 154.5t91.5 99.5t139 35q78 0 127 -31t72 -84.5t23 -120.5q0 -17 -1.5 -34t-4.5 -36h-366v83h246l-18 -13q1 40 -7.5 70.5t-28 47.5t-53.5 17q-39 0 -63 -22.5t-34.5 -60.5t-10.5 -85q0 -53 13 -95t42.5 -66
t77.5 -24q34 0 73.5 12.5t82.5 37.5l47 -75q-58 -40 -118.5 -59.5t-117.5 -19.5zM215 606l-49 68l208 162l71 -96z" />
    <glyph glyph-name="ecircumflex" unicode="&#xea;" horiz-adv-x="550" 
d="M275 -12q-73 0 -128 30.5t-85.5 91t-30.5 147.5q0 90 32.5 154.5t91.5 99.5t139 35q78 0 127 -31t72 -84.5t23 -120.5q0 -17 -1.5 -34t-4.5 -36h-366v83h246l-18 -13q1 40 -7.5 70.5t-28 47.5t-53.5 17q-39 0 -63 -22.5t-34.5 -60.5t-10.5 -85q0 -53 13 -95t42.5 -66
t77.5 -24q34 0 73.5 12.5t82.5 37.5l47 -75q-58 -40 -118.5 -59.5t-117.5 -19.5zM142 620l-46 51l143 143l80 7l154 -150l-48 -51l-193 131l97 -1z" />
    <glyph glyph-name="edieresis" unicode="&#xeb;" horiz-adv-x="550" 
d="M275 -12q-73 0 -128 30.5t-85.5 91t-30.5 147.5q0 90 32.5 154.5t91.5 99.5t139 35q78 0 127 -31t72 -84.5t23 -120.5q0 -17 -1.5 -34t-4.5 -36h-366v83h246l-18 -13q1 40 -7.5 70.5t-28 47.5t-53.5 17q-39 0 -63 -22.5t-34.5 -60.5t-10.5 -85q0 -53 13 -95t42.5 -66
t77.5 -24q34 0 73.5 12.5t82.5 37.5l47 -75q-58 -40 -118.5 -59.5t-117.5 -19.5zM393 624q-33 0 -51 19.5t-18 54.5q-1 35 19.5 55t49.5 20q33 0 52 -20t19 -55t-20.5 -54.5t-50.5 -19.5zM173 624q-32 0 -50 19.5t-19 54.5t19.5 55t49.5 20q33 0 52 -20t19 -55t-21 -54.5
t-50 -19.5z" />
    <glyph glyph-name="igrave" unicode="&#xec;" horiz-adv-x="318" 
d="M236 82l-10 12l77 -22v-72h-274v72l77 22l-10 -12v365l9 -9l-76 21v72l207 7v-456zM90 839l208 -161l-53 -72l-228 135z" />
    <glyph glyph-name="iacute" unicode="&#xed;" horiz-adv-x="318" 
d="M236 82l-10 12l77 -22v-72h-274v72l77 22l-10 -12v365l9 -9l-76 21v72l207 7v-456zM94 606l-49 68l208 162l71 -96z" />
    <glyph glyph-name="icircumflex" unicode="&#xee;" horiz-adv-x="318" 
d="M44 620l-49 51l122 143l80 7l132 -150l-50 -51l-169 131l97 -1zM236 82l-10 12l77 -22v-72h-274v72l77 22l-10 -12v365l9 -9l-76 21v72l207 7v-456z" />
    <glyph glyph-name="idieresis" unicode="&#xef;" horiz-adv-x="318" 
d="M253 624q-30 0 -48 19.5t-18 54.5q-1 35 19 55t47 20q30 0 48.5 -20t18.5 -55t-20 -54.5t-47 -19.5zM51 624q-30 0 -47.5 19.5t-18.5 54.5q0 35 19.5 55t46.5 20q31 0 49.5 -20t18.5 -55t-20.5 -54.5t-47.5 -19.5zM236 82l-10 12l77 -22v-72h-274v72l77 22l-10 -12v365
l9 -9l-76 21v72l207 7v-456z" />
    <glyph glyph-name="eth" unicode="&#xf0;" horiz-adv-x="582" 
d="M271 -12q-81 0 -135 32t-81.5 88.5t-27.5 130.5q0 82 31 140.5t82.5 88.5t114.5 30q54 0 98 -23.5t70 -69.5l-13 6q-12 90 -51.5 150.5t-101 92t-143.5 32.5l11 100q109 0 188.5 -39.5t130 -107t75 -151t24.5 -171.5q0 -72 -16 -132t-49 -104t-84.5 -68.5t-122.5 -24.5z
M281 88q35 0 61 18t40.5 54.5t14.5 93.5q0 80 -29 115t-80 35q-34 0 -60 -16t-40.5 -51.5t-14.5 -93.5q0 -82 29.5 -118.5t78.5 -36.5zM213 550l-44 57l263 182l44 -58z" />
    <glyph glyph-name="ntilde" unicode="&#xf1;" horiz-adv-x="644" 
d="M29 0v72l84 24l-17 -20v381l17 -23l-84 25v72l176 8l18 -96l-18 7q48 49 102 72.5t103 23.5q68 0 113 -42.5t44 -128.5v-299l-13 20l80 -24v-72h-267v72l76 22l-16 -21v272q0 49 -21.5 72t-56.5 23q-27 0 -59 -15t-63 -45l9 21v-328l-13 21l73 -22v-72h-267zM404 641
q-28 0 -51 12t-44.5 24t-44.5 12q-19 0 -34.5 -11.5t-30.5 -35.5l-59 26q20 61 49.5 92t66.5 31q29 0 52.5 -12t45 -24t43.5 -12q20 0 35 11.5t30 35.5l60 -24q-20 -62 -49.5 -93.5t-68.5 -31.5z" />
    <glyph glyph-name="ograve" unicode="&#xf2;" horiz-adv-x="577" 
d="M296 546q118 0 184 -70t66 -199q0 -90 -32 -154.5t-92 -99.5t-144 -35q-118 0 -182.5 70t-64.5 199q0 90 31.5 154.5t90.5 99.5t143 35zM289 446q-57 0 -85 -44.5t-28 -137.5t27 -134.5t82 -41.5q40 0 65 20t38 61t13 101q0 91 -28 133.5t-84 42.5zM223 839l208 -161
l-53 -72l-228 135z" />
    <glyph glyph-name="oacute" unicode="&#xf3;" horiz-adv-x="577" 
d="M296 546q118 0 184 -70t66 -199q0 -90 -32 -154.5t-92 -99.5t-144 -35q-118 0 -182.5 70t-64.5 199q0 90 31.5 154.5t90.5 99.5t143 35zM289 446q-57 0 -85 -44.5t-28 -137.5t27 -134.5t82 -41.5q40 0 65 20t38 61t13 101q0 91 -28 133.5t-84 42.5zM219 606l-49 68
l208 162l71 -96z" />
    <glyph glyph-name="ocircumflex" unicode="&#xf4;" horiz-adv-x="577" 
d="M296 546q118 0 184 -70t66 -199q0 -90 -32 -154.5t-92 -99.5t-144 -35q-118 0 -182.5 70t-64.5 199q0 90 31.5 154.5t90.5 99.5t143 35zM289 446q-57 0 -85 -44.5t-28 -137.5t27 -134.5t82 -41.5q40 0 65 20t38 61t13 101q0 91 -28 133.5t-84 42.5zM147 620l-46 51
l143 143l80 7l154 -150l-48 -51l-193 131l97 -1z" />
    <glyph glyph-name="otilde" unicode="&#xf5;" horiz-adv-x="577" 
d="M296 546q118 0 184 -70t66 -199q0 -90 -32 -154.5t-92 -99.5t-144 -35q-118 0 -182.5 70t-64.5 199q0 90 31.5 154.5t90.5 99.5t143 35zM289 446q-57 0 -85 -44.5t-28 -137.5t27 -134.5t82 -41.5q40 0 65 20t38 61t13 101q0 91 -28 133.5t-84 42.5zM361 641q-28 0 -51 12
t-44.5 24t-44.5 12q-19 0 -34.5 -11.5t-30.5 -35.5l-59 26q20 61 49.5 92t66.5 31q29 0 52.5 -12t45 -24t43.5 -12q20 0 35 11.5t30 35.5l60 -24q-20 -62 -49.5 -93.5t-68.5 -31.5z" />
    <glyph glyph-name="odieresis" unicode="&#xf6;" horiz-adv-x="577" 
d="M296 546q118 0 184 -70t66 -199q0 -90 -32 -154.5t-92 -99.5t-144 -35q-118 0 -182.5 70t-64.5 199q0 90 31.5 154.5t90.5 99.5t143 35zM289 446q-57 0 -85 -44.5t-28 -137.5t27 -134.5t82 -41.5q40 0 65 20t38 61t13 101q0 91 -28 133.5t-84 42.5zM397 624
q-33 0 -51 19.5t-18 54.5q-1 35 19.5 55t49.5 20q33 0 52 -20t19 -55t-20.5 -54.5t-50.5 -19.5zM177 624q-32 0 -50 19.5t-19 54.5t19.5 55t49.5 20q33 0 52 -20t19 -55t-21 -54.5t-50 -19.5z" />
    <glyph glyph-name="divide" unicode="&#xf7;" horiz-adv-x="533" 
d="M497 400v-100h-461v100h461zM187 162q0 35 23.5 56.5t55.5 21.5q37 0 58.5 -21.5t21.5 -56.5t-24 -56.5t-56 -21.5q-36 0 -57.5 21.5t-21.5 56.5zM187 539q0 35 23.5 56.5t55.5 21.5q37 0 58.5 -21.5t21.5 -56.5t-24 -56.5t-56 -21.5q-36 0 -57.5 21.5t-21.5 56.5z" />
    <glyph glyph-name="oslash" unicode="&#xf8;" horiz-adv-x="581" 
d="M473 632l70 -40l-84 -134l-22 -19l-233 -373l-7 -27l-84 -135l-71 41l86 137l22 20l237 379l5 23zM299 546q119 0 185 -70t66 -199q0 -90 -32.5 -154.5t-92.5 -99.5t-144 -35q-118 0 -182.5 70t-64.5 199q0 90 31.5 154.5t90.5 99.5t143 35zM292 446q-57 0 -84.5 -44.5
t-27.5 -137.5t26.5 -134.5t81.5 -41.5q40 0 65.5 20t38 61t12.5 101q0 91 -28 133.5t-84 42.5z" />
    <glyph glyph-name="ugrave" unicode="&#xf9;" horiz-adv-x="631" 
d="M233 -12q-67 0 -112 43.5t-45 131.5v292l13 -20l-79 24v72l206 7v-352q0 -47 21 -69.5t56 -22.5q27 0 59.5 14.5t64.5 45.5l-10 -25v329l13 -23l-79 24v72l206 7v-464l-17 24l84 -26v-71l-176 -8l-19 98l20 -7q-50 -48 -103.5 -72t-102.5 -24zM241 839l208 -161l-53 -72
l-228 135z" />
    <glyph glyph-name="uacute" unicode="&#xfa;" horiz-adv-x="631" 
d="M233 -12q-67 0 -112 43.5t-45 131.5v292l13 -20l-79 24v72l206 7v-352q0 -47 21 -69.5t56 -22.5q27 0 59.5 14.5t64.5 45.5l-10 -25v329l13 -23l-79 24v72l206 7v-464l-17 24l84 -26v-71l-176 -8l-19 98l20 -7q-50 -48 -103.5 -72t-102.5 -24zM236 606l-49 68l208 162
l71 -96z" />
    <glyph glyph-name="ucircumflex" unicode="&#xfb;" horiz-adv-x="631" 
d="M233 -12q-67 0 -112 43.5t-45 131.5v292l13 -20l-79 24v72l206 7v-352q0 -47 21 -69.5t56 -22.5q27 0 59.5 14.5t64.5 45.5l-10 -25v329l13 -23l-79 24v72l206 7v-464l-17 24l84 -26v-71l-176 -8l-19 98l20 -7q-50 -48 -103.5 -72t-102.5 -24zM164 620l-46 51l143 143
l80 7l154 -150l-48 -51l-193 131l97 -1z" />
    <glyph glyph-name="udieresis" unicode="&#xfc;" horiz-adv-x="631" 
d="M233 -12q-67 0 -112 43.5t-45 131.5v292l13 -20l-79 24v72l206 7v-352q0 -47 21 -69.5t56 -22.5q27 0 59.5 14.5t64.5 45.5l-10 -25v329l13 -23l-79 24v72l206 7v-464l-17 24l84 -26v-71l-176 -8l-19 98l20 -7q-50 -48 -103.5 -72t-102.5 -24zM415 624q-33 0 -51 19.5
t-18 54.5q-1 35 19.5 55t49.5 20q33 0 52 -20t19 -55t-20.5 -54.5t-50.5 -19.5zM195 624q-32 0 -50 19.5t-19 54.5t19.5 55t49.5 20q33 0 52 -20t19 -55t-21 -54.5t-50 -19.5z" />
    <glyph glyph-name="yacute" unicode="&#xfd;" horiz-adv-x="556" 
d="M8 -235l13 99q16 -2 29.5 -3t25.5 -1q44 0 71.5 17.5t48 54t40.5 94.5l-5 -47l-192 477l13 -12l-58 14v72l249 8v-71l-70 -19l7 12l127 -374l-34 7l113 365l7 -14l-69 14v72l236 8v-71l-63 -20l19 12l-165 -457q-21 -58 -45 -103t-54.5 -76.5t-71 -48t-94.5 -16.5
q-35 0 -78 7zM209 606l-49 68l208 162l71 -96z" />
    <glyph glyph-name="thorn" unicode="&#xfe;" horiz-adv-x="592" 
d="M4 -230v72l84 27l-17 -24v849l19 -24l-86 28v72l207 8v-312l-31 -6q47 42 91.5 64t92.5 22q57 0 101.5 -30.5t70 -90t25.5 -145.5q0 -97 -33 -162t-92.5 -97.5t-138.5 -32.5q-24 0 -50 3.5t-54 9.5l18 10v-166l-14 21l92 -24v-72h-285zM279 87q71 0 103.5 48t32.5 131
q0 55 -13 94.5t-36.5 61t-56.5 21.5q-26 0 -55 -14t-60 -43l17 25v-328l-17 18q47 -14 85 -14z" />
    <glyph glyph-name="ydieresis" unicode="&#xff;" horiz-adv-x="556" 
d="M8 -235l13 99q16 -2 29.5 -3t25.5 -1q44 0 71.5 17.5t48 54t40.5 94.5l-5 -47l-192 477l13 -12l-58 14v72l249 8v-71l-70 -19l7 12l127 -374l-34 7l113 365l7 -14l-69 14v72l236 8v-71l-63 -20l19 12l-165 -457q-21 -58 -45 -103t-54.5 -76.5t-71 -48t-94.5 -16.5
q-35 0 -78 7zM388 624q-33 0 -51 19.5t-18 54.5q-1 35 19.5 55t49.5 20q33 0 52 -20t19 -55t-20.5 -54.5t-50.5 -19.5zM168 624q-32 0 -50 19.5t-19 54.5t19.5 55t49.5 20q33 0 52 -20t19 -55t-21 -54.5t-50 -19.5z" />
    <glyph glyph-name="Amacron" unicode="&#x100;" horiz-adv-x="713" 
d="M661 67l-37 33l86 -28v-72h-287v72l87 25l-14 -20l-40 130l22 -18h-264l17 17l-43 -127l-4 15l80 -22v-72h-261v72l83 26l-32 -28l236 632l147 4zM250 269l-10 19h215l-14 -22l-104 361h33zM513 883v-97h-300v97h300z" />
    <glyph glyph-name="amacron" unicode="&#x101;" horiz-adv-x="561" 
d="M482 71l-19 28l86 -27v-71l-175 -9l-19 96l10 -3q-40 -49 -87 -73t-97 -24q-64 0 -106 41t-42 118q0 57 24.5 90.5t71.5 48.5t114 15h109l-10 -11v66q0 47 -22.5 67t-65.5 20q-21 0 -45 -4t-52 -12l14 15l-13 -81h-87l-8 146q68 20 124.5 29.5t103.5 9.5q93 0 142 -40
t49 -124v-311zM174 161q0 -37 17.5 -54.5t44.5 -17.5q25 0 55 15.5t57 42.5l-6 -24v114l10 -10h-86q-52 0 -72 -16t-20 -50zM428 758v-97h-300v97h300z" />
    <glyph glyph-name="Abreve" unicode="&#x102;" horiz-adv-x="713" 
d="M661 67l-37 33l86 -28v-72h-287v72l87 25l-14 -20l-40 130l22 -18h-264l17 17l-43 -127l-4 15l80 -22v-72h-261v72l83 26l-32 -28l236 632l147 4zM250 269l-10 19h215l-14 -22l-104 361h33zM362 766q-40 0 -76.5 17.5t-60 52t-24.5 85.5l81 9q5 -38 31 -56.5t54 -18.5
q29 0 52.5 17t26.5 52l79 3q2 -52 -22 -88t-62 -54.5t-79 -18.5z" />
    <glyph glyph-name="abreve" unicode="&#x103;" horiz-adv-x="561" 
d="M482 71l-19 28l86 -27v-71l-175 -9l-19 96l10 -3q-40 -49 -87 -73t-97 -24q-64 0 -106 41t-42 118q0 57 24.5 90.5t71.5 48.5t114 15h109l-10 -11v66q0 47 -22.5 67t-65.5 20q-21 0 -45 -4t-52 -12l14 15l-13 -81h-87l-8 146q68 20 124.5 29.5t103.5 9.5q93 0 142 -40
t49 -124v-311zM174 161q0 -37 17.5 -54.5t44.5 -17.5q25 0 55 15.5t57 42.5l-6 -24v114l10 -10h-86q-52 0 -72 -16t-20 -50zM277 623q-46 0 -82 21t-57 57.5t-22 83.5l83 9q4 -34 26 -54.5t56 -20.5q33 0 53 18.5t23 50.5l80 4q2 -49 -18.5 -87.5t-57 -60t-84.5 -21.5z" />
    <glyph glyph-name="Aogonek" unicode="&#x104;" horiz-adv-x="713" 
d="M661 67l-37 33l86 -28v-72h-192l-62 207l22 -18h-264l17 17l-43 -127l-4 15l80 -22v-72h-261v72l83 26l-32 -28l236 632l147 4zM250 269l-10 19h215l-14 -22l-104 361h33zM489 -224q-62 0 -95 29.5t-33 70.5q0 32 21.5 69t67 68t117.5 44l23 -57q-61 -11 -94.5 -35.5
t-33.5 -51.5q0 -24 19.5 -35.5t50.5 -11.5q11 0 22 1.5t22 2.5l8 -77q-26 -9 -50 -13t-45 -4z" />
    <glyph glyph-name="aogonek" unicode="&#x105;" horiz-adv-x="561" 
d="M482 71l-19 28l86 -27v-71l-175 -9l-19 96l10 -3q-40 -49 -87 -73t-97 -24q-64 0 -106 41t-42 118q0 57 24.5 90.5t71.5 48.5t114 15h109l-10 -11v66q0 47 -22.5 67t-65.5 20q-21 0 -45 -4t-52 -12l14 15l-13 -81h-87l-8 146q68 20 124.5 29.5t103.5 9.5q93 0 142 -40
t49 -124v-311zM174 161q0 -37 17.5 -54.5t44.5 -17.5q25 0 55 15.5t57 42.5l-6 -24v114l10 -10h-86q-52 0 -72 -16t-20 -50zM392 -224q-56 0 -91.5 26.5t-35.5 73.5q0 32 20.5 66.5t61.5 63.5t104 46l13 -52q-46 -15 -72 -40.5t-26 -49.5q0 -21 19 -32.5t46 -11.5q9 0 18 1
t18 3l8 -80q-22 -7 -43 -10.5t-40 -3.5z" />
    <glyph glyph-name="Cacute" unicode="&#x106;" horiz-adv-x="632" 
d="M341 -12q-82 0 -150 40.5t-109 121t-41 198.5q0 116 40 198t113 126t171 44q52 0 107 -13t118 -39l-9 -180h-85l-24 117l24 -23q-35 14 -67 21t-59 7q-57 0 -96 -28.5t-59 -82.5t-20 -129q0 -88 23.5 -146.5t65 -87t93.5 -28.5q39 0 82.5 16.5t87.5 50.5l53 -83
q-62 -50 -128.5 -75t-130.5 -25zM252 753l-40 76l230 128l54 -106z" />
    <glyph glyph-name="cacute" unicode="&#x107;" horiz-adv-x="516" 
d="M273 -12q-69 0 -124.5 32.5t-87.5 93.5t-32 148q0 79 23 133t62 87.5t87 48.5t99 15q48 0 97 -12t80 -27l-4 -147h-90l-15 82l11 -8q-15 6 -36.5 9t-39.5 3q-43 0 -71.5 -21.5t-42.5 -61t-14 -93.5q0 -58 16 -98t45.5 -60.5t68.5 -20.5q31 0 68 13t77 39l47 -71
q-56 -43 -112 -63.5t-112 -20.5zM214 606l-49 68l208 162l71 -96z" />
    <glyph glyph-name="Ccircumflex" unicode="&#x108;" horiz-adv-x="632" 
d="M341 -12q-82 0 -150 40.5t-109 121t-41 198.5q0 116 40 198t113 126t171 44q52 0 107 -13t118 -39l-9 -180h-85l-24 117l24 -23q-35 14 -67 21t-59 7q-57 0 -96 -28.5t-59 -82.5t-20 -129q0 -88 23.5 -146.5t65 -87t93.5 -28.5q39 0 82.5 16.5t87.5 50.5l53 -83
q-62 -50 -128.5 -75t-130.5 -25zM204 749l-46 55l145 130l80 7l155 -137l-47 -55l-195 119l97 -1z" />
    <glyph glyph-name="ccircumflex" unicode="&#x109;" horiz-adv-x="516" 
d="M273 -12q-69 0 -124.5 32.5t-87.5 93.5t-32 148q0 79 23 133t62 87.5t87 48.5t99 15q48 0 97 -12t80 -27l-4 -147h-90l-15 82l11 -8q-15 6 -36.5 9t-39.5 3q-43 0 -71.5 -21.5t-42.5 -61t-14 -93.5q0 -58 16 -98t45.5 -60.5t68.5 -20.5q31 0 68 13t77 39l47 -71
q-56 -43 -112 -63.5t-112 -20.5zM141 620l-46 51l143 143l80 7l154 -150l-48 -51l-193 131l97 -1z" />
    <glyph glyph-name="Cdotaccent" unicode="&#x10a;" horiz-adv-x="632" 
d="M341 -12q-82 0 -150 40.5t-109 121t-41 198.5q0 116 40 198t113 126t171 44q52 0 107 -13t118 -39l-9 -180h-85l-24 117l24 -23q-35 14 -67 21t-59 7q-57 0 -96 -28.5t-59 -82.5t-20 -129q0 -88 23.5 -146.5t65 -87t93.5 -28.5q39 0 82.5 16.5t87.5 50.5l53 -83
q-62 -50 -128.5 -75t-130.5 -25zM348 762q-37 0 -59.5 21t-22.5 60q0 42 23.5 62.5t59.5 20.5q35 0 58 -20.5t23 -61.5t-23.5 -61.5t-58.5 -20.5z" />
    <glyph glyph-name="cdotaccent" unicode="&#x10b;" horiz-adv-x="516" 
d="M273 -12q-69 0 -124.5 32.5t-87.5 93.5t-32 148q0 79 23 133t62 87.5t87 48.5t99 15q48 0 97 -12t80 -27l-4 -147h-90l-15 82l11 -8q-15 6 -36.5 9t-39.5 3q-43 0 -71.5 -21.5t-42.5 -61t-14 -93.5q0 -58 16 -98t45.5 -60.5t68.5 -20.5q31 0 68 13t77 39l47 -71
q-56 -43 -112 -63.5t-112 -20.5zM282 616q-37 0 -59.5 21t-22.5 60q0 42 23.5 62.5t59.5 20.5q35 0 58 -20.5t23 -61.5t-23.5 -61.5t-58.5 -20.5z" />
    <glyph glyph-name="Ccaron" unicode="&#x10c;" horiz-adv-x="632" 
d="M341 -12q-82 0 -150 40.5t-109 121t-41 198.5q0 116 40 198t113 126t171 44q52 0 107 -13t118 -39l-9 -180h-85l-24 117l24 -23q-35 14 -67 21t-59 7q-57 0 -96 -28.5t-59 -82.5t-20 -129q0 -88 23.5 -146.5t65 -87t93.5 -28.5q39 0 82.5 16.5t87.5 50.5l53 -83
q-62 -50 -128.5 -75t-130.5 -25zM492 951l46 -55l-145 -131l-80 -7l-156 138l47 55l196 -120l-97 1z" />
    <glyph glyph-name="ccaron" unicode="&#x10d;" horiz-adv-x="516" 
d="M273 -12q-69 0 -124.5 32.5t-87.5 93.5t-32 148q0 79 23 133t62 87.5t87 48.5t99 15q48 0 97 -12t80 -27l-4 -147h-90l-15 82l11 -8q-15 6 -36.5 9t-39.5 3q-43 0 -71.5 -21.5t-42.5 -61t-14 -93.5q0 -58 16 -98t45.5 -60.5t68.5 -20.5q31 0 68 13t77 39l47 -71
q-56 -43 -112 -63.5t-112 -20.5zM423 821l46 -52l-142 -143l-80 -7l-152 150l47 52l192 -132l-97 2z" />
    <glyph glyph-name="Dcaron" unicode="&#x10e;" horiz-adv-x="712" 
d="M351 704q73 0 132.5 -21t101.5 -64t64.5 -106.5t22.5 -148.5q0 -119 -42.5 -200t-119 -122.5t-180.5 -41.5h-294v72l93 27l-19 -29v560l21 -29l-95 26v72l227 5h88zM337 103q32 0 64 9.5t58.5 35.5t42.5 76t16 132q0 79 -15 127.5t-40 74t-55.5 34.5t-60.5 9h-116l22 22
v-542l-22 22h106zM462 951l46 -55l-145 -131l-80 -7l-156 138l47 55l196 -120l-97 1z" />
    <glyph glyph-name="dcaron" unicode="&#x10f;" horiz-adv-x="604" 
d="M230 -12q-58 0 -102.5 30.5t-70 90.5t-25.5 146q0 148 75 219.5t211 71.5q22 0 44 -2t46 -7l-26 -16v165l10 -14l-82 27v71l212 8v-700l-17 20l84 -26v-71l-176 -8l-18 86l14 -5q-44 -43 -87.5 -64.5t-91.5 -21.5zM284 91q26 0 55 14.5t60 42.5l-17 -42v359l17 -32
q-47 13 -85 13q-71 0 -103.5 -47.5t-32.5 -130.5q0 -54 13 -94t36.5 -61.5t56.5 -21.5zM650 569l-82 11q9 51 13 102t1 106l118 -5q-5 -50 -18 -104t-32 -110z" />
    <glyph glyph-name="Dcroat" unicode="&#x110;" horiz-adv-x="712" 
d="M36 311v94h346v-94h-346zM351 704q73 0 132.5 -21t101.5 -64t64.5 -106.5t22.5 -148.5q0 -119 -42.5 -200t-119 -122.5t-180.5 -41.5h-294v72l93 27l-19 -29v560l21 -29l-95 26v72l227 5h88zM337 103q32 0 64 9.5t58.5 35.5t42.5 76t16 132q0 79 -15 127.5t-40 74
t-55.5 34.5t-60.5 9h-116l22 22v-542l-22 22h106z" />
    <glyph glyph-name="dcroat" unicode="&#x111;" horiz-adv-x="604" 
d="M196 654h390v-76h-390v76zM230 -12q-58 0 -102.5 30.5t-70 90t-25.5 145.5q0 145 74 213.5t209 68.5q22 0 45 -2.5t48 -7.5l-26 -15v181l10 -12l-82 22v67l212 8v-700l-17 20l84 -26v-71l-176 -8l-18 86l14 -5q-44 -42 -87.5 -63.5t-91.5 -21.5zM284 90q26 0 55 14.5
t60 42.5l-17 -42v350l17 -33q-49 15 -88 15q-67 0 -100 -42.5t-33 -127.5q0 -54 13 -94t36.5 -61.5t56.5 -21.5z" />
    <glyph glyph-name="Emacron" unicode="&#x112;" horiz-adv-x="609" 
d="M474 188h85l-2 -188h-521v72l93 27l-19 -29v560l18 -28l-92 25v72l214 5h296v-180h-85l-20 97l27 -20h-237l22 22v-237l-22 22h237v-99h-237l22 25v-253l-22 22h249l-27 -22zM462 883v-97h-300v97h300z" />
    <glyph glyph-name="emacron" unicode="&#x113;" horiz-adv-x="550" 
d="M275 -12q-73 0 -128 30.5t-85.5 91t-30.5 147.5q0 90 32.5 154.5t91.5 99.5t139 35q78 0 127 -31t72 -84.5t23 -120.5q0 -17 -1.5 -34t-4.5 -36h-366v83h246l-18 -13q1 40 -7.5 70.5t-28 47.5t-53.5 17q-39 0 -63 -22.5t-34.5 -60.5t-10.5 -85q0 -53 13 -95t42.5 -66
t77.5 -24q34 0 73.5 12.5t82.5 37.5l47 -75q-58 -40 -118.5 -59.5t-117.5 -19.5zM434 758v-97h-300v97h300z" />
    <glyph glyph-name="Ebreve" unicode="&#x114;" horiz-adv-x="609" 
d="M474 188h85l-2 -188h-521v72l93 27l-19 -29v560l18 -28l-92 25v72l214 5h296v-180h-85l-20 97l27 -20h-237l22 22v-237l-22 22h237v-99h-237l22 25v-253l-22 22h249l-27 -22zM311 766q-40 0 -76.5 17.5t-60 52t-24.5 85.5l81 9q5 -38 31 -56.5t54 -18.5q29 0 52.5 17
t26.5 52l79 3q2 -52 -22 -88t-62 -54.5t-79 -18.5z" />
    <glyph glyph-name="ebreve" unicode="&#x115;" horiz-adv-x="550" 
d="M275 -12q-73 0 -128 30.5t-85.5 91t-30.5 147.5q0 90 32.5 154.5t91.5 99.5t139 35q78 0 127 -31t72 -84.5t23 -120.5q0 -17 -1.5 -34t-4.5 -36h-366v83h246l-18 -13q1 40 -7.5 70.5t-28 47.5t-53.5 17q-39 0 -63 -22.5t-34.5 -60.5t-10.5 -85q0 -53 13 -95t42.5 -66
t77.5 -24q34 0 73.5 12.5t82.5 37.5l47 -75q-58 -40 -118.5 -59.5t-117.5 -19.5zM283 623q-46 0 -82 21t-57 57.5t-22 83.5l83 9q4 -34 26 -54.5t56 -20.5q33 0 53 18.5t23 50.5l80 4q2 -49 -18.5 -87.5t-57 -60t-84.5 -21.5z" />
    <glyph glyph-name="Edotaccent" unicode="&#x116;" horiz-adv-x="609" 
d="M474 188h85l-2 -188h-521v72l93 27l-19 -29v560l18 -28l-92 25v72l214 5h296v-180h-85l-20 97l27 -20h-237l22 22v-237l-22 22h237v-99h-237l22 25v-253l-22 22h249l-27 -22zM312 762q-37 0 -59.5 21t-22.5 60q0 42 23.5 62.5t59.5 20.5q35 0 58 -20.5t23 -61.5
t-23.5 -61.5t-58.5 -20.5z" />
    <glyph glyph-name="edotaccent" unicode="&#x117;" horiz-adv-x="550" 
d="M275 -12q-73 0 -128 30.5t-85.5 91t-30.5 147.5q0 90 32.5 154.5t91.5 99.5t139 35q78 0 127 -31t72 -84.5t23 -120.5q0 -17 -1.5 -34t-4.5 -36h-366v83h246l-18 -13q1 40 -7.5 70.5t-28 47.5t-53.5 17q-39 0 -63 -22.5t-34.5 -60.5t-10.5 -85q0 -53 13 -95t42.5 -66
t77.5 -24q34 0 73.5 12.5t82.5 37.5l47 -75q-58 -40 -118.5 -59.5t-117.5 -19.5zM283 616q-37 0 -59.5 21t-22.5 60q0 42 23.5 62.5t59.5 20.5q35 0 58 -20.5t23 -61.5t-23.5 -61.5t-58.5 -20.5z" />
    <glyph glyph-name="Eogonek" unicode="&#x118;" horiz-adv-x="609" 
d="M474 188h85l-2 -188h-521v72l93 27l-19 -29v560l18 -28l-92 25v72l214 5h296v-180h-85l-20 97l27 -20h-237l22 22v-237l-22 22h237v-99h-237l22 25v-253l-22 22h249l-27 -22zM456 -224q-62 0 -95 29.5t-33 70.5q0 32 21.5 69t67 68t117.5 44l23 -57q-61 -11 -94.5 -35.5
t-33.5 -51.5q0 -24 19.5 -35.5t50.5 -11.5q11 0 22 1.5t22 2.5l8 -77q-26 -9 -50 -13t-45 -4z" />
    <glyph glyph-name="eogonek" unicode="&#x119;" horiz-adv-x="550" 
d="M275 -12q-73 0 -128 30.5t-85.5 91t-30.5 147.5q0 90 32.5 154.5t91.5 99.5t139 35q78 0 127 -31t72 -84.5t23 -120.5q0 -17 -1.5 -34t-4.5 -36h-366v83h246l-18 -13q1 40 -7.5 70.5t-28 47.5t-53.5 17q-39 0 -63 -22.5t-34.5 -60.5t-10.5 -85q0 -53 13 -95t42.5 -66
t77.5 -24q34 0 73.5 12.5t82.5 37.5l47 -75q-58 -40 -118.5 -59.5t-117.5 -19.5zM292 -224q-56 0 -91.5 26.5t-35.5 73.5q0 32 20.5 66.5t61.5 63.5t104 46l13 -52q-46 -15 -72 -40.5t-26 -49.5q0 -21 19 -32.5t46 -11.5q9 0 18 1t18 3l8 -80q-22 -7 -43 -10.5t-40 -3.5z
" />
    <glyph glyph-name="Ecaron" unicode="&#x11a;" horiz-adv-x="609" 
d="M474 188h85l-2 -188h-521v72l93 27l-19 -29v560l18 -28l-92 25v72l214 5h296v-180h-85l-20 97l27 -20h-237l22 22v-237l-22 22h237v-99h-237l22 25v-253l-22 22h249l-27 -22zM456 951l46 -55l-145 -131l-80 -7l-156 138l47 55l196 -120l-97 1z" />
    <glyph glyph-name="ecaron" unicode="&#x11b;" horiz-adv-x="550" 
d="M275 -12q-73 0 -128 30.5t-85.5 91t-30.5 147.5q0 90 32.5 154.5t91.5 99.5t139 35q78 0 127 -31t72 -84.5t23 -120.5q0 -17 -1.5 -34t-4.5 -36h-366v83h246l-18 -13q1 40 -7.5 70.5t-28 47.5t-53.5 17q-39 0 -63 -22.5t-34.5 -60.5t-10.5 -85q0 -53 13 -95t42.5 -66
t77.5 -24q34 0 73.5 12.5t82.5 37.5l47 -75q-58 -40 -118.5 -59.5t-117.5 -19.5zM424 821l46 -52l-142 -143l-80 -7l-152 150l47 52l192 -132l-97 2z" />
    <glyph glyph-name="Gcircumflex" unicode="&#x11c;" horiz-adv-x="716" 
d="M369 -12q-98 0 -172 41t-114.5 121t-40.5 198q0 116 40.5 198.5t116.5 126t183 43.5q58 0 120.5 -13t126.5 -40l-10 -179h-85l-24 116l22 -20q-35 12 -71 19.5t-68 7.5q-62 0 -106 -29t-67.5 -86t-23.5 -142q0 -118 48.5 -185t141.5 -67q28 0 59 6.5t64 18.5l-17 -30v190
l23 -25l-96 19v74l278 5v-75l-86 -23l14 25v-239q-69 -28 -134 -42t-122 -14zM224 749l-46 55l145 130l80 7l155 -137l-47 -55l-195 119l97 -1z" />
    <glyph glyph-name="gcircumflex" unicode="&#x11d;" horiz-adv-x="574" 
d="M260 -242q-125 0 -186 33t-61 98q0 50 34.5 83.5t101.5 55.5l-2 -28q-38 3 -62 20t-24 45q0 9 3 19t11 25.5t22 38.5t35 58l2 -23q-50 23 -76 65t-26 100q0 93 63.5 145.5t176.5 52.5q81 0 138 -28l-32 6l167 6v-75l-79 -16l9 15q15 -18 23 -42t8 -55q0 -93 -65 -146.5
t-175 -53.5q-52 0 -100 14l23 14l-16 -107l-21 10h200q101 0 153 -39t52 -114q0 -86 -74.5 -131.5t-222.5 -45.5zM272 -144q80 0 115.5 17t35.5 50q0 32 -24 47t-69 15h-174l33 7q-54 -34 -54 -77q0 -29 33 -44t104 -15zM266 251q49 0 75 26t26 77t-24 74.5t-72 23.5
q-49 0 -74 -25t-25 -75q0 -49 24 -75t70 -26zM130 620l-46 51l143 143l80 7l154 -150l-48 -51l-193 131l97 -1z" />
    <glyph glyph-name="Gbreve" unicode="&#x11e;" horiz-adv-x="716" 
d="M369 -12q-98 0 -172 41t-114.5 121t-40.5 198q0 116 40.5 198.5t116.5 126t183 43.5q58 0 120.5 -13t126.5 -40l-10 -179h-85l-24 116l22 -20q-35 12 -71 19.5t-68 7.5q-62 0 -106 -29t-67.5 -86t-23.5 -142q0 -118 48.5 -185t141.5 -67q28 0 59 6.5t64 18.5l-17 -30v190
l23 -25l-96 19v74l278 5v-75l-86 -23l14 25v-239q-69 -28 -134 -42t-122 -14zM367 766q-40 0 -76.5 17.5t-60 52t-24.5 85.5l81 9q5 -38 31 -56.5t54 -18.5q29 0 52.5 17t26.5 52l79 3q2 -52 -22 -88t-62 -54.5t-79 -18.5z" />
    <glyph glyph-name="gbreve" unicode="&#x11f;" horiz-adv-x="574" 
d="M260 -242q-125 0 -186 33t-61 98q0 50 34.5 83.5t101.5 55.5l-2 -28q-38 3 -62 20t-24 45q0 9 3 19t11 25.5t22 38.5t35 58l2 -23q-50 23 -76 65t-26 100q0 93 63.5 145.5t176.5 52.5q81 0 138 -28l-32 6l167 6v-75l-79 -16l9 15q15 -18 23 -42t8 -55q0 -93 -65 -146.5
t-175 -53.5q-52 0 -100 14l23 14l-16 -107l-21 10h200q101 0 153 -39t52 -114q0 -86 -74.5 -131.5t-222.5 -45.5zM272 -144q80 0 115.5 17t35.5 50q0 32 -24 47t-69 15h-174l33 7q-54 -34 -54 -77q0 -29 33 -44t104 -15zM266 251q49 0 75 26t26 77t-24 74.5t-72 23.5
q-49 0 -74 -25t-25 -75q0 -49 24 -75t70 -26zM271 623q-46 0 -82 21t-57 57.5t-22 83.5l83 9q4 -34 26 -54.5t56 -20.5q33 0 53 18.5t23 50.5l80 4q2 -49 -18.5 -87.5t-57 -60t-84.5 -21.5z" />
    <glyph glyph-name="Gdotaccent" unicode="&#x120;" horiz-adv-x="716" 
d="M369 -12q-98 0 -172 41t-114.5 121t-40.5 198q0 116 40.5 198.5t116.5 126t183 43.5q58 0 120.5 -13t126.5 -40l-10 -179h-85l-24 116l22 -20q-35 12 -71 19.5t-68 7.5q-62 0 -106 -29t-67.5 -86t-23.5 -142q0 -118 48.5 -185t141.5 -67q28 0 59 6.5t64 18.5l-17 -30v190
l23 -25l-96 19v74l278 5v-75l-86 -23l14 25v-239q-69 -28 -134 -42t-122 -14zM367 762q-37 0 -59.5 21t-22.5 60q0 42 23.5 62.5t59.5 20.5q35 0 58 -20.5t23 -61.5t-23.5 -61.5t-58.5 -20.5z" />
    <glyph glyph-name="gdotaccent" unicode="&#x121;" horiz-adv-x="574" 
d="M260 -242q-125 0 -186 33t-61 98q0 50 34.5 83.5t101.5 55.5l-2 -28q-38 3 -62 20t-24 45q0 9 3 19t11 25.5t22 38.5t35 58l2 -23q-50 23 -76 65t-26 100q0 93 63.5 145.5t176.5 52.5q81 0 138 -28l-32 6l167 6v-75l-79 -16l9 15q15 -18 23 -42t8 -55q0 -93 -65 -146.5
t-175 -53.5q-52 0 -100 14l23 14l-16 -107l-21 10h200q101 0 153 -39t52 -114q0 -86 -74.5 -131.5t-222.5 -45.5zM272 -144q80 0 115.5 17t35.5 50q0 32 -24 47t-69 15h-174l33 7q-54 -34 -54 -77q0 -29 33 -44t104 -15zM266 251q49 0 75 26t26 77t-24 74.5t-72 23.5
q-49 0 -74 -25t-25 -75q0 -49 24 -75t70 -26zM270 616q-37 0 -59.5 21t-22.5 60q0 42 23.5 62.5t59.5 20.5q35 0 58 -20.5t23 -61.5t-23.5 -61.5t-58.5 -20.5z" />
    <glyph glyph-name="uni0122" unicode="&#x122;" horiz-adv-x="716" 
d="M369 -12q-98 0 -172 41t-114.5 121t-40.5 198q0 116 40.5 198.5t116.5 126t183 43.5q58 0 120.5 -13t126.5 -40l-10 -179h-85l-24 116l22 -20q-35 12 -71 19.5t-68 7.5q-62 0 -106 -29t-67.5 -86t-23.5 -142q0 -118 48.5 -185t141.5 -67q28 0 59 6.5t64 18.5l-17 -30v190
l23 -25l-96 19v74l278 5v-75l-86 -23l14 25v-239q-69 -28 -134 -42t-122 -14zM332 -321l-46 32q22 36 30 54.5t8 30.5t-6.5 22t-13.5 23t-7 33q0 34 22 51.5t49 17.5t49.5 -18.5t22.5 -54.5q0 -37 -24 -83t-84 -108z" />
    <glyph glyph-name="uni0123" unicode="&#x123;" horiz-adv-x="574" 
d="M260 -242q-125 0 -186 33t-61 98q0 50 34.5 83.5t101.5 55.5l-2 -28q-38 3 -62 20t-24 45q0 9 3 19t11 25.5t22 38.5t35 58l2 -23q-50 23 -76 65t-26 100q0 93 63.5 145.5t176.5 52.5q81 0 138 -28l-32 6l167 6v-75l-79 -16l9 15q15 -18 23 -42t8 -55q0 -93 -65 -146.5
t-175 -53.5q-52 0 -100 14l23 14l-16 -107l-21 10h200q101 0 153 -39t52 -114q0 -86 -74.5 -131.5t-222.5 -45.5zM272 -144q80 0 115.5 17t35.5 50q0 32 -24 47t-69 15h-174l33 7q-54 -34 -54 -77q0 -29 33 -44t104 -15zM266 251q49 0 75 26t26 77t-24 74.5t-72 23.5
q-49 0 -74 -25t-25 -75q0 -49 24 -75t70 -26zM307 879l46 -31q-21 -36 -29.5 -54.5t-8.5 -31.5q0 -11 6.5 -21.5t13.5 -23t7 -33.5q0 -34 -22 -51t-49 -17t-49.5 18t-22.5 55q0 36 24 82.5t84 107.5z" />
    <glyph glyph-name="Hcircumflex" unicode="&#x124;" horiz-adv-x="787" 
d="M36 0v72l93 27l-19 -29v560l23 -30l-97 27v72l290 5v-72l-95 -32l22 31v-243l-22 22h326l-22 -22v242l22 -29l-96 26v72l290 5v-72l-93 -31l20 30v-561l-20 29l93 -27v-72h-290v72l92 27l-18 -29v260l22 -23h-326l22 23v-260l-18 29l91 -27v-72h-290zM248 749l-46 55
l145 130l80 7l155 -137l-47 -55l-195 119l97 -1z" />
    <glyph glyph-name="hcircumflex" unicode="&#x125;" horiz-adv-x="630" 
d="M16 0v72l83 24l-17 -20v620l17 -22l-83 24v72l206 8v-335l-31 7q48 49 102 72.5t103 23.5q45 0 81 -19t56.5 -56.5t19.5 -94.5v-300l-13 20l80 -24v-72h-267v72l77 22l-17 -21v273q1 48 -21 71t-57 23q-27 0 -59 -15t-64 -45l10 21v-328l-13 21l73 -22v-72h-266zM-3 789
l-46 55l145 130l80 7l155 -137l-47 -55l-195 119l97 -1z" />
    <glyph glyph-name="Hbar" unicode="&#x126;" horiz-adv-x="797" 
d="M41 476v70h715v-70h-715zM41 0v72l93 27l-19 -29v560l23 -30l-97 27v72l290 5v-72l-95 -32l22 31v-256l-22 22h326l-22 -22v255l22 -29l-96 26v72l290 5v-72l-93 -31l20 30v-561l-20 29l93 -27v-72h-290v72l92 27l-18 -29v250l22 -23h-326l22 23v-250l-18 29l91 -27v-72
h-290z" />
    <glyph glyph-name="hbar" unicode="&#x127;" horiz-adv-x="629" 
d="M12 654h384v-76h-384v76zM18 0v72l84 24l-17 -20v627l17 -19l-84 21v65l207 8v-345l-27 7q49 49 102.5 72.5t101.5 23.5q44 0 79 -19t55 -56t20 -90v-295l-13 20l73 -24v-72h-260v72l76 22l-16 -21v271q1 44 -20 65t-54 21q-28 0 -61 -15t-65 -47l9 23v-318l-13 21
l73 -22v-72h-267z" />
    <glyph glyph-name="Itilde" unicode="&#x128;" horiz-adv-x="362" 
d="M326 632l-88 -30l15 22v-547l-15 21l88 -26v-72h-290v72l87 25l-13 -20v547l18 -22l-92 25v72l290 5v-72zM51 776l-58 26q19 61 45.5 87.5t62.5 26.5q27 0 53 -10.5t50.5 -21.5t43.5 -11q18 0 32 11t29 35l59 -26q-20 -61 -48.5 -88t-66.5 -27q-25 0 -51 11t-50 21.5
t-44 10.5q-16 0 -29 -11t-28 -34z" />
    <glyph glyph-name="itilde" unicode="&#x129;" horiz-adv-x="318" 
d="M236 82l-10 12l77 -22v-72h-274v72l77 22l-10 -12v365l9 -9l-76 21v72l207 7v-456zM215 641q-26 0 -45 12t-36.5 24t-38.5 12q-18 0 -31.5 -11.5t-28.5 -35.5l-58 26q18 61 47 92t64 31q26 0 45.5 -12t37.5 -24t37 -12q17 0 31.5 11.5t29.5 35.5l58 -24
q-18 -62 -47 -93.5t-65 -31.5z" />
    <glyph glyph-name="Imacron" unicode="&#x12a;" horiz-adv-x="362" 
d="M326 632l-88 -30l15 22v-547l-15 21l88 -26v-72h-290v72l87 25l-13 -20v547l18 -22l-92 25v72l290 5v-72zM331 883v-97h-300v97h300z" />
    <glyph glyph-name="imacron" unicode="&#x12b;" horiz-adv-x="318" 
d="M297 758v-97h-265v97h265zM236 82l-10 12l77 -22v-72h-274v72l77 22l-10 -12v365l9 -9l-76 21v72l207 7v-456z" />
    <glyph glyph-name="Ibreve" unicode="&#x12c;" horiz-adv-x="362" 
d="M326 632l-88 -30l15 22v-547l-15 21l88 -26v-72h-290v72l87 25l-13 -20v547l18 -22l-92 25v72l290 5v-72zM180 766q-40 0 -76.5 17.5t-60 52t-24.5 85.5l81 9q5 -38 31 -56.5t54 -18.5q29 0 52.5 17t26.5 52l79 3q2 -52 -22 -88t-62 -54.5t-79 -18.5z" />
    <glyph glyph-name="ibreve" unicode="&#x12d;" horiz-adv-x="318" 
d="M236 82l-10 12l77 -22v-72h-274v72l77 22l-10 -12v365l9 -9l-76 21v72l207 7v-456zM163 623q-46 0 -82 21t-57 57.5t-22 83.5l83 9q4 -34 26 -54.5t56 -20.5q33 0 53 18.5t23 50.5l80 4q2 -49 -18.5 -87.5t-57 -60t-84.5 -21.5z" />
    <glyph glyph-name="Iogonek" unicode="&#x12e;" horiz-adv-x="362" 
d="M326 632l-88 -30l15 22v-547l-15 21l88 -26v-72h-290v72l87 25l-13 -20v547l18 -22l-92 25v72l290 5v-72zM205 -224q-56 0 -91.5 26.5t-35.5 73.5q0 32 20.5 66.5t61.5 63.5t104 46l13 -52q-46 -15 -72 -40.5t-26 -49.5q0 -21 19 -32.5t46 -11.5q9 0 18 1t18 3l8 -80
q-22 -7 -43 -10.5t-40 -3.5z" />
    <glyph glyph-name="iogonek" unicode="&#x12f;" horiz-adv-x="318" 
d="M236 82l-10 12l77 -22v-72h-274v72l77 22l-10 -12v365l9 -9l-76 21v72l207 7v-456zM162 616q-37 0 -59.5 21t-22.5 60q0 42 23.5 62.5t59.5 20.5q35 0 58 -20.5t23 -61.5t-23.5 -61.5t-58.5 -20.5zM188 -224q-56 0 -91.5 26.5t-35.5 73.5q0 32 20.5 66.5t61.5 63.5
t104 46l13 -52q-46 -15 -72 -40.5t-26 -49.5q0 -21 19 -32.5t46 -11.5q9 0 18 1t18 3l8 -80q-22 -7 -43 -10.5t-40 -3.5z" />
    <glyph glyph-name="Idotaccent" unicode="&#x130;" horiz-adv-x="362" 
d="M326 632l-88 -30l15 22v-547l-15 21l88 -26v-72h-290v72l87 25l-13 -20v547l18 -22l-92 25v72l290 5v-72zM180 762q-37 0 -59.5 21t-22.5 60q0 42 23.5 62.5t59.5 20.5q35 0 58 -20.5t23 -61.5t-23.5 -61.5t-58.5 -20.5z" />
    <glyph glyph-name="dotlessi" unicode="&#x131;" horiz-adv-x="318" 
d="M236 82l-10 12l77 -22v-72h-274v72l77 22l-10 -12v365l9 -9l-76 21v72l207 7v-456z" />
    <glyph glyph-name="IJ" unicode="&#x132;" horiz-adv-x="721" 
d="M326 632l-88 -30l15 22v-547l-15 21l88 -26v-72h-290v72l87 25l-13 -20v547l18 -22l-92 25v72l290 5v-72zM399 699l296 5v-70l-89 -33l16 29v-524q0 -63 -10 -113t-34 -85.5t-64.5 -54t-102.5 -18.5q-18 0 -36.5 1.5t-39.5 4.5l12 102q10 -1 18 -2t16 -1q54 0 76 33.5
t22 103.5v553l17 -27l-97 24v72z" />
    <glyph glyph-name="ij" unicode="&#x133;" horiz-adv-x="616" 
d="M236 82l-10 12l77 -22v-72h-274v72l77 22l-10 -12v365l9 -9l-76 21v72l207 7v-456zM162 616q-37 0 -59.5 21t-22.5 60q0 42 23.5 62.5t59.5 20.5q35 0 58 -20.5t23 -61.5t-23.5 -61.5t-58.5 -20.5zM332 -242q-16 0 -32 2t-34 5l10 99q11 -1 21 -2t19 -1q49 0 70.5 22
t21.5 76v493l13 -16l-80 23v72l207 7v-537q0 -66 -15.5 -112t-43.5 -75t-68 -42.5t-89 -13.5zM469 616q-37 0 -59.5 21t-22.5 60q0 42 23.5 62.5t59.5 20.5q35 0 58 -20.5t23 -61.5t-23.5 -61.5t-58.5 -20.5z" />
    <glyph glyph-name="Jcircumflex" unicode="&#x134;" horiz-adv-x="342" 
d="M20 699l296 5v-70l-89 -33l16 29v-524q0 -63 -10 -113t-34 -85.5t-64.5 -54t-102.5 -18.5q-18 0 -36.5 1.5t-39.5 4.5l12 102q10 -1 18 -2t16 -1q54 0 76 33.5t22 103.5v553l17 -27l-97 24v72zM23 749l-46 55l145 130l80 7l155 -137l-47 -55l-195 119l97 -1z" />
    <glyph glyph-name="jcircumflex" unicode="&#x135;" horiz-adv-x="291" 
d="M28 620l-49 51l122 143l80 7l132 -150l-50 -51l-169 131l97 -1zM7 -242q-16 0 -32 2t-34 5l10 99q11 -1 21 -2t19 -1q49 0 70.5 22t21.5 76v493l13 -16l-80 23v72l207 7v-537q0 -66 -15.5 -112t-43.5 -75t-68 -42.5t-89 -13.5z" />
    <glyph glyph-name="uni0136" unicode="&#x136;" horiz-adv-x="718" 
d="M658 68l-39 30l86 -26v-72h-284v72l76 26l-3 -24l-171 262l38 -28h-130l22 29v-267l-18 31l88 -29v-72h-287v72l89 26l-15 -28v561l15 -27l-89 23v72l287 5v-70l-88 -30l18 30v-246l-22 23h140l-37 -22l142 240l11 -21l-84 19v72l270 5v-72l-89 -28l31 24l-173 -280v37z
M316 -321l-46 32q22 36 30 54.5t8 30.5t-6.5 22t-13.5 23t-7 33q0 34 22 51.5t49 17.5t49.5 -18.5t22.5 -54.5q0 -37 -24 -83t-84 -108z" />
    <glyph glyph-name="uni0137" unicode="&#x137;" horiz-adv-x="594" 
d="M16 0v72l83 24l-17 -26v622l11 -16l-77 22v72l206 8v-460l-23 21h128l-34 -16l90 137l10 -15l-70 14v71l244 8v-71l-84 -19l38 21l-123 -182l2 36l132 -249l-21 18l76 -21v-71h-162l-127 255l20 -9h-119l23 9v-185l-14 27l78 -25v-72h-270zM271 -321l-46 32
q22 36 30 54.5t8 30.5t-6.5 22t-13.5 23t-7 33q0 34 22 51.5t49 17.5t49.5 -18.5t22.5 -54.5q0 -37 -24 -83t-84 -108z" />
    <glyph glyph-name="kgreenlandic" unicode="&#x138;" horiz-adv-x="609" 
d="M29 0v72l84 24l-17 -26v382l10 -16l-77 22v72l207 8v-218l-23 17h128l-33 -14l89 137l7 -15l-68 14v71l244 8v-71l-86 -19l40 21l-122 -184l3 34l131 -245l-21 18l77 -21v-71h-163l-129 257l22 -13h-119l23 13v-187l-14 27l82 -25v-72h-275z" />
    <glyph glyph-name="Lacute" unicode="&#x139;" horiz-adv-x="558" 
d="M452 212h85v-212h-501v72l90 26l-16 -28v560l16 -27l-90 24v72l297 5v-72l-95 -29l15 27v-549l-22 22h218l-20 -23zM86 753l-40 76l230 128l54 -106z" />
    <glyph glyph-name="lacute" unicode="&#x13a;" horiz-adv-x="305" 
d="M222 82l-10 12l77 -22v-72h-273v72l77 22l-11 -12v605l9 -10l-75 21v72l206 8v-696zM52 796l-40 76l230 128l54 -106z" />
    <glyph glyph-name="uni013B" unicode="&#x13b;" horiz-adv-x="558" 
d="M452 212h85v-212h-501v72l90 26l-16 -28v560l16 -27l-90 24v72l297 5v-72l-95 -29l15 27v-549l-22 22h218l-20 -23zM264 -321l-46 32q22 36 30 54.5t8 30.5t-6.5 22t-13.5 23t-7 33q0 34 22 51.5t49 17.5t49.5 -18.5t22.5 -54.5q0 -37 -24 -83t-84 -108z" />
    <glyph glyph-name="uni013C" unicode="&#x13c;" horiz-adv-x="305" 
d="M222 82l-10 12l77 -22v-72h-273v72l77 22l-11 -12v605l9 -10l-75 21v72l206 8v-696zM111 -321l-46 32q22 36 30 54.5t8 30.5t-6.5 22t-13.5 23t-7 33q0 34 22 51.5t49 17.5t49.5 -18.5t22.5 -54.5q0 -37 -24 -83t-84 -108z" />
    <glyph glyph-name="Lcaron" unicode="&#x13d;" horiz-adv-x="558" 
d="M452 212h85v-212h-501v72l90 26l-16 -28v560l16 -27l-90 24v72l297 5v-72l-95 -29l15 27v-549l-22 22h218l-20 -23zM476 499l-82 11q9 51 13 102t1 106l118 -5q-5 -50 -18 -104t-32 -110z" />
    <glyph glyph-name="lcaron" unicode="&#x13e;" horiz-adv-x="305" 
d="M222 82l-10 12l77 -22v-72h-273v72l77 22l-11 -12v605l9 -10l-75 21v72l206 8v-696zM350 569l-82 11q9 51 13 102t1 106l118 -5q-5 -50 -18 -104t-32 -110z" />
    <glyph glyph-name="Ldot" unicode="&#x13f;" horiz-adv-x="591" 
d="M452 212h85v-212h-501v72l90 26l-16 -28v560l16 -27l-90 24v72l297 5v-72l-95 -29l15 27v-549l-22 22h218l-20 -23zM379 401q0 35 23.5 56.5t55.5 21.5q37 0 58.5 -21.5t21.5 -56.5t-24 -56.5t-56 -21.5q-36 0 -57.5 21.5t-21.5 56.5z" />
    <glyph glyph-name="ldot" unicode="&#x140;" horiz-adv-x="451" 
d="M222 82l-10 12l77 -22v-72h-273v72l77 22l-11 -12v605l9 -10l-75 21v72l206 8v-696zM377 290q-37 0 -59.5 21t-22.5 60q0 42 23.5 62.5t59.5 20.5q35 0 58 -20.5t23 -61.5t-23.5 -61.5t-58.5 -20.5z" />
    <glyph glyph-name="Lslash" unicode="&#x141;" horiz-adv-x="581" 
d="M29 301l378 197l31 -73l-377 -197zM475 212h85v-212h-501v72l89 26l-16 -28v560l16 -27l-89 24v72l297 5v-72l-96 -29l15 27v-549l-22 22h219l-20 -23z" />
    <glyph glyph-name="lslash" unicode="&#x142;" horiz-adv-x="369" 
d="M48 289l-27 79l302 141l27 -79zM254 82l-10 12l77 -22v-72h-273v72l77 22l-11 -12v605l9 -10l-75 21v72l206 8v-696z" />
    <glyph glyph-name="Nacute" unicode="&#x143;" horiz-adv-x="772" 
d="M483 699l265 5v-72l-94 -31l21 30v-631h-165l-302 553h20v-483l-21 30l95 -28v-72h-266v72l95 28l-21 -30v560l14 -26l-88 23v72l244 5l297 -542h-21v469l22 -29l-95 25v72zM302 753l-40 76l230 128l54 -106z" />
    <glyph glyph-name="nacute" unicode="&#x144;" horiz-adv-x="644" 
d="M29 0v72l84 24l-17 -20v381l17 -23l-84 25v72l176 8l18 -96l-18 7q48 49 102 72.5t103 23.5q68 0 113 -42.5t44 -128.5v-299l-13 20l80 -24v-72h-267v72l76 22l-16 -21v272q0 49 -21.5 72t-56.5 23q-27 0 -59 -15t-63 -45l9 21v-328l-13 21l73 -22v-72h-267zM262 606
l-49 68l208 162l71 -96z" />
    <glyph glyph-name="uni0145" unicode="&#x145;" horiz-adv-x="772" 
d="M483 699l265 5v-72l-94 -31l21 30v-631h-165l-302 553h20v-483l-21 30l95 -28v-72h-266v72l95 28l-21 -30v560l14 -26l-88 23v72l244 5l297 -542h-21v469l22 -29l-95 25v72zM351 -321l-46 32q22 36 30 54.5t8 30.5t-6.5 22t-13.5 23t-7 33q0 34 22 51.5t49 17.5
t49.5 -18.5t22.5 -54.5q0 -37 -24 -83t-84 -108z" />
    <glyph glyph-name="uni0146" unicode="&#x146;" horiz-adv-x="644" 
d="M29 0v72l84 24l-17 -20v381l17 -23l-84 25v72l176 8l18 -96l-18 7q48 49 102 72.5t103 23.5q68 0 113 -42.5t44 -128.5v-299l-13 20l80 -24v-72h-267v72l76 22l-16 -21v272q0 49 -21.5 72t-56.5 23q-27 0 -59 -15t-63 -45l9 21v-328l-13 21l73 -22v-72h-267zM290 -321
l-46 32q22 36 30 54.5t8 30.5t-6.5 22t-13.5 23t-7 33q0 34 22 51.5t49 17.5t49.5 -18.5t22.5 -54.5q0 -37 -24 -83t-84 -108z" />
    <glyph glyph-name="Ncaron" unicode="&#x147;" horiz-adv-x="772" 
d="M483 699l265 5v-72l-94 -31l21 30v-631h-165l-302 553h20v-483l-21 30l95 -28v-72h-266v72l95 28l-21 -30v560l14 -26l-88 23v72l244 5l297 -542h-21v469l22 -29l-95 25v72zM542 951l46 -55l-145 -131l-80 -7l-156 138l47 55l196 -120l-97 1z" />
    <glyph glyph-name="ncaron" unicode="&#x148;" horiz-adv-x="644" 
d="M29 0v72l84 24l-17 -20v381l17 -23l-84 25v72l176 8l18 -96l-18 7q48 49 102 72.5t103 23.5q68 0 113 -42.5t44 -128.5v-299l-13 20l80 -24v-72h-267v72l76 22l-16 -21v272q0 49 -21.5 72t-56.5 23q-27 0 -59 -15t-63 -45l9 21v-328l-13 21l73 -22v-72h-267zM472 821
l46 -52l-142 -143l-80 -7l-152 150l47 52l192 -132l-97 2z" />
    <glyph glyph-name="napostrophe" unicode="&#x149;" horiz-adv-x="778" 
d="M41 721q0 33 20 49.5t44 16.5q26 0 47.5 -18t21.5 -56q0 -35 -24.5 -87.5t-85.5 -118.5l-42 27q28 48 36.5 72.5t8.5 35.5q0 13 -6 23.5t-13 23.5t-7 32zM164 0v72l83 24l-17 -20v381l17 -23l-83 25v72l175 8l18 -96l-18 7q49 49 103 72.5t103 23.5q67 0 112 -42.5
t44 -128.5v-299l-13 20l80 -24v-72h-267v72l77 22l-17 -21v272q0 49 -21 72t-56 23q-28 0 -60 -15t-63 -45l9 21v-328l-13 21l73 -22v-72h-266z" />
    <glyph glyph-name="Eng" unicode="&#x14a;" horiz-adv-x="787" 
d="M465 -242q-17 0 -34 1.5t-33 4.5l10 100q12 -1 22 -2t19 -1q49 0 70.5 20.5t21.5 68.5v75l8 -42l-333 550h17v-463l-22 30l107 -28v-72h-282v72l102 28l-22 -30v560l15 -26l-95 23v72l244 5l303 -522l-18 -1v450l21 -29l-106 25v72l281 5v-72l-100 -31l20 30v-663
q0 -77 -30.5 -123t-79.5 -66.5t-106 -20.5z" />
    <glyph glyph-name="eng" unicode="&#x14b;" horiz-adv-x="632" 
d="M352 -242q-17 0 -34.5 2t-35.5 5l10 99q13 -1 24.5 -2.5t21.5 -1.5q48 0 68.5 23t20.5 77v385q0 49 -21.5 72t-56.5 23q-27 0 -59 -15t-63 -45l9 21v-328l-13 21l73 -22v-72h-267v72l84 24l-17 -20v381l17 -23l-84 25v72l176 8l18 -96l-18 7q48 49 102 72.5t103 23.5
q68 0 112.5 -42.5t44.5 -128.5v-374q0 -66 -15 -112t-43.5 -75t-68 -42.5t-88.5 -13.5z" />
    <glyph glyph-name="Omacron" unicode="&#x14c;" horiz-adv-x="732" 
d="M352 -12q-95 0 -164.5 40.5t-107.5 119.5t-38 195q0 93 24 163t68 116.5t104.5 70t134.5 23.5q73 0 131.5 -23t100 -67t64.5 -109.5t23 -151.5q0 -117 -42.5 -201.5t-118.5 -130t-179 -45.5zM363 98q50 0 89 24.5t62.5 82t23.5 154.5q0 90 -21.5 144.5t-59.5 78.5t-90 24
q-50 0 -89 -24t-60.5 -80t-21.5 -154q0 -90 20 -144.5t57.5 -80t89.5 -25.5zM520 883v-97h-300v97h300z" />
    <glyph glyph-name="omacron" unicode="&#x14d;" horiz-adv-x="577" 
d="M296 546q118 0 184 -70t66 -199q0 -90 -32 -154.5t-92 -99.5t-144 -35q-118 0 -182.5 70t-64.5 199q0 90 31.5 154.5t90.5 99.5t143 35zM289 446q-57 0 -85 -44.5t-28 -137.5t27 -134.5t82 -41.5q40 0 65 20t38 61t13 101q0 91 -28 133.5t-84 42.5zM438 758v-97h-300v97
h300z" />
    <glyph glyph-name="Obreve" unicode="&#x14e;" horiz-adv-x="732" 
d="M352 -12q-95 0 -164.5 40.5t-107.5 119.5t-38 195q0 93 24 163t68 116.5t104.5 70t134.5 23.5q73 0 131.5 -23t100 -67t64.5 -109.5t23 -151.5q0 -117 -42.5 -201.5t-118.5 -130t-179 -45.5zM363 98q50 0 89 24.5t62.5 82t23.5 154.5q0 90 -21.5 144.5t-59.5 78.5t-90 24
q-50 0 -89 -24t-60.5 -80t-21.5 -154q0 -90 20 -144.5t57.5 -80t89.5 -25.5zM368 766q-40 0 -76.5 17.5t-60 52t-24.5 85.5l81 9q5 -38 31 -56.5t54 -18.5q29 0 52.5 17t26.5 52l79 3q2 -52 -22 -88t-62 -54.5t-79 -18.5z" />
    <glyph glyph-name="obreve" unicode="&#x14f;" horiz-adv-x="577" 
d="M296 546q118 0 184 -70t66 -199q0 -90 -32 -154.5t-92 -99.5t-144 -35q-118 0 -182.5 70t-64.5 199q0 90 31.5 154.5t90.5 99.5t143 35zM289 446q-57 0 -85 -44.5t-28 -137.5t27 -134.5t82 -41.5q40 0 65 20t38 61t13 101q0 91 -28 133.5t-84 42.5zM288 623q-46 0 -82 21
t-57 57.5t-22 83.5l83 9q4 -34 26 -54.5t56 -20.5q33 0 53 18.5t23 50.5l80 4q2 -49 -18.5 -87.5t-57 -60t-84.5 -21.5z" />
    <glyph glyph-name="Ohungarumlaut" unicode="&#x150;" horiz-adv-x="732" 
d="M352 -12q-95 0 -164.5 40.5t-107.5 119.5t-38 195q0 93 24 163t68 116.5t104.5 70t134.5 23.5q73 0 131.5 -23t100 -67t64.5 -109.5t23 -151.5q0 -117 -42.5 -201.5t-118.5 -130t-179 -45.5zM363 98q50 0 89 24.5t62.5 82t23.5 154.5q0 90 -21.5 144.5t-59.5 78.5t-90 24
q-50 0 -89 -24t-60.5 -80t-21.5 -154q0 -90 20 -144.5t57.5 -80t89.5 -25.5zM468 743l-72 36l86 197l95 -50zM303 743l-73 34l80 199l96 -47z" />
    <glyph glyph-name="ohungarumlaut" unicode="&#x151;" horiz-adv-x="577" 
d="M296 546q118 0 184 -70t66 -199q0 -90 -32 -154.5t-92 -99.5t-144 -35q-118 0 -182.5 70t-64.5 199q0 90 31.5 154.5t90.5 99.5t143 35zM289 446q-57 0 -85 -44.5t-28 -137.5t27 -134.5t82 -41.5q40 0 65 20t38 61t13 101q0 91 -28 133.5t-84 42.5zM393 606l-72 36
l86 197l95 -50zM228 606l-73 34l80 199l96 -47z" />
    <glyph glyph-name="OE" unicode="&#x152;" horiz-adv-x="938" 
d="M354 -5q-98 0 -168 38.5t-107 116t-37 194.5q0 125 41.5 205.5t119 120t183.5 39.5q16 0 44.5 -1t59.5 -1.5t57 -1.5t38 -1h291v-180h-85l-21 97l27 -20h-232l22 22v-233l-22 23h233v-100h-233l22 22v-254l-22 22h244l-27 -22l21 107h85l-1 -188h-350q-13 0 -36.5 -1
t-51 -2t-52.5 -1.5t-43 -0.5zM444 73v557l30 -39q-14 3 -29.5 4t-31.5 2.5t-34 1.5q-43 0 -77 -11.5t-58 -39.5t-36 -76.5t-12 -122.5q0 -91 19.5 -145t58 -77t94.5 -23q19 0 40 2t37.5 4t21.5 3z" />
    <glyph glyph-name="oe" unicode="&#x153;" horiz-adv-x="925" 
d="M280 -12q-116 0 -182.5 66t-66.5 202q0 94 32 158.5t92 97.5t142 33q86 0 138 -32.5t73 -94.5l-42 1q28 62 80 94.5t127 32.5q74 0 122.5 -30t72.5 -83t24 -123q0 -16 -1.5 -34t-4.5 -36h-360l31 29v-10.5v-13.5q1 -44 15.5 -78.5t43 -54.5t70.5 -20q32 0 71.5 12.5
t81.5 38.5l47 -76q-58 -40 -117.5 -59.5t-115.5 -19.5q-74 0 -124 34.5t-73 99.5l44 -3q-27 -62 -79.5 -96.5t-140.5 -34.5zM289 88q37 0 63.5 17.5t41 58.5t14.5 109q0 63 -13 101t-38 55t-62 17q-36 0 -62.5 -17t-41.5 -56.5t-15 -109.5q0 -63 13 -102t38.5 -56t61.5 -17z
M556 301l-29 22h239l-19 -14q2 38 -6 69.5t-27.5 49.5t-54.5 18t-57 -20t-33 -53t-13 -72z" />
    <glyph glyph-name="Racute" unicode="&#x154;" horiz-adv-x="667" 
d="M36 0v72l92 26l-18 -28v560l25 -30l-99 27v72l223 5h97q120 0 181 -50t61 -144q0 -84 -51.5 -139t-161.5 -67l1 16q39 -1 64 -12t41.5 -30.5t30.5 -46.5l80 -154l-41 25l92 -30v-72h-164l-90 193q-18 38 -31 58.5t-32 28t-55 6.5h-52l24 20v-236l-19 29l101 -27v-72h-299
zM253 350l-24 35h83q70 0 105 29t35 86q0 48 -28 75t-86 27h-109l24 22v-274zM222 753l-40 76l230 128l54 -106z" />
    <glyph glyph-name="racute" unicode="&#x155;" horiz-adv-x="470" 
d="M29 0v72l81 23l-14 -21v384l16 -24l-83 25v72l176 8l18 -95l-18 4q45 47 89 72.5t94 25.5q32 0 68 -10l-9 -185h-81l-15 108l13 -27q-6 2 -12.5 3t-12.5 1q-31 0 -61.5 -19t-52.5 -49l11 38v-332l-16 21l99 -23v-72h-290zM167 606l-49 68l208 162l71 -96z" />
    <glyph glyph-name="uni0156" unicode="&#x156;" horiz-adv-x="667" 
d="M36 0v72l92 26l-18 -28v560l25 -30l-99 27v72l223 5h97q120 0 181 -50t61 -144q0 -84 -51.5 -139t-161.5 -67l1 16q39 -1 64 -12t41.5 -30.5t30.5 -46.5l80 -154l-41 25l92 -30v-72h-164l-90 193q-18 38 -31 58.5t-32 28t-55 6.5h-52l24 20v-236l-19 29l101 -27v-72h-299
zM253 350l-24 35h83q70 0 105 29t35 86q0 48 -28 75t-86 27h-109l24 22v-274zM307 -321l-46 32q22 36 30 54.5t8 30.5t-6.5 22t-13.5 23t-7 33q0 34 22 51.5t49 17.5t49.5 -18.5t22.5 -54.5q0 -37 -24 -83t-84 -108z" />
    <glyph glyph-name="uni0157" unicode="&#x157;" horiz-adv-x="470" 
d="M29 0v72l81 23l-14 -21v384l16 -24l-83 25v72l176 8l18 -95l-18 4q45 47 89 72.5t94 25.5q32 0 68 -10l-9 -185h-81l-15 108l13 -27q-6 2 -12.5 3t-12.5 1q-31 0 -61.5 -19t-52.5 -49l11 38v-332l-16 21l99 -23v-72h-290zM125 -321l-46 32q22 36 30 54.5t8 30.5t-6.5 22
t-13.5 23t-7 33q0 34 22 51.5t49 17.5t49.5 -18.5t22.5 -54.5q0 -37 -24 -83t-84 -108z" />
    <glyph glyph-name="Rcaron" unicode="&#x158;" horiz-adv-x="667" 
d="M36 0v72l92 26l-18 -28v560l25 -30l-99 27v72l223 5h97q120 0 181 -50t61 -144q0 -84 -51.5 -139t-161.5 -67l1 16q39 -1 64 -12t41.5 -30.5t30.5 -46.5l80 -154l-41 25l92 -30v-72h-164l-90 193q-18 38 -31 58.5t-32 28t-55 6.5h-52l24 20v-236l-19 29l101 -27v-72h-299
zM253 350l-24 35h83q70 0 105 29t35 86q0 48 -28 75t-86 27h-109l24 22v-274zM461 951l46 -55l-145 -131l-80 -7l-156 138l47 55l196 -120l-97 1z" />
    <glyph glyph-name="rcaron" unicode="&#x159;" horiz-adv-x="470" 
d="M29 0v72l81 23l-14 -21v384l16 -24l-83 25v72l176 8l18 -95l-18 4q45 47 89 72.5t94 25.5q32 0 68 -10l-9 -185h-81l-15 108l13 -27q-6 2 -12.5 3t-12.5 1q-31 0 -61.5 -19t-52.5 -49l11 38v-332l-16 21l99 -23v-72h-290zM377 821l46 -52l-142 -143l-80 -7l-152 150
l47 52l192 -132l-97 2z" />
    <glyph glyph-name="Sacute" unicode="&#x15a;" horiz-adv-x="601" 
d="M195 527q0 -29 20 -48t52 -32.5t71 -26t77 -28t70.5 -39t52 -59.5t19.5 -90q0 -74 -38.5 -122t-102.5 -71.5t-142 -23.5q-53 0 -108.5 10.5t-109.5 31.5l5 190h83l21 -121l-13 24q30 -14 63.5 -21.5t65.5 -7.5q37 0 68 10t49 31t18 52t-19 51t-51.5 33.5t-70.5 25
t-76.5 26.5t-71 38t-51.5 58.5t-19 89.5q0 71 34 116.5t92 68.5t131 23q52 0 108 -11t112 -33l-11 -175h-85l-21 109l16 -16q-25 10 -53.5 15.5t-57.5 5.5q-34 0 -63 -8.5t-46.5 -27t-17.5 -48.5zM216 753l-40 76l230 128l54 -106z" />
    <glyph glyph-name="sacute" unicode="&#x15b;" horiz-adv-x="504" 
d="M183 399q0 -23 20 -37t51.5 -24t67 -21t67 -28.5t51.5 -46.5t20 -75q0 -59 -32 -99t-87 -60t-124 -20q-40 0 -84.5 7t-91.5 19l6 151h88l11 -88l-12 17q20 -6 44 -9.5t42 -3.5q26 0 48.5 7t37 20.5t14.5 34.5q0 24 -20 38t-51.5 24t-66 21t-66 29t-51.5 48t-20 78
q0 58 29 94.5t77.5 53.5t106.5 17q41 0 87 -7.5t94 -21.5l-5 -134h-89l-16 79l19 -21q-47 13 -83 13q-37 0 -59.5 -14.5t-22.5 -40.5zM184 606l-49 68l208 162l71 -96z" />
    <glyph glyph-name="Scircumflex" unicode="&#x15c;" horiz-adv-x="601" 
d="M195 527q0 -29 20 -48t52 -32.5t71 -26t77 -28t70.5 -39t52 -59.5t19.5 -90q0 -74 -38.5 -122t-102.5 -71.5t-142 -23.5q-53 0 -108.5 10.5t-109.5 31.5l5 190h83l21 -121l-13 24q30 -14 63.5 -21.5t65.5 -7.5q37 0 68 10t49 31t18 52t-19 51t-51.5 33.5t-70.5 25
t-76.5 26.5t-71 38t-51.5 58.5t-19 89.5q0 71 34 116.5t92 68.5t131 23q52 0 108 -11t112 -33l-11 -175h-85l-21 109l16 -16q-25 10 -53.5 15.5t-57.5 5.5q-34 0 -63 -8.5t-46.5 -27t-17.5 -48.5zM167 749l-46 55l145 130l80 7l155 -137l-47 -55l-195 119l97 -1z" />
    <glyph glyph-name="scircumflex" unicode="&#x15d;" horiz-adv-x="504" 
d="M183 399q0 -23 20 -37t51.5 -24t67 -21t67 -28.5t51.5 -46.5t20 -75q0 -59 -32 -99t-87 -60t-124 -20q-40 0 -84.5 7t-91.5 19l6 151h88l11 -88l-12 17q20 -6 44 -9.5t42 -3.5q26 0 48.5 7t37 20.5t14.5 34.5q0 24 -20 38t-51.5 24t-66 21t-66 29t-51.5 48t-20 78
q0 58 29 94.5t77.5 53.5t106.5 17q41 0 87 -7.5t94 -21.5l-5 -134h-89l-16 79l19 -21q-47 13 -83 13q-37 0 -59.5 -14.5t-22.5 -40.5zM112 620l-46 51l143 143l80 7l154 -150l-48 -51l-193 131l97 -1z" />
    <glyph glyph-name="Scedilla" unicode="&#x15e;" horiz-adv-x="601" 
d="M195 527q0 -29 20 -48t52 -32.5t71 -26t77 -28t70.5 -39t52 -59.5t19.5 -90q0 -74 -38.5 -122t-102.5 -71.5t-142 -23.5q-53 0 -108.5 10.5t-109.5 31.5l5 190h83l21 -121l-13 24q30 -14 63.5 -21.5t65.5 -7.5q37 0 68 10t49 31t18 52t-19 51t-51.5 33.5t-70.5 25
t-76.5 26.5t-71 38t-51.5 58.5t-19 89.5q0 71 34 116.5t92 68.5t131 23q52 0 108 -11t112 -33l-11 -175h-85l-21 109l16 -16q-25 10 -53.5 15.5t-57.5 5.5q-34 0 -63 -8.5t-46.5 -27t-17.5 -48.5zM314 -254q-27 0 -55.5 6t-53.5 19l26 67q19 -7 41.5 -12t40.5 -5
q21 0 34.5 8t13.5 23q0 13 -14 22t-37.5 13.5t-51.5 5.5l6 107h83v-49q58 -6 86 -31.5t28 -62.5t-20.5 -61.5t-54 -37t-72.5 -12.5z" />
    <glyph glyph-name="scedilla" unicode="&#x15f;" horiz-adv-x="504" 
d="M183 399q0 -23 20 -37t51.5 -24t67 -21t67 -28.5t51.5 -46.5t20 -75q0 -59 -32 -99t-87 -60t-124 -20q-40 0 -84.5 7t-91.5 19l6 151h88l11 -88l-12 17q20 -6 44 -9.5t42 -3.5q26 0 48.5 7t37 20.5t14.5 34.5q0 24 -20 38t-51.5 24t-66 21t-66 29t-51.5 48t-20 78
q0 58 29 94.5t77.5 53.5t106.5 17q41 0 87 -7.5t94 -21.5l-5 -134h-89l-16 79l19 -21q-47 13 -83 13q-37 0 -59.5 -14.5t-22.5 -40.5zM259 -254q-27 0 -55.5 6t-53.5 19l26 67q19 -7 41.5 -12t40.5 -5q21 0 34.5 8t13.5 23q0 13 -14 22t-37.5 13.5t-51.5 5.5l6 107h83v-49
q58 -6 86 -31.5t28 -62.5t-20.5 -61.5t-54 -37t-72.5 -12.5z" />
    <glyph glyph-name="Scaron" unicode="&#x160;" horiz-adv-x="601" 
d="M195 527q0 -29 20 -48t52 -32.5t71 -26t77 -28t70.5 -39t52 -59.5t19.5 -90q0 -74 -38.5 -122t-102.5 -71.5t-142 -23.5q-53 0 -108.5 10.5t-109.5 31.5l5 190h83l21 -121l-13 24q30 -14 63.5 -21.5t65.5 -7.5q37 0 68 10t49 31t18 52t-19 51t-51.5 33.5t-70.5 25
t-76.5 26.5t-71 38t-51.5 58.5t-19 89.5q0 71 34 116.5t92 68.5t131 23q52 0 108 -11t112 -33l-11 -175h-85l-21 109l16 -16q-25 10 -53.5 15.5t-57.5 5.5q-34 0 -63 -8.5t-46.5 -27t-17.5 -48.5zM455 951l46 -55l-145 -131l-80 -7l-156 138l47 55l196 -120l-97 1z" />
    <glyph glyph-name="scaron" unicode="&#x161;" horiz-adv-x="504" 
d="M183 399q0 -23 20 -37t51.5 -24t67 -21t67 -28.5t51.5 -46.5t20 -75q0 -59 -32 -99t-87 -60t-124 -20q-40 0 -84.5 7t-91.5 19l6 151h88l11 -88l-12 17q20 -6 44 -9.5t42 -3.5q26 0 48.5 7t37 20.5t14.5 34.5q0 24 -20 38t-51.5 24t-66 21t-66 29t-51.5 48t-20 78
q0 58 29 94.5t77.5 53.5t106.5 17q41 0 87 -7.5t94 -21.5l-5 -134h-89l-16 79l19 -21q-47 13 -83 13q-37 0 -59.5 -14.5t-22.5 -40.5zM394 821l46 -52l-142 -143l-80 -7l-152 150l47 52l192 -132l-97 2z" />
    <glyph glyph-name="uni0162" unicode="&#x162;" horiz-adv-x="612" 
d="M149 0v72l111 28l-26 -36v559l29 -22h-163l32 28l-27 -127h-85v202h572v-202h-85l-25 121l30 -22h-163l29 22v-559l-25 36l110 -28v-72h-314zM314 -254q-27 0 -55.5 6t-53.5 19l26 67q19 -7 41.5 -12t40.5 -5q21 0 34.5 8t13.5 23q0 13 -14 22t-37.5 13.5t-51.5 5.5
l6 107h83v-49q58 -6 86 -31.5t28 -62.5t-20.5 -61.5t-54 -37t-72.5 -12.5z" />
    <glyph glyph-name="uni0163" unicode="&#x163;" horiz-adv-x="395" 
d="M224 -12q-69 0 -104.5 41.5t-35.5 123.5v306l18 -18h-96v75l98 23l-20 -24v136l141 25v-161l-15 19h152l-2 -93h-150l15 18v-287q0 -43 14 -62t42 -19q16 0 35.5 5.5t42.5 14.5l26 -77q-84 -46 -161 -46zM209 -254q-27 0 -55.5 6t-53.5 19l26 67q19 -7 41.5 -12t40.5 -5
q21 0 34.5 8t13.5 23q0 13 -14 22t-37.5 13.5t-51.5 5.5l6 107h83v-49q58 -6 86 -31.5t28 -62.5t-20.5 -61.5t-54 -37t-72.5 -12.5z" />
    <glyph glyph-name="Tcaron" unicode="&#x164;" horiz-adv-x="612" 
d="M149 0v72l111 28l-26 -36v559l29 -22h-163l32 28l-27 -127h-85v202h572v-202h-85l-25 121l30 -22h-163l29 22v-559l-25 36l110 -28v-72h-314zM450 951l46 -55l-145 -131l-80 -7l-156 138l47 55l196 -120l-97 1z" />
    <glyph glyph-name="tcaron" unicode="&#x165;" horiz-adv-x="395" 
d="M224 -12q-69 0 -104.5 41.5t-35.5 123.5v306l18 -18h-96v75l98 23l-20 -24v136l141 25v-161l-15 19h152l-2 -93h-150l15 18v-287q0 -43 14 -62t42 -19q16 0 35.5 5.5t42.5 14.5l26 -77q-84 -46 -161 -46zM357 569l-82 11q9 51 13 102t1 106l118 -5q-5 -50 -18 -104
t-32 -110z" />
    <glyph glyph-name="Tbar" unicode="&#x166;" horiz-adv-x="612" 
d="M104 296v94h404v-94h-404zM149 0v72l111 28l-26 -36v559l29 -22h-163l32 28l-27 -127h-85v202h572v-202h-85l-25 121l30 -22h-163l29 22v-559l-25 36l110 -28v-72h-314z" />
    <glyph glyph-name="tbar" unicode="&#x167;" horiz-adv-x="399" 
d="M6 247v80h359v-80h-359zM224 -12q-69 0 -104.5 41.5t-35.5 123.5v306l18 -18h-96v75l98 23l-20 -24v136l141 25v-161l-15 19h152l-2 -93h-150l15 18v-287q0 -43 14 -62t42 -19q16 0 35.5 5.5t42.5 14.5l26 -77q-84 -46 -161 -46z" />
    <glyph glyph-name="Utilde" unicode="&#x168;" horiz-adv-x="742" 
d="M434 699l290 5v-72l-89 -30l16 36v-363q0 -51 -9.5 -94.5t-30.5 -79t-54 -61t-80.5 -39t-109.5 -13.5q-83 0 -135 20.5t-81 53t-41.5 70t-15 72t-2.5 58.5v375l16 -34l-90 24v72l290 5v-72l-87 -30l14 35v-375q0 -26 2.5 -50.5t9.5 -45t21.5 -36t39 -24t61.5 -8.5
q38 0 63 9t40.5 25.5t23 38.5t10 48.5t2.5 55.5v363l13 -33l-87 22v72zM243 776l-58 26q19 61 45.5 87.5t62.5 26.5q27 0 53 -10.5t50.5 -21.5t43.5 -11q18 0 32 11t29 35l59 -26q-20 -61 -48.5 -88t-66.5 -27q-25 0 -51 11t-50 21.5t-44 10.5q-16 0 -29 -11t-28 -34z" />
    <glyph glyph-name="utilde" unicode="&#x169;" horiz-adv-x="631" 
d="M233 -12q-67 0 -112 43.5t-45 131.5v292l13 -20l-79 24v72l206 7v-352q0 -47 21 -69.5t56 -22.5q27 0 59.5 14.5t64.5 45.5l-10 -25v329l13 -23l-79 24v72l206 7v-464l-17 24l84 -26v-71l-176 -8l-19 98l20 -7q-50 -48 -103.5 -72t-102.5 -24zM379 641q-28 0 -51 12
t-44.5 24t-44.5 12q-19 0 -34.5 -11.5t-30.5 -35.5l-59 26q20 61 49.5 92t66.5 31q29 0 52.5 -12t45 -24t43.5 -12q20 0 35 11.5t30 35.5l60 -24q-20 -62 -49.5 -93.5t-68.5 -31.5z" />
    <glyph glyph-name="Umacron" unicode="&#x16a;" horiz-adv-x="742" 
d="M434 699l290 5v-72l-89 -30l16 36v-363q0 -51 -9.5 -94.5t-30.5 -79t-54 -61t-80.5 -39t-109.5 -13.5q-83 0 -135 20.5t-81 53t-41.5 70t-15 72t-2.5 58.5v375l16 -34l-90 24v72l290 5v-72l-87 -30l14 35v-375q0 -26 2.5 -50.5t9.5 -45t21.5 -36t39 -24t61.5 -8.5
q38 0 63 9t40.5 25.5t23 38.5t10 48.5t2.5 55.5v363l13 -33l-87 22v72zM523 883v-97h-300v97h300z" />
    <glyph glyph-name="umacron" unicode="&#x16b;" horiz-adv-x="631" 
d="M233 -12q-67 0 -112 43.5t-45 131.5v292l13 -20l-79 24v72l206 7v-352q0 -47 21 -69.5t56 -22.5q27 0 59.5 14.5t64.5 45.5l-10 -25v329l13 -23l-79 24v72l206 7v-464l-17 24l84 -26v-71l-176 -8l-19 98l20 -7q-50 -48 -103.5 -72t-102.5 -24zM456 758v-97h-300v97h300z
" />
    <glyph glyph-name="Ubreve" unicode="&#x16c;" horiz-adv-x="742" 
d="M434 699l290 5v-72l-89 -30l16 36v-363q0 -51 -9.5 -94.5t-30.5 -79t-54 -61t-80.5 -39t-109.5 -13.5q-83 0 -135 20.5t-81 53t-41.5 70t-15 72t-2.5 58.5v375l16 -34l-90 24v72l290 5v-72l-87 -30l14 35v-375q0 -26 2.5 -50.5t9.5 -45t21.5 -36t39 -24t61.5 -8.5
q38 0 63 9t40.5 25.5t23 38.5t10 48.5t2.5 55.5v363l13 -33l-87 22v72zM372 766q-40 0 -76.5 17.5t-60 52t-24.5 85.5l81 9q5 -38 31 -56.5t54 -18.5q29 0 52.5 17t26.5 52l79 3q2 -52 -22 -88t-62 -54.5t-79 -18.5z" />
    <glyph glyph-name="ubreve" unicode="&#x16d;" horiz-adv-x="631" 
d="M233 -12q-67 0 -112 43.5t-45 131.5v292l13 -20l-79 24v72l206 7v-352q0 -47 21 -69.5t56 -22.5q27 0 59.5 14.5t64.5 45.5l-10 -25v329l13 -23l-79 24v72l206 7v-464l-17 24l84 -26v-71l-176 -8l-19 98l20 -7q-50 -48 -103.5 -72t-102.5 -24zM305 623q-46 0 -82 21
t-57 57.5t-22 83.5l83 9q4 -34 26 -54.5t56 -20.5q33 0 53 18.5t23 50.5l80 4q2 -49 -18.5 -87.5t-57 -60t-84.5 -21.5z" />
    <glyph glyph-name="Uring" unicode="&#x16e;" horiz-adv-x="742" 
d="M434 699l290 5v-72l-89 -30l16 36v-363q0 -51 -9.5 -94.5t-30.5 -79t-54 -61t-80.5 -39t-109.5 -13.5q-83 0 -135 20.5t-81 53t-41.5 70t-15 72t-2.5 58.5v375l16 -34l-90 24v72l290 5v-72l-87 -30l14 35v-375q0 -26 2.5 -50.5t9.5 -45t21.5 -36t39 -24t61.5 -8.5
q38 0 63 9t40.5 25.5t23 38.5t10 48.5t2.5 55.5v363l13 -33l-87 22v72zM371 731q-42 0 -71.5 16t-45.5 43.5t-16 61.5q0 35 16 62.5t46.5 44t74.5 16.5q42 0 71.5 -16t45 -43.5t15.5 -61.5q0 -33 -16 -61.5t-46 -45t-74 -16.5zM372 796q26 0 38.5 16t12.5 42
q0 25 -12.5 40.5t-37.5 15.5t-38 -16t-13 -42q0 -25 12 -40.5t38 -15.5z" />
    <glyph glyph-name="uring" unicode="&#x16f;" horiz-adv-x="631" 
d="M233 -12q-67 0 -112 43.5t-45 131.5v292l13 -20l-79 24v72l206 7v-352q0 -47 21 -69.5t56 -22.5q27 0 59.5 14.5t64.5 45.5l-10 -25v329l13 -23l-79 24v72l206 7v-464l-17 24l84 -26v-71l-176 -8l-19 98l20 -7q-50 -48 -103.5 -72t-102.5 -24zM304 605q-42 0 -71.5 16
t-45.5 43.5t-16 61.5q0 35 16 62.5t46.5 44t74.5 16.5q42 0 71.5 -16t45 -43.5t15.5 -61.5q0 -33 -16 -61.5t-46 -45t-74 -16.5zM305 670q26 0 38.5 16t12.5 42q0 25 -12.5 40.5t-37.5 15.5t-38 -16t-13 -42q0 -25 12 -40.5t38 -15.5z" />
    <glyph glyph-name="Uhungarumlaut" unicode="&#x170;" horiz-adv-x="742" 
d="M434 699l290 5v-72l-89 -30l16 36v-363q0 -51 -9.5 -94.5t-30.5 -79t-54 -61t-80.5 -39t-109.5 -13.5q-83 0 -135 20.5t-81 53t-41.5 70t-15 72t-2.5 58.5v375l16 -34l-90 24v72l290 5v-72l-87 -30l14 35v-375q0 -26 2.5 -50.5t9.5 -45t21.5 -36t39 -24t61.5 -8.5
q38 0 63 9t40.5 25.5t23 38.5t10 48.5t2.5 55.5v363l13 -33l-87 22v72zM471 743l-72 36l86 197l95 -50zM306 743l-73 34l80 199l96 -47z" />
    <glyph glyph-name="uhungarumlaut" unicode="&#x171;" horiz-adv-x="631" 
d="M233 -12q-67 0 -112 43.5t-45 131.5v292l13 -20l-79 24v72l206 7v-352q0 -47 21 -69.5t56 -22.5q27 0 59.5 14.5t64.5 45.5l-10 -25v329l13 -23l-79 24v72l206 7v-464l-17 24l84 -26v-71l-176 -8l-19 98l20 -7q-50 -48 -103.5 -72t-102.5 -24zM410 606l-72 36l86 197
l95 -50zM245 606l-73 34l80 199l96 -47z" />
    <glyph glyph-name="Uogonek" unicode="&#x172;" horiz-adv-x="742" 
d="M434 699l290 5v-72l-89 -30l16 36v-363q0 -51 -9.5 -94.5t-30.5 -79t-54 -61t-80.5 -39t-109.5 -13.5q-83 0 -135 20.5t-81 53t-41.5 70t-15 72t-2.5 58.5v375l16 -34l-90 24v72l290 5v-72l-87 -30l14 35v-375q0 -26 2.5 -50.5t9.5 -45t21.5 -36t39 -24t61.5 -8.5
q38 0 63 9t40.5 25.5t23 38.5t10 48.5t2.5 55.5v363l13 -33l-87 22v72zM398 -224q-56 0 -91.5 26.5t-35.5 73.5q0 32 20.5 66.5t61.5 63.5t104 46l13 -52q-46 -15 -72 -40.5t-26 -49.5q0 -21 19 -32.5t46 -11.5q9 0 18 1t18 3l8 -80q-22 -7 -43 -10.5t-40 -3.5z" />
    <glyph glyph-name="uogonek" unicode="&#x173;" horiz-adv-x="631" 
d="M233 -12q-67 0 -112 43.5t-45 131.5v292l13 -20l-79 24v72l206 7v-352q0 -47 21 -69.5t56 -22.5q27 0 59.5 14.5t64.5 45.5l-10 -25v329l13 -23l-79 24v72l206 7v-464l-17 24l84 -26v-71l-176 -8l-19 98l20 -7q-50 -48 -103.5 -72t-102.5 -24zM455 -224q-56 0 -91.5 26.5
t-35.5 73.5q0 32 20.5 66.5t61.5 63.5t104 46l13 -52q-46 -15 -72 -40.5t-26 -49.5q0 -21 19 -32.5t46 -11.5q9 0 18 1t18 3l8 -80q-22 -7 -43 -10.5t-40 -3.5z" />
    <glyph glyph-name="Wcircumflex" unicode="&#x174;" horiz-adv-x="1021" 
d="M755 699l263 5v-72l-91 -26l33 37l-181 -644h-135l-150 532h26l-156 -532h-134l-166 632l14 -23l-74 19v72l276 5v-72l-87 -28l17 27l113 -503l-29 1l157 571l132 4l152 -573l-29 -1l128 501l12 -26l-91 22v72zM376 749l-46 55l145 130l80 7l155 -137l-47 -55l-195 119
l97 -1z" />
    <glyph glyph-name="wcircumflex" unicode="&#x175;" horiz-adv-x="832" 
d="M623 530l213 8v-71l-62 -20l18 15l-127 -464h-151l-108 430l27 -1l-122 -429h-151l-118 458l15 -13l-61 15v72l236 8v-71l-73 -20l15 11l84 -376h-23l119 449l143 8l110 -462h-21l92 378l13 -13l-68 16v72zM281 620l-46 51l143 143l80 7l154 -150l-48 -51l-193 131l97 -1
z" />
    <glyph glyph-name="Ycircumflex" unicode="&#x176;" horiz-adv-x="648" 
d="M173 0v72l96 28l-19 -30v207l12 -49l-207 397l26 -22l-79 24v72l279 5v-72l-89 -24l11 25l144 -305h-27l146 299l11 -25l-92 25v72l260 5v-72l-80 -24l28 21l-211 -401l11 49v-207l-20 30l96 -28v-72h-296zM183 749l-46 55l145 130l80 7l155 -137l-47 -55l-195 119l97 -1
z" />
    <glyph glyph-name="ycircumflex" unicode="&#x177;" horiz-adv-x="556" 
d="M8 -235l13 99q16 -2 29.5 -3t25.5 -1q44 0 71.5 17.5t48 54t40.5 94.5l-5 -47l-192 477l13 -12l-58 14v72l249 8v-71l-70 -19l7 12l127 -374l-34 7l113 365l7 -14l-69 14v72l236 8v-71l-63 -20l19 12l-165 -457q-21 -58 -45 -103t-54.5 -76.5t-71 -48t-94.5 -16.5
q-35 0 -78 7zM137 620l-46 51l143 143l80 7l154 -150l-48 -51l-193 131l97 -1z" />
    <glyph glyph-name="Ydieresis" unicode="&#x178;" horiz-adv-x="648" 
d="M173 0v72l96 28l-19 -30v207l12 -49l-207 397l26 -22l-79 24v72l279 5v-72l-89 -24l11 25l144 -305h-27l146 299l11 -25l-92 25v72l260 5v-72l-80 -24l28 21l-211 -401l11 49v-207l-20 30l96 -28v-72h-296zM437 762q-33 0 -51 19.5t-18 54.5q-1 35 19.5 55t49.5 20
q33 0 52 -20t19 -55t-20.5 -54.5t-50.5 -19.5zM217 762q-32 0 -50 19.5t-19 54.5t19.5 55t49.5 20q33 0 52 -20t19 -55t-21 -54.5t-50 -19.5z" />
    <glyph glyph-name="Zacute" unicode="&#x179;" horiz-adv-x="623" 
d="M34 0v95l387 521l15 -17h-304l33 16l-23 -113h-85v202h520v-95l-386 -526l-5 22h319l-30 -21l20 118h86l-1 -202h-546zM217 753l-40 76l230 128l54 -106z" />
    <glyph glyph-name="zacute" unicode="&#x17a;" horiz-adv-x="504" 
d="M470 172l1 -172h-437v82l291 385l18 -27h-243l38 30l-14 -97h-85l-1 161h421v-82l-293 -396l-5 38h233l-36 -38l27 116h85zM183 606l-49 68l208 162l71 -96z" />
    <glyph glyph-name="Zdotaccent" unicode="&#x17b;" horiz-adv-x="623" 
d="M34 0v95l387 521l15 -17h-304l33 16l-23 -113h-85v202h520v-95l-386 -526l-5 22h319l-30 -21l20 118h86l-1 -202h-546zM312 762q-37 0 -59.5 21t-22.5 60q0 42 23.5 62.5t59.5 20.5q35 0 58 -20.5t23 -61.5t-23.5 -61.5t-58.5 -20.5z" />
    <glyph glyph-name="zdotaccent" unicode="&#x17c;" horiz-adv-x="504" 
d="M470 172l1 -172h-437v82l291 385l18 -27h-243l38 30l-14 -97h-85l-1 161h421v-82l-293 -396l-5 38h233l-36 -38l27 116h85zM251 616q-37 0 -59.5 21t-22.5 60q0 42 23.5 62.5t59.5 20.5q35 0 58 -20.5t23 -61.5t-23.5 -61.5t-58.5 -20.5z" />
    <glyph glyph-name="Zcaron" unicode="&#x17d;" horiz-adv-x="623" 
d="M34 0v95l387 521l15 -17h-304l33 16l-23 -113h-85v202h520v-95l-386 -526l-5 22h319l-30 -21l20 118h86l-1 -202h-546zM457 951l46 -55l-145 -131l-80 -7l-156 138l47 55l196 -120l-97 1z" />
    <glyph glyph-name="zcaron" unicode="&#x17e;" horiz-adv-x="504" 
d="M470 172l1 -172h-437v82l291 385l18 -27h-243l38 30l-14 -97h-85l-1 161h421v-82l-293 -396l-5 38h233l-36 -38l27 116h85zM393 821l46 -52l-142 -143l-80 -7l-152 150l47 52l192 -132l-97 2z" />
    <glyph glyph-name="longs" unicode="&#x17f;" horiz-adv-x="371" 
d="M28 0v72l80 23l-13 -15v496q0 107 57 158.5t152 51.5q29 0 58.5 -5t63.5 -14l-20 -93q-20 6 -39.5 9.5t-37.5 3.5q-41 0 -67.5 -22.5t-26.5 -76.5v-508l-13 15l93 -23v-72h-287z" />
    <glyph glyph-name="uni018F" unicode="&#x18f;" horiz-adv-x="677" 
d="M319 -12q-79 0 -142.5 35t-100 104.5t-36.5 171.5q0 19 1.5 41.5t4.5 43.5h503v-102h-371l16 18q0 -71 16 -115.5t46.5 -65.5t72.5 -21q44 0 79 23t55.5 77t20.5 145q0 86 -22 143t-63 86t-98 29q-42 0 -92 -16.5t-104 -51.5l-56 82q72 51 144 76t138 25q86 0 155 -40.5
t109.5 -119.5t40.5 -194q0 -121 -43 -204.5t-114.5 -126.5t-159.5 -43z" />
    <glyph glyph-name="florin" unicode="&#x192;" horiz-adv-x="555" 
d="M101 -205q-19 0 -41 2.5t-45 7.5l11 98q31 -3 51 -3q40 0 60.5 12.5t29 35.5t11.5 57l35 385l28 -17h-105v74l117 16l-36 -24l11 122q8 81 35 130.5t72 72t104 22.5q22 0 45 -2.5t46 -8.5l-10 -97q-29 3 -51 3q-40 0 -60.5 -12.5t-29 -36t-11.5 -58.5l-13 -136l-27 21
h157l-2 -86h-162l31 26l-35 -376q-7 -78 -34.5 -129t-73.5 -75t-108 -24z" />
    <glyph glyph-name="Ohorn" unicode="&#x1a0;" horiz-adv-x="744" 
d="M352 -12q-95 0 -164.5 40.5t-107.5 119.5t-38 195q0 93 24 163t68 116.5t104.5 70t134.5 23.5q73 0 131.5 -23t100 -67t64.5 -109.5t23 -151.5q0 -117 -42.5 -201.5t-118.5 -130t-179 -45.5zM363 98q50 0 89 24.5t62.5 82t23.5 154.5q0 90 -21.5 144.5t-59.5 78.5t-90 24
q-50 0 -89 -24t-60.5 -80t-21.5 -154q0 -90 20 -144.5t57.5 -80t89.5 -25.5zM518 628l-38 66q57 0 86 15.5t29 49.5q0 13 -4.5 30.5t-11.5 39.5l101 23q14 -29 20.5 -54t6.5 -47q0 -60 -51 -92.5t-138 -30.5z" />
    <glyph glyph-name="ohorn" unicode="&#x1a1;" horiz-adv-x="581" 
d="M276 -12q-116 0 -180.5 70t-64.5 198q0 91 31.5 155.5t91 99.5t142.5 35q118 0 184 -70t66 -197q0 -90 -32 -155.5t-92 -100.5t-146 -35zM285 88q40 0 65 20t38 61.5t13 103.5q0 89 -28 131t-84 42q-57 0 -85 -44.5t-28 -137.5t27 -134.5t82 -41.5zM389 465l-15 68
q45 1 65 15.5t20 43.5q0 14 -4.5 32t-11.5 39l101 22q14 -28 20.5 -53t6.5 -46q0 -60 -48 -90.5t-134 -30.5z" />
    <glyph glyph-name="Uhorn" unicode="&#x1af;" horiz-adv-x="752" 
d="M589 629l62 29v-383q0 -98 -31.5 -161.5t-95 -94.5t-160.5 -31q-140 0 -206 66t-66 208v375l16 -34l-90 24v72l290 5v-72l-87 -30l14 35v-375q0 -84 27.5 -124t105.5 -40q56 0 86 19.5t42 58.5t12 99v363l13 -33l-87 22v72l148 4q35 1 50.5 14.5t15.5 38.5q0 28 -17 73
l102 23q14 -28 20.5 -52.5t6.5 -47.5q0 -56 -44 -91t-127 -32z" />
    <glyph glyph-name="uhorn" unicode="&#x1b0;" horiz-adv-x="655" 
d="M233 -12q-67 0 -112 43.5t-45 131.5v292l13 -20l-79 24v72l206 7v-352q0 -47 21 -69.5t56 -22.5q27 0 59.5 14.5t64.5 45.5l-10 -25v329l13 -23l-79 24v72l206 7v-464l-17 24l84 -26v-71l-176 -8l-19 98l20 -7q-50 -48 -103.5 -72t-102.5 -24zM478 470l-6 66
q34 2 48.5 14.5t14.5 38.5q0 29 -16 74l101 23q14 -28 20.5 -53t6.5 -47q0 -58 -44 -89t-125 -27z" />
    <glyph glyph-name="uni01C4" unicode="&#x1c4;" horiz-adv-x="1310" 
d="M351 704q73 0 132.5 -21t101.5 -64t64.5 -106.5t22.5 -148.5q0 -119 -42.5 -200t-119 -122.5t-180.5 -41.5h-294v72l93 27l-19 -29v560l21 -29l-95 26v72l227 5h88zM337 103q32 0 64 9.5t58.5 35.5t42.5 76t16 132q0 79 -15 127.5t-40 74t-55.5 34.5t-60.5 9h-116l22 22
v-542l-22 22h106zM721 0v95l387 521l15 -17h-304l33 16l-23 -113h-85v202h520v-95l-386 -526l-5 22h319l-30 -21l20 118h86l-1 -202h-546zM1144 951l46 -55l-145 -131l-80 -7l-156 138l47 55l196 -120l-97 1z" />
    <glyph glyph-name="uni01C5" unicode="&#x1c5;" horiz-adv-x="1216" 
d="M351 704q73 0 132.5 -21t101.5 -64t64.5 -106.5t22.5 -148.5q0 -119 -42.5 -200t-119 -122.5t-180.5 -41.5h-294v72l93 27l-19 -29v560l21 -29l-95 26v72l227 5h88zM337 103q32 0 64 9.5t58.5 35.5t42.5 76t16 132q0 79 -15 127.5t-40 74t-55.5 34.5t-60.5 9h-116l22 22
v-542l-22 22h106zM1182 172l1 -172h-437v82l291 385l18 -27h-243l38 30l-14 -97h-85l-1 161h421v-82l-293 -396l-5 38h233l-36 -38l27 116h85zM1105 821l46 -52l-142 -143l-80 -7l-152 150l47 52l192 -132l-97 2z" />
    <glyph glyph-name="uni01C6" unicode="&#x1c6;" horiz-adv-x="1108" 
d="M230 -12q-58 0 -102.5 30.5t-70 90.5t-25.5 146q0 148 75 219.5t211 71.5q22 0 44 -2t46 -7l-26 -16v165l10 -14l-82 27v71l212 8v-700l-17 20l84 -26v-71l-176 -8l-18 86l14 -5q-44 -43 -87.5 -64.5t-91.5 -21.5zM284 91q26 0 55 14.5t60 42.5l-17 -42v359l17 -32
q-47 13 -85 13q-71 0 -103.5 -47.5t-32.5 -130.5q0 -54 13 -94t36.5 -61.5t56.5 -21.5zM1074 172l1 -172h-437v82l291 385l18 -27h-243l38 30l-14 -97h-85l-1 161h421v-82l-293 -396l-5 38h233l-36 -38l27 116h85zM997 821l46 -52l-142 -143l-80 -7l-152 150l47 52l192 -132
l-97 2z" />
    <glyph glyph-name="uni01C7" unicode="&#x1c7;" horiz-adv-x="897" 
d="M452 212h85v-212h-501v72l90 26l-16 -28v560l16 -27l-90 24v72l297 5v-72l-95 -29l15 27v-549l-22 22h218l-20 -23zM575 699l296 5v-70l-89 -33l16 29v-524q0 -63 -10 -113t-34 -85.5t-64.5 -54t-102.5 -18.5q-18 0 -36.5 1.5t-39.5 4.5l12 102q10 -1 18 -2t16 -1
q54 0 76 33.5t22 103.5v553l17 -27l-97 24v72z" />
    <glyph glyph-name="uni01C8" unicode="&#x1c8;" horiz-adv-x="849" 
d="M452 212h85v-212h-501v72l90 26l-16 -28v560l16 -27l-90 24v72l297 5v-72l-95 -29l15 27v-549l-22 22h218l-20 -23zM565 -242q-16 0 -32 2t-34 5l10 99q11 -1 21 -2t19 -1q49 0 70.5 22t21.5 76v493l13 -16l-80 23v72l207 7v-537q0 -66 -15.5 -112t-43.5 -75t-68 -42.5
t-89 -13.5zM703 616q-37 0 -59.5 21t-22.5 60q0 42 23.5 62.5t59.5 20.5q35 0 58 -20.5t23 -61.5t-23.5 -61.5t-58.5 -20.5z" />
    <glyph glyph-name="uni01C9" unicode="&#x1c9;" horiz-adv-x="589" 
d="M222 82l-10 12l77 -22v-72h-273v72l77 22l-11 -12v605l9 -10l-75 21v72l206 8v-696zM305 -242q-16 0 -32 2t-34 5l10 99q11 -1 21 -2t19 -1q49 0 70.5 22t21.5 76v493l13 -16l-80 23v72l207 7v-537q0 -66 -15.5 -112t-43.5 -75t-68 -42.5t-89 -13.5zM442 616
q-37 0 -59.5 21t-22.5 60q0 42 23.5 62.5t59.5 20.5q35 0 58 -20.5t23 -61.5t-23.5 -61.5t-58.5 -20.5z" />
    <glyph glyph-name="uni01CA" unicode="&#x1ca;" horiz-adv-x="1114" 
d="M483 699l265 5v-72l-94 -31l21 30v-631h-165l-302 553h20v-483l-21 30l95 -28v-72h-266v72l95 28l-21 -30v560l14 -26l-88 23v72l244 5l297 -542h-21v469l22 -29l-95 25v72zM792 699l296 5v-70l-89 -33l16 29v-524q0 -63 -10 -113t-34 -85.5t-64.5 -54t-102.5 -18.5
q-18 0 -36.5 1.5t-39.5 4.5l12 102q10 -1 18 -2t16 -1q54 0 76 33.5t22 103.5v553l17 -27l-97 24v72z" />
    <glyph glyph-name="uni01CB" unicode="&#x1cb;" horiz-adv-x="1051" 
d="M483 699l265 5v-72l-94 -31l21 30v-631h-165l-302 553h20v-483l-21 30l95 -28v-72h-266v72l95 28l-21 -30v560l14 -26l-88 23v72l244 5l297 -542h-21v469l22 -29l-95 25v72zM767 -242q-16 0 -32 2t-34 5l10 99q11 -1 21 -2t19 -1q49 0 70.5 22t21.5 76v493l13 -16l-80 23
v72l207 7v-537q0 -66 -15.5 -112t-43.5 -75t-68 -42.5t-89 -13.5zM904 616q-37 0 -59.5 21t-22.5 60q0 42 23.5 62.5t59.5 20.5q35 0 58 -20.5t23 -61.5t-23.5 -61.5t-58.5 -20.5z" />
    <glyph glyph-name="uni01CC" unicode="&#x1cc;" horiz-adv-x="935" 
d="M29 0v72l84 24l-17 -20v381l17 -23l-84 25v72l176 8l18 -96l-18 7q48 49 102 72.5t103 23.5q68 0 113 -42.5t44 -128.5v-299l-13 20l80 -24v-72h-267v72l76 22l-16 -21v272q0 49 -21.5 72t-56.5 23q-27 0 -59 -15t-63 -45l9 21v-328l-13 21l73 -22v-72h-267zM651 -242
q-16 0 -32 2t-34 5l10 99q11 -1 21 -2t19 -1q49 0 70.5 22t21.5 76v493l13 -16l-80 23v72l207 7v-537q0 -66 -15.5 -112t-43.5 -75t-68 -42.5t-89 -13.5zM788 616q-37 0 -59.5 21t-22.5 60q0 42 23.5 62.5t59.5 20.5q35 0 58 -20.5t23 -61.5t-23.5 -61.5t-58.5 -20.5z" />
    <glyph glyph-name="uni01CD" unicode="&#x1cd;" horiz-adv-x="713" 
d="M661 67l-37 33l86 -28v-72h-287v72l87 25l-14 -20l-40 130l22 -18h-264l17 17l-43 -127l-4 15l80 -22v-72h-261v72l83 26l-32 -28l236 632l147 4zM250 269l-10 19h215l-14 -22l-104 361h33zM507 951l46 -55l-145 -131l-80 -7l-156 138l47 55l196 -120l-97 1z" />
    <glyph glyph-name="uni01CE" unicode="&#x1ce;" horiz-adv-x="561" 
d="M482 71l-19 28l86 -27v-71l-175 -9l-19 96l10 -3q-40 -49 -87 -73t-97 -24q-64 0 -106 41t-42 118q0 57 24.5 90.5t71.5 48.5t114 15h109l-10 -11v66q0 47 -22.5 67t-65.5 20q-21 0 -45 -4t-52 -12l14 15l-13 -81h-87l-8 146q68 20 124.5 29.5t103.5 9.5q93 0 142 -40
t49 -124v-311zM174 161q0 -37 17.5 -54.5t44.5 -17.5q25 0 55 15.5t57 42.5l-6 -24v114l10 -10h-86q-52 0 -72 -16t-20 -50zM418 821l46 -52l-142 -143l-80 -7l-152 150l47 52l192 -132l-97 2z" />
    <glyph glyph-name="uni01CF" unicode="&#x1cf;" horiz-adv-x="362" 
d="M326 632l-88 -30l15 22v-547l-15 21l88 -26v-72h-290v72l87 25l-13 -20v547l18 -22l-92 25v72l290 5v-72zM325 951l46 -55l-145 -131l-80 -7l-156 138l47 55l196 -120l-97 1z" />
    <glyph glyph-name="uni01D0" unicode="&#x1d0;" horiz-adv-x="318" 
d="M236 82l-10 12l77 -22v-72h-274v72l77 22l-10 -12v365l9 -9l-76 21v72l207 7v-456zM281 821l49 -52l-122 -143l-80 -7l-132 150l50 52l169 -132l-97 2z" />
    <glyph glyph-name="uni01D1" unicode="&#x1d1;" horiz-adv-x="732" 
d="M352 -12q-95 0 -164.5 40.5t-107.5 119.5t-38 195q0 93 24 163t68 116.5t104.5 70t134.5 23.5q73 0 131.5 -23t100 -67t64.5 -109.5t23 -151.5q0 -117 -42.5 -201.5t-118.5 -130t-179 -45.5zM363 98q50 0 89 24.5t62.5 82t23.5 154.5q0 90 -21.5 144.5t-59.5 78.5t-90 24
q-50 0 -89 -24t-60.5 -80t-21.5 -154q0 -90 20 -144.5t57.5 -80t89.5 -25.5zM513 951l46 -55l-145 -131l-80 -7l-156 138l47 55l196 -120l-97 1z" />
    <glyph glyph-name="uni01D2" unicode="&#x1d2;" horiz-adv-x="577" 
d="M296 546q118 0 184 -70t66 -199q0 -90 -32 -154.5t-92 -99.5t-144 -35q-118 0 -182.5 70t-64.5 199q0 90 31.5 154.5t90.5 99.5t143 35zM289 446q-57 0 -85 -44.5t-28 -137.5t27 -134.5t82 -41.5q40 0 65 20t38 61t13 101q0 91 -28 133.5t-84 42.5zM429 821l46 -52
l-142 -143l-80 -7l-152 150l47 52l192 -132l-97 2z" />
    <glyph glyph-name="uni01D3" unicode="&#x1d3;" horiz-adv-x="742" 
d="M434 699l290 5v-72l-89 -30l16 36v-363q0 -51 -9.5 -94.5t-30.5 -79t-54 -61t-80.5 -39t-109.5 -13.5q-83 0 -135 20.5t-81 53t-41.5 70t-15 72t-2.5 58.5v375l16 -34l-90 24v72l290 5v-72l-87 -30l14 35v-375q0 -26 2.5 -50.5t9.5 -45t21.5 -36t39 -24t61.5 -8.5
q38 0 63 9t40.5 25.5t23 38.5t10 48.5t2.5 55.5v363l13 -33l-87 22v72zM517 951l46 -55l-145 -131l-80 -7l-156 138l47 55l196 -120l-97 1z" />
    <glyph glyph-name="uni01D4" unicode="&#x1d4;" horiz-adv-x="631" 
d="M233 -12q-67 0 -112 43.5t-45 131.5v292l13 -20l-79 24v72l206 7v-352q0 -47 21 -69.5t56 -22.5q27 0 59.5 14.5t64.5 45.5l-10 -25v329l13 -23l-79 24v72l206 7v-464l-17 24l84 -26v-71l-176 -8l-19 98l20 -7q-50 -48 -103.5 -72t-102.5 -24zM446 821l46 -52l-142 -143
l-80 -7l-152 150l47 52l192 -132l-97 2z" />
    <glyph glyph-name="uni01D5" unicode="&#x1d5;" horiz-adv-x="742" 
d="M434 699l290 5v-72l-89 -30l16 36v-363q0 -51 -9.5 -94.5t-30.5 -79t-54 -61t-80.5 -39t-109.5 -13.5q-83 0 -135 20.5t-81 53t-41.5 70t-15 72t-2.5 58.5v375l16 -34l-90 24v72l290 5v-72l-87 -30l14 35v-375q0 -26 2.5 -50.5t9.5 -45t21.5 -36t39 -24t61.5 -8.5
q38 0 63 9t40.5 25.5t23 38.5t10 48.5t2.5 55.5v363l13 -33l-87 22v72zM482 752q-33 0 -51 19.5t-18 54.5q-1 35 19.5 55t49.5 20q33 0 52 -20t19 -55t-20.5 -54.5t-50.5 -19.5zM262 752q-32 0 -50 19.5t-19 54.5t19.5 55t49.5 20q33 0 52 -20t19 -55t-21 -54.5t-50 -19.5z
M523 1036v-97h-300v97h300z" />
    <glyph glyph-name="uni01D6" unicode="&#x1d6;" horiz-adv-x="631" 
d="M233 -12q-67 0 -112 43.5t-45 131.5v292l13 -20l-79 24v72l206 7v-352q0 -47 21 -69.5t56 -22.5q27 0 59.5 14.5t64.5 45.5l-10 -25v329l13 -23l-79 24v72l206 7v-464l-17 24l84 -26v-71l-176 -8l-19 98l20 -7q-50 -48 -103.5 -72t-102.5 -24zM415 594q-33 0 -51 19.5
t-18 54.5q-1 35 19.5 55t49.5 20q33 0 52 -20t19 -55t-20.5 -54.5t-50.5 -19.5zM195 594q-32 0 -50 19.5t-19 54.5t19.5 55t49.5 20q33 0 52 -20t19 -55t-21 -54.5t-50 -19.5zM456 878v-97h-300v97h300z" />
    <glyph glyph-name="uni01D7" unicode="&#x1d7;" horiz-adv-x="742" 
d="M434 699l290 5v-72l-89 -30l16 36v-363q0 -51 -9.5 -94.5t-30.5 -79t-54 -61t-80.5 -39t-109.5 -13.5q-83 0 -135 20.5t-81 53t-41.5 70t-15 72t-2.5 58.5v375l16 -34l-90 24v72l290 5v-72l-87 -30l14 35v-375q0 -26 2.5 -50.5t9.5 -45t21.5 -36t39 -24t61.5 -8.5
q38 0 63 9t40.5 25.5t23 38.5t10 48.5t2.5 55.5v363l13 -33l-87 22v72zM493 745q-33 0 -51 20t-18 55q-1 34 19.5 54t49.5 20q33 0 52 -20t19 -54q0 -35 -20.5 -55t-50.5 -20zM250 745q-32 0 -50 20t-19 55q0 34 20 54t49 20q33 0 52 -20t19 -54q0 -35 -20.5 -55t-50.5 -20z
M366 849l-56 55l142 152l73 -74z" />
    <glyph glyph-name="uni01D8" unicode="&#x1d8;" horiz-adv-x="631" 
d="M233 -12q-67 0 -112 43.5t-45 131.5v292l13 -20l-79 24v72l206 7v-352q0 -47 21 -69.5t56 -22.5q27 0 59.5 14.5t64.5 45.5l-10 -25v329l13 -23l-79 24v72l206 7v-464l-17 24l84 -26v-71l-176 -8l-19 98l20 -7q-50 -48 -103.5 -72t-102.5 -24zM425 593q-33 0 -51 20
t-18 55q-1 34 19.5 54t49.5 20q33 0 52 -20t19 -54q0 -35 -20.5 -55t-50.5 -20zM185 593q-32 0 -50 20t-19 55q-1 34 19.5 54t49.5 20q33 0 52 -20t19 -54q0 -35 -21 -55t-50 -20zM301 700l-56 56l142 151l74 -74z" />
    <glyph glyph-name="uni01D9" unicode="&#x1d9;" horiz-adv-x="742" 
d="M434 699l290 5v-72l-89 -30l16 36v-363q0 -51 -9.5 -94.5t-30.5 -79t-54 -61t-80.5 -39t-109.5 -13.5q-83 0 -135 20.5t-81 53t-41.5 70t-15 72t-2.5 58.5v375l16 -34l-90 24v72l290 5v-72l-87 -30l14 35v-375q0 -26 2.5 -50.5t9.5 -45t21.5 -36t39 -24t61.5 -8.5
q38 0 63 9t40.5 25.5t23 38.5t10 48.5t2.5 55.5v363l13 -33l-87 22v72zM512 745q-33 0 -51 20t-19 55q0 34 20.5 54t49.5 20q33 0 51.5 -20t18.5 -54q0 -35 -20.5 -55t-49.5 -20zM234 745q-32 0 -50 20t-19 55q-1 34 19.5 54t49.5 20q33 0 52 -20t19 -54q0 -35 -21 -55
t-50 -20zM522 1055l41 -57l-153 -129l-59 -7l-160 141l42 52l194 -127l-97 2z" />
    <glyph glyph-name="uni01DA" unicode="&#x1da;" horiz-adv-x="631" 
d="M233 -12q-67 0 -112 43.5t-45 131.5v292l13 -20l-79 24v72l206 7v-352q0 -47 21 -69.5t56 -22.5q27 0 59.5 14.5t64.5 45.5l-10 -25v329l13 -23l-79 24v72l206 7v-464l-17 24l84 -26v-71l-176 -8l-19 98l20 -7q-50 -48 -103.5 -72t-102.5 -24zM433 593q-33 0 -51 20
t-18 55q-1 34 19.5 54t49.5 20q33 0 52 -20t19 -54q0 -35 -20.5 -55t-50.5 -20zM177 593q-32 0 -50 20t-19 55q0 34 20 54t49 20q33 0 52 -20t19 -54q0 -35 -20.5 -55t-50.5 -20zM452 912l46 -55l-145 -130l-80 -7l-156 137l47 55l196 -119l-97 1z" />
    <glyph glyph-name="uni01DB" unicode="&#x1db;" horiz-adv-x="742" 
d="M434 699l290 5v-72l-89 -30l16 36v-363q0 -51 -9.5 -94.5t-30.5 -79t-54 -61t-80.5 -39t-109.5 -13.5q-83 0 -135 20.5t-81 53t-41.5 70t-15 72t-2.5 58.5v375l16 -34l-90 24v72l290 5v-72l-87 -30l14 35v-375q0 -26 2.5 -50.5t9.5 -45t21.5 -36t39 -24t61.5 -8.5
q38 0 63 9t40.5 25.5t23 38.5t10 48.5t2.5 55.5v363l13 -33l-87 22v72zM493 745q-33 0 -51 20t-18 55q-1 34 19.5 54t49.5 20q33 0 52 -20t19 -54q0 -35 -20.5 -55t-50.5 -20zM250 745q-32 0 -50 20t-19 55q0 34 20 54t49 20q33 0 52 -20t19 -54q0 -35 -20.5 -55t-50.5 -20z
M380 849l-159 132l73 75l142 -152z" />
    <glyph glyph-name="uni01DC" unicode="&#x1dc;" horiz-adv-x="631" 
d="M233 -12q-67 0 -112 43.5t-45 131.5v292l13 -20l-79 24v72l206 7v-352q0 -47 21 -69.5t56 -22.5q27 0 59.5 14.5t64.5 45.5l-10 -25v329l13 -23l-79 24v72l206 7v-464l-17 24l84 -26v-71l-176 -8l-19 98l20 -7q-50 -48 -103.5 -72t-102.5 -24zM425 593q-33 0 -51 20
t-18 55q-1 34 19.5 54t49.5 20q33 0 52 -20t19 -54q0 -35 -20.5 -55t-50.5 -20zM185 593q-32 0 -50 20t-19 55q-1 34 19.5 54t49.5 20q33 0 52 -20t19 -54q0 -35 -21 -55t-50 -20zM311 700l-159 133l73 74l142 -151z" />
    <glyph glyph-name="Gcaron" unicode="&#x1e6;" horiz-adv-x="716" 
d="M369 -12q-98 0 -172 41t-114.5 121t-40.5 198q0 116 40.5 198.5t116.5 126t183 43.5q58 0 120.5 -13t126.5 -40l-10 -179h-85l-24 116l22 -20q-35 12 -71 19.5t-68 7.5q-62 0 -106 -29t-67.5 -86t-23.5 -142q0 -118 48.5 -185t141.5 -67q28 0 59 6.5t64 18.5l-17 -30v190
l23 -25l-96 19v74l278 5v-75l-86 -23l14 25v-239q-69 -28 -134 -42t-122 -14zM512 951l46 -55l-145 -131l-80 -7l-156 138l47 55l196 -120l-97 1z" />
    <glyph glyph-name="gcaron" unicode="&#x1e7;" horiz-adv-x="574" 
d="M260 -242q-125 0 -186 33t-61 98q0 50 34.5 83.5t101.5 55.5l-2 -28q-38 3 -62 20t-24 45q0 9 3 19t11 25.5t22 38.5t35 58l2 -23q-50 23 -76 65t-26 100q0 93 63.5 145.5t176.5 52.5q81 0 138 -28l-32 6l167 6v-75l-79 -16l9 15q15 -18 23 -42t8 -55q0 -93 -65 -146.5
t-175 -53.5q-52 0 -100 14l23 14l-16 -107l-21 10h200q101 0 153 -39t52 -114q0 -86 -74.5 -131.5t-222.5 -45.5zM272 -144q80 0 115.5 17t35.5 50q0 32 -24 47t-69 15h-174l33 7q-54 -34 -54 -77q0 -29 33 -44t104 -15zM266 251q49 0 75 26t26 77t-24 74.5t-72 23.5
q-49 0 -74 -25t-25 -75q0 -49 24 -75t70 -26zM412 821l46 -52l-142 -143l-80 -7l-152 150l47 52l192 -132l-97 2z" />
    <glyph glyph-name="uni01EA" unicode="&#x1ea;" horiz-adv-x="732" 
d="M352 -12q-95 0 -164.5 40.5t-107.5 119.5t-38 195q0 93 24 163t68 116.5t104.5 70t134.5 23.5q73 0 131.5 -23t100 -67t64.5 -109.5t23 -151.5q0 -117 -42.5 -201.5t-118.5 -130t-179 -45.5zM363 98q50 0 89 24.5t62.5 82t23.5 154.5q0 90 -21.5 144.5t-59.5 78.5t-90 24
q-50 0 -89 -24t-60.5 -80t-21.5 -154q0 -90 20 -144.5t57.5 -80t89.5 -25.5zM377 -224q-56 0 -91.5 26.5t-35.5 73.5q0 32 20.5 66.5t61.5 63.5t104 46l13 -52q-46 -15 -72 -40.5t-26 -49.5q0 -21 19 -32.5t46 -11.5q9 0 18 1t18 3l8 -80q-22 -7 -43 -10.5t-40 -3.5z" />
    <glyph glyph-name="uni01EB" unicode="&#x1eb;" horiz-adv-x="577" 
d="M296 546q118 0 184 -70t66 -199q0 -90 -32 -154.5t-92 -99.5t-144 -35q-118 0 -182.5 70t-64.5 199q0 90 31.5 154.5t90.5 99.5t143 35zM289 446q-57 0 -85 -44.5t-28 -137.5t27 -134.5t82 -41.5q40 0 65 20t38 61t13 101q0 91 -28 133.5t-84 42.5zM294 -224
q-56 0 -91.5 26.5t-35.5 73.5q0 32 20.5 66.5t61.5 63.5t104 46l13 -52q-46 -15 -72 -40.5t-26 -49.5q0 -21 19 -32.5t46 -11.5q9 0 18 1t18 3l8 -80q-22 -7 -43 -10.5t-40 -3.5z" />
    <glyph glyph-name="uni01F1" unicode="&#x1f1;" horiz-adv-x="1310" 
d="M351 704q73 0 132.5 -21t101.5 -64t64.5 -106.5t22.5 -148.5q0 -119 -42.5 -200t-119 -122.5t-180.5 -41.5h-294v72l93 27l-19 -29v560l21 -29l-95 26v72l227 5h88zM337 103q32 0 64 9.5t58.5 35.5t42.5 76t16 132q0 79 -15 127.5t-40 74t-55.5 34.5t-60.5 9h-116l22 22
v-542l-22 22h106zM721 0v95l387 521l15 -17h-304l33 16l-23 -113h-85v202h520v-95l-386 -526l-5 22h319l-30 -21l20 118h86l-1 -202h-546z" />
    <glyph glyph-name="uni01F2" unicode="&#x1f2;" horiz-adv-x="1216" 
d="M351 704q73 0 132.5 -21t101.5 -64t64.5 -106.5t22.5 -148.5q0 -119 -42.5 -200t-119 -122.5t-180.5 -41.5h-294v72l93 27l-19 -29v560l21 -29l-95 26v72l227 5h88zM337 103q32 0 64 9.5t58.5 35.5t42.5 76t16 132q0 79 -15 127.5t-40 74t-55.5 34.5t-60.5 9h-116l22 22
v-542l-22 22h106zM1182 172l1 -172h-437v82l291 385l18 -27h-243l38 30l-14 -97h-85l-1 161h421v-82l-293 -396l-5 38h233l-36 -38l27 116h85z" />
    <glyph glyph-name="uni01F3" unicode="&#x1f3;" horiz-adv-x="1108" 
d="M230 -12q-58 0 -102.5 30.5t-70 90.5t-25.5 146q0 148 75 219.5t211 71.5q22 0 44 -2t46 -7l-26 -16v165l10 -14l-82 27v71l212 8v-700l-17 20l84 -26v-71l-176 -8l-18 86l14 -5q-44 -43 -87.5 -64.5t-91.5 -21.5zM284 91q26 0 55 14.5t60 42.5l-17 -42v359l17 -32
q-47 13 -85 13q-71 0 -103.5 -47.5t-32.5 -130.5q0 -54 13 -94t36.5 -61.5t56.5 -21.5zM1074 172l1 -172h-437v82l291 385l18 -27h-243l38 30l-14 -97h-85l-1 161h421v-82l-293 -396l-5 38h233l-36 -38l27 116h85z" />
    <glyph glyph-name="Aringacute" unicode="&#x1fa;" horiz-adv-x="713" 
d="M661 67l-37 33l86 -28v-72h-287v72l87 25l-14 -20l-40 130l22 -18h-264l17 17l-43 -127l-4 15l80 -22v-72h-261v72l83 26l-32 -28l236 632l147 4zM250 269l-10 19h215l-14 -22l-104 361h33zM250 964l-40 76l233 124l53 -106zM362 727q-42 0 -72 16t-46 43.5t-16 61.5
q0 35 16 62.5t47 44t74 16.5q42 0 71.5 -16t45.5 -43.5t16 -61.5q0 -33 -16 -61.5t-46.5 -45t-73.5 -16.5zM362 792q26 0 38.5 16t12.5 42q0 25 -12 40.5t-38 15.5q-25 0 -37.5 -16t-12.5 -42q0 -25 12 -40.5t37 -15.5z" />
    <glyph glyph-name="aringacute" unicode="&#x1fb;" horiz-adv-x="561" 
d="M482 71l-19 28l86 -27v-71l-175 -9l-19 96l10 -3q-40 -49 -87 -73t-97 -24q-64 0 -106 41t-42 118q0 57 24.5 90.5t71.5 48.5t114 15h109l-10 -11v66q0 47 -22.5 67t-65.5 20q-21 0 -45 -4t-52 -12l14 15l-13 -81h-87l-8 146q68 20 124.5 29.5t103.5 9.5q93 0 142 -40
t49 -124v-311zM174 161q0 -37 17.5 -54.5t44.5 -17.5q25 0 55 15.5t57 42.5l-6 -24v114l10 -10h-86q-52 0 -72 -16t-20 -50zM165 811l-40 76l233 124l53 -106zM277 574q-42 0 -72 16t-46 43.5t-16 61.5q0 35 16 62.5t47 44t74 16.5q42 0 71.5 -16t45.5 -43.5t16 -61.5
q0 -33 -16 -61.5t-46.5 -45t-73.5 -16.5zM277 639q26 0 38.5 16t12.5 42q0 25 -12 40.5t-38 15.5q-25 0 -37.5 -16t-12.5 -42q0 -25 12 -40.5t37 -15.5z" />
    <glyph glyph-name="AEacute" unicode="&#x1fc;" horiz-adv-x="942" 
d="M1 0v72l86 26l-38 -29l263 553l15 -22l-98 27v72l226 5h424v-180h-85l-21 103l26 -26h-230l22 22v-233l-22 23h232v-100h-232l22 26v-259l-22 23h242l-26 -25l22 110h85l-1 -188h-510v72l85 28l-18 -24v149l22 -23h-244l31 23l-74 -157l-8 30l88 -26v-72h-262zM281 283
l-16 19h205l-22 -19v333l22 -15h-63l28 14zM456 753l-40 76l230 128l54 -106z" />
    <glyph glyph-name="aeacute" unicode="&#x1fd;" horiz-adv-x="857" 
d="M70 365l-8 142q65 20 120 29.5t98 9.5q62 0 100 -20.5t50 -60.5l8 -21l-12 11q30 44 77 67.5t102 23.5q103 0 160.5 -63t57.5 -177q0 -23 -2 -43t-5 -34h-340l9 23l1 -14q3 -68 38 -107t92 -39q69 0 154 51l47 -76q-56 -38 -115.5 -58.5t-118.5 -20.5q-69 0 -121 31.5
t-78 88.5l35 -1q-43 -61 -102 -90.5t-115 -29.5q-46 0 -84 18.5t-61.5 54t-23.5 86.5q0 82 50 122.5t155 40.5h116l-10 -16v63q0 46 -21.5 67t-67.5 21q-20 0 -44.5 -4t-54.5 -13l12 15l-13 -77h-85zM352 132q-4 25 -6 53t-2 61l10 -17h-86q-52 0 -73 -13t-21 -52
q0 -37 21 -57t52 -20q27 0 56 14.5t56 42.5zM484 291l-11 18h215l-10 -12q1 79 -20.5 114t-66.5 35q-51 0 -78.5 -39t-28.5 -116zM360 606l-49 68l208 162l71 -96z" />
    <glyph glyph-name="Oslashacute" unicode="&#x1fe;" horiz-adv-x="735" 
d="M585 781l74 -44l-78 -124l-21 -26l-315 -500l-8 -19l-92 -147l-74 45l92 145l14 17l323 510l6 17zM354 -12q-95 0 -164.5 40.5t-107.5 119.5t-38 195q0 93 24 163t68 116.5t104.5 70t134.5 23.5q73 0 131.5 -23t100 -67t64.5 -109.5t23 -151.5q0 -117 -42.5 -201.5
t-118.5 -130t-179 -45.5zM365 98q50 0 89 24.5t62.5 82t23.5 154.5q0 90 -21.5 144.5t-59.5 78.5t-90 24q-50 0 -89 -24t-60.5 -80t-21.5 -154q0 -90 20 -144.5t57.5 -80t89.5 -25.5zM276 753l-40 76l230 128l54 -106z" />
    <glyph glyph-name="oslashacute" unicode="&#x1ff;" horiz-adv-x="581" 
d="M473 632l70 -40l-84 -134l-22 -19l-233 -373l-7 -27l-84 -135l-71 41l86 137l22 20l237 379l5 23zM299 546q119 0 185 -70t66 -199q0 -90 -32.5 -154.5t-92.5 -99.5t-144 -35q-118 0 -182.5 70t-64.5 199q0 90 31.5 154.5t90.5 99.5t143 35zM292 446q-57 0 -84.5 -44.5
t-27.5 -137.5t26.5 -134.5t81.5 -41.5q40 0 65.5 20t38 61t12.5 101q0 91 -28 133.5t-84 42.5zM222 606l-49 68l208 162l71 -96z" />
    <glyph glyph-name="uni0200" unicode="&#x200;" horiz-adv-x="713" 
d="M661 67l-37 33l86 -28v-72h-287v72l87 25l-14 -20l-40 130l22 -18h-264l17 17l-43 -127l-4 15l80 -22v-72h-261v72l83 26l-32 -28l236 632l147 4zM250 269l-10 19h215l-14 -22l-104 361h33zM269 742l72 36l-86 197l-95 -50zM434 742l74 34l-80 199l-97 -46z" />
    <glyph glyph-name="uni0201" unicode="&#x201;" horiz-adv-x="561" 
d="M482 71l-19 28l86 -27v-71l-175 -9l-19 96l10 -3q-40 -49 -87 -73t-97 -24q-64 0 -106 41t-42 118q0 57 24.5 90.5t71.5 48.5t114 15h109l-10 -11v66q0 47 -22.5 67t-65.5 20q-21 0 -45 -4t-52 -12l14 15l-13 -81h-87l-8 146q68 20 124.5 29.5t103.5 9.5q93 0 142 -40
t49 -124v-311zM174 161q0 -37 17.5 -54.5t44.5 -17.5q25 0 55 15.5t57 42.5l-6 -24v114l10 -10h-86q-52 0 -72 -16t-20 -50zM174 606l72 36l-87 197l-95 -50zM339 606l73 34l-80 199l-97 -47z" />
    <glyph glyph-name="uni0202" unicode="&#x202;" horiz-adv-x="713" 
d="M661 67l-37 33l86 -28v-72h-287v72l87 25l-14 -20l-40 130l22 -18h-264l17 17l-43 -127l-4 15l80 -22v-72h-261v72l83 26l-32 -28l236 632l147 4zM250 269l-10 19h215l-14 -22l-104 361h33zM363 927q47 0 82.5 -21t56.5 -57t22 -84l-82 -9q-4 35 -26.5 55t-56.5 20
q-33 0 -52.5 -18.5t-22.5 -50.5l-81 -4q-1 50 19 88t57 59.5t84 21.5z" />
    <glyph glyph-name="uni0203" unicode="&#x203;" horiz-adv-x="561" 
d="M482 71l-19 28l86 -27v-71l-175 -9l-19 96l10 -3q-40 -49 -87 -73t-97 -24q-64 0 -106 41t-42 118q0 57 24.5 90.5t71.5 48.5t114 15h109l-10 -11v66q0 47 -22.5 67t-65.5 20q-21 0 -45 -4t-52 -12l14 15l-13 -81h-87l-8 146q68 20 124.5 29.5t103.5 9.5q93 0 142 -40
t49 -124v-311zM174 161q0 -37 17.5 -54.5t44.5 -17.5q25 0 55 15.5t57 42.5l-6 -24v114l10 -10h-86q-52 0 -72 -16t-20 -50zM278 790q47 0 82.5 -21t56.5 -57t22 -84l-82 -9q-4 35 -26.5 55t-56.5 20q-33 0 -52.5 -18.5t-22.5 -50.5l-81 -4q-1 50 19 88t57 59.5t84 21.5z
" />
    <glyph glyph-name="uni0204" unicode="&#x204;" horiz-adv-x="609" 
d="M474 188h85l-2 -188h-521v72l93 27l-19 -29v560l18 -28l-92 25v72l214 5h296v-180h-85l-20 97l27 -20h-237l22 22v-237l-22 22h237v-99h-237l22 25v-253l-22 22h249l-27 -22zM218 742l72 36l-86 197l-95 -50zM383 742l74 34l-80 199l-97 -46z" />
    <glyph glyph-name="uni0205" unicode="&#x205;" horiz-adv-x="550" 
d="M275 -12q-73 0 -128 30.5t-85.5 91t-30.5 147.5q0 90 32.5 154.5t91.5 99.5t139 35q78 0 127 -31t72 -84.5t23 -120.5q0 -17 -1.5 -34t-4.5 -36h-366v83h246l-18 -13q1 40 -7.5 70.5t-28 47.5t-53.5 17q-39 0 -63 -22.5t-34.5 -60.5t-10.5 -85q0 -53 13 -95t42.5 -66
t77.5 -24q34 0 73.5 12.5t82.5 37.5l47 -75q-58 -40 -118.5 -59.5t-117.5 -19.5zM180 606l72 36l-87 197l-95 -50zM345 606l73 34l-80 199l-97 -47z" />
    <glyph glyph-name="uni0206" unicode="&#x206;" horiz-adv-x="609" 
d="M474 188h85l-2 -188h-521v72l93 27l-19 -29v560l18 -28l-92 25v72l214 5h296v-180h-85l-20 97l27 -20h-237l22 22v-237l-22 22h237v-99h-237l22 25v-253l-22 22h249l-27 -22zM312 927q47 0 82.5 -21t56.5 -57t22 -84l-82 -9q-4 35 -26.5 55t-56.5 20q-33 0 -52.5 -18.5
t-22.5 -50.5l-81 -4q-1 50 19 88t57 59.5t84 21.5z" />
    <glyph glyph-name="uni0207" unicode="&#x207;" horiz-adv-x="550" 
d="M275 -12q-73 0 -128 30.5t-85.5 91t-30.5 147.5q0 90 32.5 154.5t91.5 99.5t139 35q78 0 127 -31t72 -84.5t23 -120.5q0 -17 -1.5 -34t-4.5 -36h-366v83h246l-18 -13q1 40 -7.5 70.5t-28 47.5t-53.5 17q-39 0 -63 -22.5t-34.5 -60.5t-10.5 -85q0 -53 13 -95t42.5 -66
t77.5 -24q34 0 73.5 12.5t82.5 37.5l47 -75q-58 -40 -118.5 -59.5t-117.5 -19.5zM284 790q47 0 82.5 -21t56.5 -57t22 -84l-82 -9q-4 35 -26.5 55t-56.5 20q-33 0 -52.5 -18.5t-22.5 -50.5l-81 -4q-1 50 19 88t57 59.5t84 21.5z" />
    <glyph glyph-name="uni0208" unicode="&#x208;" horiz-adv-x="362" 
d="M326 632l-88 -30l15 22v-547l-15 21l88 -26v-72h-290v72l87 25l-13 -20v547l18 -22l-92 25v72l290 5v-72zM87 742l72 36l-86 197l-95 -50zM252 742l74 34l-80 199l-97 -46z" />
    <glyph glyph-name="uni0209" unicode="&#x209;" horiz-adv-x="318" 
d="M236 82l-10 12l77 -22v-72h-274v72l77 22l-10 -12v365l9 -9l-76 21v72l207 7v-456zM60 606l72 36l-87 197l-95 -50zM225 606l73 34l-80 199l-97 -47z" />
    <glyph glyph-name="uni020A" unicode="&#x20a;" horiz-adv-x="362" 
d="M326 632l-88 -30l15 22v-547l-15 21l88 -26v-72h-290v72l87 25l-13 -20v547l18 -22l-92 25v72l290 5v-72zM181 927q47 0 82.5 -21t56.5 -57t22 -84l-82 -9q-4 35 -26.5 55t-56.5 20q-33 0 -52.5 -18.5t-22.5 -50.5l-81 -4q-1 50 19 88t57 59.5t84 21.5z" />
    <glyph glyph-name="uni020B" unicode="&#x20b;" horiz-adv-x="318" 
d="M236 82l-10 12l77 -22v-72h-274v72l77 22l-10 -12v365l9 -9l-76 21v72l207 7v-456zM163 790q47 0 82.5 -21t56.5 -57t22 -84l-82 -9q-4 35 -26.5 55t-56.5 20q-33 0 -52.5 -18.5t-22.5 -50.5l-81 -4q-1 50 19 88t57 59.5t84 21.5z" />
    <glyph glyph-name="uni020C" unicode="&#x20c;" horiz-adv-x="732" 
d="M352 -12q-95 0 -164.5 40.5t-107.5 119.5t-38 195q0 93 24 163t68 116.5t104.5 70t134.5 23.5q73 0 131.5 -23t100 -67t64.5 -109.5t23 -151.5q0 -117 -42.5 -201.5t-118.5 -130t-179 -45.5zM363 98q50 0 89 24.5t62.5 82t23.5 154.5q0 90 -21.5 144.5t-59.5 78.5t-90 24
q-50 0 -89 -24t-60.5 -80t-21.5 -154q0 -90 20 -144.5t57.5 -80t89.5 -25.5zM275 742l72 36l-86 197l-95 -50zM440 742l74 34l-80 199l-97 -46z" />
    <glyph glyph-name="uni020D" unicode="&#x20d;" horiz-adv-x="577" 
d="M296 546q118 0 184 -70t66 -199q0 -90 -32 -154.5t-92 -99.5t-144 -35q-118 0 -182.5 70t-64.5 199q0 90 31.5 154.5t90.5 99.5t143 35zM289 446q-57 0 -85 -44.5t-28 -137.5t27 -134.5t82 -41.5q40 0 65 20t38 61t13 101q0 91 -28 133.5t-84 42.5zM185 606l72 36
l-87 197l-95 -50zM350 606l73 34l-80 199l-97 -47z" />
    <glyph glyph-name="uni020E" unicode="&#x20e;" horiz-adv-x="732" 
d="M352 -12q-95 0 -164.5 40.5t-107.5 119.5t-38 195q0 93 24 163t68 116.5t104.5 70t134.5 23.5q73 0 131.5 -23t100 -67t64.5 -109.5t23 -151.5q0 -117 -42.5 -201.5t-118.5 -130t-179 -45.5zM363 98q50 0 89 24.5t62.5 82t23.5 154.5q0 90 -21.5 144.5t-59.5 78.5t-90 24
q-50 0 -89 -24t-60.5 -80t-21.5 -154q0 -90 20 -144.5t57.5 -80t89.5 -25.5zM369 927q47 0 82.5 -21t56.5 -57t22 -84l-82 -9q-4 35 -26.5 55t-56.5 20q-33 0 -52.5 -18.5t-22.5 -50.5l-81 -4q-1 50 19 88t57 59.5t84 21.5z" />
    <glyph glyph-name="uni020F" unicode="&#x20f;" horiz-adv-x="577" 
d="M296 546q118 0 184 -70t66 -199q0 -90 -32 -154.5t-92 -99.5t-144 -35q-118 0 -182.5 70t-64.5 199q0 90 31.5 154.5t90.5 99.5t143 35zM289 446q-57 0 -85 -44.5t-28 -137.5t27 -134.5t82 -41.5q40 0 65 20t38 61t13 101q0 91 -28 133.5t-84 42.5zM288 790
q47 0 82.5 -21t56.5 -57t22 -84l-82 -9q-4 35 -26.5 55t-56.5 20q-33 0 -52.5 -18.5t-22.5 -50.5l-81 -4q-1 50 19 88t57 59.5t84 21.5z" />
    <glyph glyph-name="uni0210" unicode="&#x210;" horiz-adv-x="667" 
d="M36 0v72l92 26l-18 -28v560l25 -30l-99 27v72l223 5h97q120 0 181 -50t61 -144q0 -84 -51.5 -139t-161.5 -67l1 16q39 -1 64 -12t41.5 -30.5t30.5 -46.5l80 -154l-41 25l92 -30v-72h-164l-90 193q-18 38 -31 58.5t-32 28t-55 6.5h-52l24 20v-236l-19 29l101 -27v-72h-299
zM253 350l-24 35h83q70 0 105 29t35 86q0 48 -28 75t-86 27h-109l24 22v-274zM223 742l72 36l-86 197l-95 -50zM388 742l74 34l-80 199l-97 -46z" />
    <glyph glyph-name="uni0211" unicode="&#x211;" horiz-adv-x="470" 
d="M29 0v72l81 23l-14 -21v384l16 -24l-83 25v72l176 8l18 -95l-18 4q45 47 89 72.5t94 25.5q32 0 68 -10l-9 -185h-81l-15 108l13 -27q-6 2 -12.5 3t-12.5 1q-31 0 -61.5 -19t-52.5 -49l11 38v-332l-16 21l99 -23v-72h-290zM133 606l72 36l-87 197l-95 -50zM298 606l73 34
l-80 199l-97 -47z" />
    <glyph glyph-name="uni0212" unicode="&#x212;" horiz-adv-x="667" 
d="M36 0v72l92 26l-18 -28v560l25 -30l-99 27v72l223 5h97q120 0 181 -50t61 -144q0 -84 -51.5 -139t-161.5 -67l1 16q39 -1 64 -12t41.5 -30.5t30.5 -46.5l80 -154l-41 25l92 -30v-72h-164l-90 193q-18 38 -31 58.5t-32 28t-55 6.5h-52l24 20v-236l-19 29l101 -27v-72h-299
zM253 350l-24 35h83q70 0 105 29t35 86q0 48 -28 75t-86 27h-109l24 22v-274zM317 927q47 0 82.5 -21t56.5 -57t22 -84l-82 -9q-4 35 -26.5 55t-56.5 20q-33 0 -52.5 -18.5t-22.5 -50.5l-81 -4q-1 50 19 88t57 59.5t84 21.5z" />
    <glyph glyph-name="uni0213" unicode="&#x213;" horiz-adv-x="470" 
d="M29 0v72l81 23l-14 -21v384l16 -24l-83 25v72l176 8l18 -95l-18 4q45 47 89 72.5t94 25.5q32 0 68 -10l-9 -185h-81l-15 108l13 -27q-6 2 -12.5 3t-12.5 1q-31 0 -61.5 -19t-52.5 -49l11 38v-332l-16 21l99 -23v-72h-290zM236 790q47 0 82.5 -21t56.5 -57t22 -84l-82 -9
q-4 35 -26.5 55t-56.5 20q-33 0 -52.5 -18.5t-22.5 -50.5l-81 -4q-1 50 19 88t57 59.5t84 21.5z" />
    <glyph glyph-name="uni0214" unicode="&#x214;" horiz-adv-x="742" 
d="M434 699l290 5v-72l-89 -30l16 36v-363q0 -51 -9.5 -94.5t-30.5 -79t-54 -61t-80.5 -39t-109.5 -13.5q-83 0 -135 20.5t-81 53t-41.5 70t-15 72t-2.5 58.5v375l16 -34l-90 24v72l290 5v-72l-87 -30l14 35v-375q0 -26 2.5 -50.5t9.5 -45t21.5 -36t39 -24t61.5 -8.5
q38 0 63 9t40.5 25.5t23 38.5t10 48.5t2.5 55.5v363l13 -33l-87 22v72zM279 742l72 36l-86 197l-95 -50zM444 742l74 34l-80 199l-97 -46z" />
    <glyph glyph-name="uni0215" unicode="&#x215;" horiz-adv-x="631" 
d="M233 -12q-67 0 -112 43.5t-45 131.5v292l13 -20l-79 24v72l206 7v-352q0 -47 21 -69.5t56 -22.5q27 0 59.5 14.5t64.5 45.5l-10 -25v329l13 -23l-79 24v72l206 7v-464l-17 24l84 -26v-71l-176 -8l-19 98l20 -7q-50 -48 -103.5 -72t-102.5 -24zM202 606l72 36l-87 197
l-95 -50zM367 606l73 34l-80 199l-97 -47z" />
    <glyph glyph-name="uni0216" unicode="&#x216;" horiz-adv-x="742" 
d="M434 699l290 5v-72l-89 -30l16 36v-363q0 -51 -9.5 -94.5t-30.5 -79t-54 -61t-80.5 -39t-109.5 -13.5q-83 0 -135 20.5t-81 53t-41.5 70t-15 72t-2.5 58.5v375l16 -34l-90 24v72l290 5v-72l-87 -30l14 35v-375q0 -26 2.5 -50.5t9.5 -45t21.5 -36t39 -24t61.5 -8.5
q38 0 63 9t40.5 25.5t23 38.5t10 48.5t2.5 55.5v363l13 -33l-87 22v72zM373 927q47 0 82.5 -21t56.5 -57t22 -84l-82 -9q-4 35 -26.5 55t-56.5 20q-33 0 -52.5 -18.5t-22.5 -50.5l-81 -4q-1 50 19 88t57 59.5t84 21.5z" />
    <glyph glyph-name="uni0217" unicode="&#x217;" horiz-adv-x="631" 
d="M233 -12q-67 0 -112 43.5t-45 131.5v292l13 -20l-79 24v72l206 7v-352q0 -47 21 -69.5t56 -22.5q27 0 59.5 14.5t64.5 45.5l-10 -25v329l13 -23l-79 24v72l206 7v-464l-17 24l84 -26v-71l-176 -8l-19 98l20 -7q-50 -48 -103.5 -72t-102.5 -24zM305 790q47 0 82.5 -21
t56.5 -57t22 -84l-82 -9q-4 35 -26.5 55t-56.5 20q-33 0 -52.5 -18.5t-22.5 -50.5l-81 -4q-1 50 19 88t57 59.5t84 21.5z" />
    <glyph glyph-name="uni0218" unicode="&#x218;" horiz-adv-x="601" 
d="M195 527q0 -29 20 -48t52 -32.5t71 -26t77 -28t70.5 -39t52 -59.5t19.5 -90q0 -74 -38.5 -122t-102.5 -71.5t-142 -23.5q-53 0 -108.5 10.5t-109.5 31.5l5 190h83l21 -121l-13 24q30 -14 63.5 -21.5t65.5 -7.5q37 0 68 10t49 31t18 52t-19 51t-51.5 33.5t-70.5 25
t-76.5 26.5t-71 38t-51.5 58.5t-19 89.5q0 71 34 116.5t92 68.5t131 23q52 0 108 -11t112 -33l-11 -175h-85l-21 109l16 -16q-25 10 -53.5 15.5t-57.5 5.5q-34 0 -63 -8.5t-46.5 -27t-17.5 -48.5zM265 -321l-46 32q22 36 30 54.5t8 30.5t-6.5 22t-13.5 23t-7 33
q0 34 22 51.5t49 17.5t49.5 -18.5t22.5 -54.5q0 -37 -24 -83t-84 -108z" />
    <glyph glyph-name="uni0219" unicode="&#x219;" horiz-adv-x="504" 
d="M183 399q0 -23 20 -37t51.5 -24t67 -21t67 -28.5t51.5 -46.5t20 -75q0 -59 -32 -99t-87 -60t-124 -20q-40 0 -84.5 7t-91.5 19l6 151h88l11 -88l-12 17q20 -6 44 -9.5t42 -3.5q26 0 48.5 7t37 20.5t14.5 34.5q0 24 -20 38t-51.5 24t-66 21t-66 29t-51.5 48t-20 78
q0 58 29 94.5t77.5 53.5t106.5 17q41 0 87 -7.5t94 -21.5l-5 -134h-89l-16 79l19 -21q-47 13 -83 13q-37 0 -59.5 -14.5t-22.5 -40.5zM210 -321l-46 32q22 36 30 54.5t8 30.5t-6.5 22t-13.5 23t-7 33q0 34 22 51.5t49 17.5t49.5 -18.5t22.5 -54.5q0 -37 -24 -83t-84 -108z
" />
    <glyph glyph-name="uni021A" unicode="&#x21a;" horiz-adv-x="612" 
d="M149 0v72l111 28l-26 -36v559l29 -22h-163l32 28l-27 -127h-85v202h572v-202h-85l-25 121l30 -22h-163l29 22v-559l-25 36l110 -28v-72h-314zM265 -321l-46 32q22 36 30 54.5t8 30.5t-6.5 22t-13.5 23t-7 33q0 34 22 51.5t49 17.5t49.5 -18.5t22.5 -54.5q0 -37 -24 -83
t-84 -108z" />
    <glyph glyph-name="uni021B" unicode="&#x21b;" horiz-adv-x="395" 
d="M224 -12q-69 0 -104.5 41.5t-35.5 123.5v306l18 -18h-96v75l98 23l-20 -24v136l141 25v-161l-15 19h152l-2 -93h-150l15 18v-287q0 -43 14 -62t42 -19q16 0 35.5 5.5t42.5 14.5l26 -77q-84 -46 -161 -46zM160 -321l-46 32q22 36 30 54.5t8 30.5t-6.5 22t-13.5 23t-7 33
q0 34 22 51.5t49 17.5t49.5 -18.5t22.5 -54.5q0 -37 -24 -83t-84 -108z" />
    <glyph glyph-name="uni022A" unicode="&#x22a;" horiz-adv-x="732" 
d="M352 -12q-95 0 -164.5 40.5t-107.5 119.5t-38 195q0 93 24 163t68 116.5t104.5 70t134.5 23.5q73 0 131.5 -23t100 -67t64.5 -109.5t23 -151.5q0 -117 -42.5 -201.5t-118.5 -130t-179 -45.5zM363 98q50 0 89 24.5t62.5 82t23.5 154.5q0 90 -21.5 144.5t-59.5 78.5t-90 24
q-50 0 -89 -24t-60.5 -80t-21.5 -154q0 -90 20 -144.5t57.5 -80t89.5 -25.5zM479 752q-33 0 -51 19.5t-18 54.5q-1 35 19.5 55t49.5 20q33 0 52 -20t19 -55t-20.5 -54.5t-50.5 -19.5zM259 752q-32 0 -50 19.5t-19 54.5t19.5 55t49.5 20q33 0 52 -20t19 -55t-21 -54.5
t-50 -19.5zM520 1036v-97h-300v97h300z" />
    <glyph glyph-name="uni022B" unicode="&#x22b;" horiz-adv-x="577" 
d="M296 546q118 0 184 -70t66 -199q0 -90 -32 -154.5t-92 -99.5t-144 -35q-118 0 -182.5 70t-64.5 199q0 90 31.5 154.5t90.5 99.5t143 35zM289 446q-57 0 -85 -44.5t-28 -137.5t27 -134.5t82 -41.5q40 0 65 20t38 61t13 101q0 91 -28 133.5t-84 42.5zM397 594
q-33 0 -51 19.5t-18 54.5q-1 35 19.5 55t49.5 20q33 0 52 -20t19 -55t-20.5 -54.5t-50.5 -19.5zM177 594q-32 0 -50 19.5t-19 54.5t19.5 55t49.5 20q33 0 52 -20t19 -55t-21 -54.5t-50 -19.5zM439 878v-97h-300v97h300z" />
    <glyph glyph-name="uni022C" unicode="&#x22c;" horiz-adv-x="732" 
d="M352 -12q-95 0 -164.5 40.5t-107.5 119.5t-38 195q0 93 24 163t68 116.5t104.5 70t134.5 23.5q73 0 131.5 -23t100 -67t64.5 -109.5t23 -151.5q0 -117 -42.5 -201.5t-118.5 -130t-179 -45.5zM363 98q50 0 89 24.5t62.5 82t23.5 154.5q0 90 -21.5 144.5t-59.5 78.5t-90 24
q-50 0 -89 -24t-60.5 -80t-21.5 -154q0 -90 20 -144.5t57.5 -80t89.5 -25.5zM240 741l-58 26q19 61 45.5 87.5t62.5 26.5q27 0 53 -10.5t50.5 -21.5t43.5 -11q18 0 32 11t29 35l59 -26q-20 -61 -48.5 -88t-66.5 -27q-25 0 -51 11t-50 21.5t-44 10.5q-16 0 -29 -11t-28 -34z
M514 1017v-97h-300v97h300z" />
    <glyph glyph-name="uni022D" unicode="&#x22d;" horiz-adv-x="577" 
d="M296 546q118 0 184 -70t66 -199q0 -90 -32 -154.5t-92 -99.5t-144 -35q-118 0 -182.5 70t-64.5 199q0 90 31.5 154.5t90.5 99.5t143 35zM289 446q-57 0 -85 -44.5t-28 -137.5t27 -134.5t82 -41.5q40 0 65 20t38 61t13 101q0 91 -28 133.5t-84 42.5zM158 591l-58 26
q19 61 45.5 87.5t62.5 26.5q27 0 53 -10.5t50.5 -21.5t43.5 -11q18 0 32 11t29 35l59 -26q-20 -61 -48.5 -88t-66.5 -27q-25 0 -51 11t-50 21.5t-44 10.5q-16 0 -29 -11t-28 -34zM438 876v-97h-300v97h300z" />
    <glyph glyph-name="uni0230" unicode="&#x230;" horiz-adv-x="732" 
d="M352 -12q-95 0 -164.5 40.5t-107.5 119.5t-38 195q0 93 24 163t68 116.5t104.5 70t134.5 23.5q73 0 131.5 -23t100 -67t64.5 -109.5t23 -151.5q0 -117 -42.5 -201.5t-118.5 -130t-179 -45.5zM363 98q50 0 89 24.5t62.5 82t23.5 154.5q0 90 -21.5 144.5t-59.5 78.5t-90 24
q-50 0 -89 -24t-60.5 -80t-21.5 -154q0 -90 20 -144.5t57.5 -80t89.5 -25.5zM370 746q-37 0 -59.5 21t-22.5 60q0 42 23.5 62.5t59.5 20.5q35 0 58 -20.5t23 -61.5t-23.5 -61.5t-58.5 -20.5zM520 1036v-97h-300v97h300z" />
    <glyph glyph-name="uni0231" unicode="&#x231;" horiz-adv-x="577" 
d="M296 546q118 0 184 -70t66 -199q0 -90 -32 -154.5t-92 -99.5t-144 -35q-118 0 -182.5 70t-64.5 199q0 90 31.5 154.5t90.5 99.5t143 35zM289 446q-57 0 -85 -44.5t-28 -137.5t27 -134.5t82 -41.5q40 0 65 20t38 61t13 101q0 91 -28 133.5t-84 42.5zM438 887v-97h-300v97
h300zM288 590q-37 0 -59.5 21t-22.5 60q0 42 23.5 62.5t59.5 20.5q35 0 58 -20.5t23 -61.5t-23.5 -61.5t-58.5 -20.5z" />
    <glyph glyph-name="uni0232" unicode="&#x232;" horiz-adv-x="648" 
d="M173 0v72l96 28l-19 -30v207l12 -49l-207 397l26 -22l-79 24v72l279 5v-72l-89 -24l11 25l144 -305h-27l146 299l11 -25l-92 25v72l260 5v-72l-80 -24l28 21l-211 -401l11 49v-207l-20 30l96 -28v-72h-296zM478 883v-97h-300v97h300z" />
    <glyph glyph-name="uni0233" unicode="&#x233;" horiz-adv-x="556" 
d="M8 -235l13 99q16 -2 29.5 -3t25.5 -1q44 0 71.5 17.5t48 54t40.5 94.5l-5 -47l-192 477l13 -12l-58 14v72l249 8v-71l-70 -19l7 12l127 -374l-34 7l113 365l7 -14l-69 14v72l236 8v-71l-63 -20l19 12l-165 -457q-21 -58 -45 -103t-54.5 -76.5t-71 -48t-94.5 -16.5
q-35 0 -78 7zM429 758v-97h-300v97h300z" />
    <glyph glyph-name="uni0237" unicode="&#x237;" horiz-adv-x="291" 
d="M7 -242q-16 0 -32 2t-34 5l10 99q11 -1 21 -2t19 -1q49 0 70.5 22t21.5 76v493l13 -16l-80 23v72l207 7v-537q0 -66 -15.5 -112t-43.5 -75t-68 -42.5t-89 -13.5z" />
    <glyph glyph-name="uni0259" unicode="&#x259;" horiz-adv-x="548" 
d="M275 546q73 0 127.5 -30.5t85 -90.5t30.5 -148q0 -89 -32 -154t-91 -100t-140 -35q-77 0 -126 31t-72.5 84.5t-23.5 120.5q0 18 2 37.5t4 39.5h366l-1 -84h-251l25 25q-1 -45 6.5 -80t27.5 -54.5t55 -19.5q39 0 62.5 22.5t34 60.5t10.5 84q0 55 -13 97t-42 66.5t-77 24.5
q-33 0 -73.5 -12.5t-82.5 -38.5l-47 75q58 40 118 59.5t118 19.5z" />
    <glyph glyph-name="uni02BB" unicode="&#x2bb;" horiz-adv-x="202" 
d="M180 679q0 -36 -22 -54.5t-49 -18.5q-28 0 -51 20.5t-23 61.5q0 38 26.5 95t92.5 129l47 -31q-29 -51 -39.5 -77t-10.5 -39t7.5 -25t14.5 -26t7 -35z" />
    <glyph glyph-name="uni02BC" unicode="&#x2bc;" horiz-adv-x="225" 
d="M46 718q0 36 22 54t49 18q28 0 51 -20t23 -61q0 -38 -26 -95t-93 -129l-47 31q30 51 40 77.5t10 38.5q0 13 -7.5 24.5t-14.5 26t-7 35.5z" />
    <glyph glyph-name="uni02BE" unicode="&#x2be;" horiz-adv-x="237" 
d="M52 604v65q27 0 39 16.5t12 40.5t-11.5 40t-37.5 16l1 65q45 0 74 -16.5t44 -44t15 -59.5t-15.5 -60.5t-45.5 -45.5t-75 -17z" />
    <glyph glyph-name="uni02BF" unicode="&#x2bf;" horiz-adv-x="232" 
d="M182 604q-42 0 -72 15.5t-46 43t-16 61.5q0 35 15.5 62.5t46 44t72.5 16.5v-65q-25 0 -37 -16t-12 -41t12 -40.5t37 -15.5v-65z" />
    <glyph glyph-name="circumflex" unicode="&#x2c6;" horiz-adv-x="515" 
d="M116 620l-46 51l143 143l80 7l154 -150l-48 -51l-193 131l97 -1z" />
    <glyph glyph-name="caron" unicode="&#x2c7;" horiz-adv-x="399" 
d="M339 821l46 -52l-142 -143l-80 -7l-152 150l47 52l192 -132l-97 2z" />
    <glyph glyph-name="uni02C8" unicode="&#x2c8;" horiz-adv-x="246" 
d="M69 606v260h108v-260h-108z" />
    <glyph glyph-name="uni02C9" unicode="&#x2c9;" horiz-adv-x="428" 
d="M364 758v-97h-300v97h300z" />
    <glyph glyph-name="uni02CA" unicode="&#x2ca;" horiz-adv-x="350" 
d="M90 606l-49 68l208 162l71 -96z" />
    <glyph glyph-name="uni02CB" unicode="&#x2cb;" horiz-adv-x="352" 
d="M103 839l208 -161l-53 -72l-228 135z" />
    <glyph glyph-name="uni02CC" unicode="&#x2cc;" horiz-adv-x="246" 
d="M69 -315v260h108v-260h-108z" />
    <glyph glyph-name="breve" unicode="&#x2d8;" horiz-adv-x="399" 
d="M199 623q-46 0 -82 21t-57 57.5t-22 83.5l83 9q4 -34 26 -54.5t56 -20.5q33 0 53 18.5t23 50.5l80 4q2 -49 -18.5 -87.5t-57 -60t-84.5 -21.5z" />
    <glyph glyph-name="dotaccent" unicode="&#x2d9;" horiz-adv-x="238" 
d="M114 616q-37 0 -59.5 21t-22.5 60q0 42 23.5 62.5t59.5 20.5q35 0 58 -20.5t23 -61.5t-23.5 -61.5t-58.5 -20.5z" />
    <glyph glyph-name="ring" unicode="&#x2da;" horiz-adv-x="366" 
d="M181 605q-42 0 -71.5 16t-45.5 43.5t-16 61.5q0 35 16 62.5t46.5 44t74.5 16.5q42 0 71.5 -16t45 -43.5t15.5 -61.5q0 -33 -16 -61.5t-46 -45t-74 -16.5zM182 670q26 0 38.5 16t12.5 42q0 25 -12.5 40.5t-37.5 15.5t-38 -16t-13 -42q0 -25 12 -40.5t38 -15.5z" />
    <glyph glyph-name="ogonek" unicode="&#x2db;" horiz-adv-x="310" 
d="M156 -224q-62 0 -95 29.5t-33 70.5q0 32 21.5 69t67 68t117.5 44l23 -57q-61 -11 -94.5 -35.5t-33.5 -51.5q0 -24 19.5 -35.5t50.5 -11.5q11 0 22 1.5t22 2.5l8 -77q-26 -9 -50 -13t-45 -4z" />
    <glyph glyph-name="tilde" unicode="&#x2dc;" horiz-adv-x="489" 
d="M318 641q-28 0 -51 12t-44.5 24t-44.5 12q-19 0 -34.5 -11.5t-30.5 -35.5l-59 26q20 61 49.5 92t66.5 31q29 0 52.5 -12t45 -24t43.5 -12q20 0 35 11.5t30 35.5l60 -24q-20 -62 -49.5 -93.5t-68.5 -31.5z" />
    <glyph glyph-name="hungarumlaut" unicode="&#x2dd;" horiz-adv-x="424" 
d="M276 606l-72 36l86 197l95 -50zM111 606l-73 34l80 199l96 -47z" />
    <glyph glyph-name="gravecomb" unicode="&#x300;" 
d="M103 839l208 -161l-53 -72l-228 135z" />
    <glyph glyph-name="acutecomb" unicode="&#x301;" 
d="M107 606l-49 68l208 162l71 -96z" />
    <glyph glyph-name="uni0302" unicode="&#x302;" 
d="M116 620l-46 51l143 143l80 7l154 -150l-48 -51l-193 131l97 -1z" />
    <glyph glyph-name="tildecomb" unicode="&#x303;" 
d="M314 641q-28 0 -51 12t-44.5 24t-44.5 12q-19 0 -34.5 -11.5t-30.5 -35.5l-59 26q20 61 49.5 92t66.5 31q29 0 52.5 -12t45 -24t43.5 -12q20 0 35 11.5t30 35.5l60 -24q-20 -62 -49.5 -93.5t-68.5 -31.5z" />
    <glyph glyph-name="uni0304" unicode="&#x304;" 
d="M364 758v-97h-300v97h300z" />
    <glyph glyph-name="uni0306" unicode="&#x306;" 
d="M199 623q-46 0 -82 21t-57 57.5t-22 83.5l83 9q4 -34 26 -54.5t56 -20.5q33 0 53 18.5t23 50.5l80 4q2 -49 -18.5 -87.5t-57 -60t-84.5 -21.5z" />
    <glyph glyph-name="uni0307" unicode="&#x307;" 
d="M114 616q-37 0 -59.5 21t-22.5 60q0 42 23.5 62.5t59.5 20.5q35 0 58 -20.5t23 -61.5t-23.5 -61.5t-58.5 -20.5z" />
    <glyph glyph-name="uni0308" unicode="&#x308;" 
d="M342 624q-33 0 -51 19.5t-18 54.5q-1 35 19.5 55t49.5 20q33 0 52 -20t19 -55t-20.5 -54.5t-50.5 -19.5zM122 624q-32 0 -50 19.5t-19 54.5t19.5 55t49.5 20q33 0 52 -20t19 -55t-21 -54.5t-50 -19.5z" />
    <glyph glyph-name="hookabovecomb" unicode="&#x309;" 
d="M78 599v86q36 2 55.5 12.5t19.5 30.5q0 18 -13 25t-33 7q-14 0 -30 -2.5t-32 -7.5l-17 63q25 10 51 14.5t51 4.5q53 0 89.5 -23t36.5 -74q0 -34 -21 -58.5t-69 -33.5v-44h-88z" />
    <glyph glyph-name="uni030A" unicode="&#x30a;" 
d="M181 605q-42 0 -71.5 16t-45.5 43.5t-16 61.5q0 35 16 62.5t46.5 44t74.5 16.5q42 0 71.5 -16t45 -43.5t15.5 -61.5q0 -33 -16 -61.5t-46 -45t-74 -16.5zM182 670q26 0 38.5 16t12.5 42q0 25 -12.5 40.5t-37.5 15.5t-38 -16t-13 -42q0 -25 12 -40.5t38 -15.5z" />
    <glyph glyph-name="uni030B" unicode="&#x30b;" 
d="M276 606l-72 36l86 197l95 -50zM111 606l-73 34l80 199l96 -47z" />
    <glyph glyph-name="uni030C" unicode="&#x30c;" 
d="M339 821l46 -52l-142 -143l-80 -7l-152 150l47 52l192 -132l-97 2z" />
    <glyph glyph-name="uni030F" unicode="&#x30f;" 
d="M151 606l72 36l-87 197l-95 -50zM316 606l73 34l-80 199l-97 -47z" />
    <glyph glyph-name="uni0311" unicode="&#x311;" 
d="M200 790q47 0 82.5 -21t56.5 -57t22 -84l-82 -9q-4 35 -26.5 55t-56.5 20q-33 0 -52.5 -18.5t-22.5 -50.5l-81 -4q-1 50 19 88t57 59.5t84 21.5z" />
    <glyph glyph-name="uni0312" unicode="&#x312;" 
d="M148 879l46 -31q-21 -36 -29.5 -54.5t-8.5 -31.5q0 -11 6.5 -21.5t13.5 -23t7 -33.5q0 -34 -22 -51t-49 -17t-49.5 18t-22.5 55q0 36 24 82.5t84 107.5z" />
    <glyph glyph-name="uni031B" unicode="&#x31b;" 
d="M41 469l-6 66q34 2 48.5 14.5t14.5 38.5q0 29 -16 74l101 23q14 -28 20.5 -53t6.5 -47q0 -58 -44 -89t-125 -27z" />
    <glyph glyph-name="dotbelowcomb" unicode="&#x323;" 
d="M114 -219q-37 0 -59.5 21t-22.5 60q0 42 23.5 62.5t59.5 20.5q35 0 58 -20.5t23 -61.5t-23.5 -61.5t-58.5 -20.5z" />
    <glyph glyph-name="uni0324" unicode="&#x324;" 
d="M343 -206q-33 0 -51 19.5t-18 54.5q-1 35 19.5 55t49.5 20q33 0 52 -20t19 -55t-20.5 -54.5t-50.5 -19.5zM123 -206q-32 0 -50 19.5t-19 54.5t19.5 55t49.5 20q33 0 52 -20t19 -55t-21 -54.5t-50 -19.5z" />
    <glyph glyph-name="uni0326" unicode="&#x326;" 
d="M82 -321l-46 32q22 36 30 54.5t8 30.5t-6.5 22t-13.5 23t-7 33q0 34 22 51.5t49 17.5t49.5 -18.5t22.5 -54.5q0 -37 -24 -83t-84 -108z" />
    <glyph glyph-name="uni0327" unicode="&#x327;" 
d="M144 -254q-27 0 -55.5 6t-53.5 19l26 67q19 -7 41.5 -12t40.5 -5q21 0 34.5 8t13.5 23q0 13 -14 22t-37.5 13.5t-51.5 5.5l6 107h83v-49q58 -6 86 -31.5t28 -62.5t-20.5 -61.5t-54 -37t-72.5 -12.5z" />
    <glyph glyph-name="uni0328" unicode="&#x328;" 
d="M156 -224q-62 0 -95 29.5t-33 70.5q0 32 21.5 69t67 68t117.5 44l23 -57q-61 -11 -94.5 -35.5t-33.5 -51.5q0 -24 19.5 -35.5t50.5 -11.5q11 0 22 1.5t22 2.5l8 -77q-26 -9 -50 -13t-45 -4z" />
    <glyph glyph-name="uni032E" unicode="&#x32e;" 
d="M199 -237q-46 0 -82 21t-57 57.5t-22 83.5l83 9q4 -34 26 -54.5t56 -20.5q33 0 53 18.5t23 50.5l80 4q2 -49 -18.5 -87.5t-57 -60t-84.5 -21.5z" />
    <glyph glyph-name="uni0331" unicode="&#x331;" 
d="M365 -88v-97h-300v97h300z" />
    <glyph glyph-name="uni0335" unicode="&#x335;" 
d="M53 259v79h392v-79h-392z" />
    <glyph glyph-name="Gamma" unicode="&#x393;" horiz-adv-x="562" 
d="M36 0v72l89 26l-15 -21v553l20 -29l-94 26v72l214 5h289l1 -206h-85l-25 118l31 -15h-230l22 22v-546l-18 21l108 -26v-72h-307z" />
    <glyph glyph-name="uni0394" unicode="&#x394;" horiz-adv-x="679" 
d="M403 706l247 -614v-92h-621v92l249 614h125zM574 100l-50 -56l-226 577h61l-228 -577l-43 56h486z" />
    <glyph glyph-name="Pi" unicode="&#x3a0;" horiz-adv-x="774" 
d="M36 0v72l93 27l-19 -29v560l23 -30l-97 27v72l217 5h485v-72l-93 -31l20 30v-561l-20 29l93 -27v-72h-290v72l92 27l-19 -29v564l23 -33h-313l22 33v-564l-18 29l91 -27v-72h-290z" />
    <glyph glyph-name="uni03A9" unicode="&#x3a9;" horiz-adv-x="793" 
d="M71 0v100h191l-24 -21q-53 29 -90 71.5t-57 96.5t-20 117q0 78 23.5 142.5t67.5 111.5t105 72.5t135 25.5q73 0 132 -24t101 -68.5t64 -106t22 -136.5q0 -68 -21.5 -126t-63.5 -102.5t-101 -72.5l-9 20h195v-100h-283v77q39 30 68 71t45 96t16 125q0 79 -21 131.5t-59 79
t-91 26.5q-52 0 -90.5 -27t-59.5 -81t-21 -135q0 -70 16 -124t45 -94t69 -68v-77h-284z" />
    <glyph glyph-name="uni03BC" unicode="&#x3bc;" horiz-adv-x="658" 
d="M138 111l32 -52q9 -31 21.5 -71.5t22 -94t9.5 -123.5h-140v686l13 -21l-80 24v72l207 6v-357q0 -44 20 -65t54 -21q28 0 61 15.5t65 46.5l-9 -23v325l13 -23l-80 24v72l207 6v-463l-17 24l83 -26v-71l-175 -8l-19 98l14 -7q-44 -47 -91 -71.5t-88 -24.5q-46 0 -79 29.5
t-44 93.5z" />
    <glyph glyph-name="pi" unicode="&#x3c0;" horiz-adv-x="652" 
d="M29 0v72l94 27l-27 -42v420l36 -51l-103 33v72l204 3h373v-71l-94 -34l27 51v-284q0 -51 11.5 -77.5t46.5 -26.5q16 0 37 7l12 -90q-59 -21 -105 -21q-70 0 -106 48.5t-36 139.5v291l36 -36h-235l36 36v-410l-23 42l86 -27v-72h-270z" />
    <glyph glyph-name="uni0400" unicode="&#x400;" horiz-adv-x="609" 
d="M474 188h85l-2 -188h-521v72l93 27l-19 -29v560l18 -28l-92 25v72l214 5h296v-180h-85l-20 97l27 -20h-237l22 22v-237l-22 22h237v-99h-237l22 25v-253l-22 22h249l-27 -22zM415 753l-246 98l55 106l229 -128z" />
    <glyph glyph-name="uni0401" unicode="&#x401;" horiz-adv-x="609" 
d="M474 188h85l-2 -188h-521v72l93 27l-19 -29v560l18 -28l-92 25v72l214 5h296v-180h-85l-20 97l27 -20h-237l22 22v-237l-22 22h237v-99h-237l22 25v-253l-22 22h249l-27 -22zM421 762q-33 0 -51 19.5t-18 54.5q-1 35 19.5 55t49.5 20q33 0 52 -20t19 -55t-20.5 -54.5
t-50.5 -19.5zM201 762q-32 0 -50 19.5t-19 54.5t19.5 55t49.5 20q33 0 52 -20t19 -55t-21 -54.5t-50 -19.5z" />
    <glyph glyph-name="uni0402" unicode="&#x402;" horiz-adv-x="769" 
d="M526 -9q-15 0 -30.5 1.5t-32.5 4.5l11 97q68 -3 93.5 23t25.5 85q0 63 -25.5 89.5t-73.5 26.5q-28 0 -63.5 -8t-76.5 -23l23 27v-314h-225v72l108 28l-26 -36v559l29 -22h-163l32 28l-27 -127h-85v202h585v-202h-85l-25 121l31 -22h-178l29 22v-252l-23 14q50 18 97 27
t88 9q59 0 104.5 -20.5t70.5 -64.5t25 -116q0 -106 -55 -167.5t-158 -61.5z" />
    <glyph glyph-name="uni0403" unicode="&#x403;" horiz-adv-x="562" 
d="M36 0v72l89 26l-15 -21v553l20 -29l-94 26v72l214 5h289l1 -206h-85l-25 118l31 -15h-230l22 22v-546l-18 21l108 -26v-72h-307zM231 753l-40 76l230 128l54 -106z" />
    <glyph glyph-name="uni0404" unicode="&#x404;" horiz-adv-x="641" 
d="M344 -12q-84 0 -152.5 42t-109 122.5t-40.5 198.5t41.5 199.5t115.5 123.5t170 42q52 0 110.5 -12.5t120.5 -38.5l-10 -176h-85l-24 111l24 -21q-36 13 -70 20.5t-63 7.5q-56 0 -96.5 -28t-62 -82.5t-21.5 -133.5q0 -83 23 -141.5t64.5 -89t96.5 -30.5q39 0 83.5 16
t93.5 49l56 -80q-67 -50 -134 -74.5t-131 -24.5zM184 311v97h280v-97h-280z" />
    <glyph glyph-name="uni0405" unicode="&#x405;" horiz-adv-x="601" 
d="M195 527q0 -29 20 -48t52 -32.5t71 -26t77 -28t70.5 -39t52 -59.5t19.5 -90q0 -74 -38.5 -122t-102.5 -71.5t-142 -23.5q-53 0 -108.5 10.5t-109.5 31.5l5 190h83l21 -121l-13 24q30 -14 63.5 -21.5t65.5 -7.5q37 0 68 10t49 31t18 52t-19 51t-51.5 33.5t-70.5 25
t-76.5 26.5t-71 38t-51.5 58.5t-19 89.5q0 71 34 116.5t92 68.5t131 23q52 0 108 -11t112 -33l-11 -175h-85l-21 109l16 -16q-25 10 -53.5 15.5t-57.5 5.5q-34 0 -63 -8.5t-46.5 -27t-17.5 -48.5z" />
    <glyph glyph-name="uni0406" unicode="&#x406;" horiz-adv-x="362" 
d="M326 632l-88 -30l15 22v-547l-15 21l88 -26v-72h-290v72l87 25l-13 -20v547l18 -22l-92 25v72l290 5v-72z" />
    <glyph glyph-name="uni0407" unicode="&#x407;" horiz-adv-x="362" 
d="M326 632l-88 -30l15 22v-547l-15 21l88 -26v-72h-290v72l87 25l-13 -20v547l18 -22l-92 25v72l290 5v-72zM290 762q-33 0 -51 19.5t-18 54.5q-1 35 19.5 55t49.5 20q33 0 52 -20t19 -55t-20.5 -54.5t-50.5 -19.5zM70 762q-32 0 -50 19.5t-19 54.5t19.5 55t49.5 20
q33 0 52 -20t19 -55t-21 -54.5t-50 -19.5z" />
    <glyph glyph-name="uni0408" unicode="&#x408;" horiz-adv-x="342" 
d="M20 699l296 5v-70l-89 -33l16 29v-524q0 -63 -10 -113t-34 -85.5t-64.5 -54t-102.5 -18.5q-18 0 -36.5 1.5t-39.5 4.5l12 102q10 -1 18 -2t16 -1q54 0 76 33.5t22 103.5v553l17 -27l-97 24v72z" />
    <glyph glyph-name="uni0409" unicode="&#x409;" horiz-adv-x="986" 
d="M93 -13q-19 0 -41 3t-47 11l22 131q10 -3 19 -4.5t17 -1.5q35 0 58.5 22t39 60.5t24.5 88t13.5 105.5t7 113t3.5 109l22 -24l-95 27v72l180 5h380v-72l-93 -31l20 30v-230l-26 25h125q124 0 183 -53t59 -148q0 -66 -30.5 -116.5t-93 -79.5t-160.5 -29h-281v72l99 27
l-19 -29v564l23 -33h-208l27 26q-5 -77 -9.5 -154t-11 -148.5t-20 -133t-36.5 -107.5t-60 -71.5t-91 -25.5zM623 81l-22 22h80q67 0 102 29t35 89q0 56 -29.5 82.5t-87.5 26.5h-100l22 22v-271z" />
    <glyph glyph-name="uni040A" unicode="&#x40a;" horiz-adv-x="1026" 
d="M36 0v72l93 27l-19 -29v560l23 -30l-97 27v72l290 5v-72l-95 -32l22 31v-234l-22 22h311l-22 -22v233l22 -29l-96 26v72l290 5v-72l-93 -31l20 30v-238l-26 26h127q122 0 181 -52t59 -146q0 -66 -30.5 -116t-92.5 -77.5t-158 -27.5h-277v72l92 27l-18 -29v271l22 -22
h-311l22 22v-271l-18 29l91 -27v-72h-290zM663 81l-29 22h89q65 0 100 27t35 85q0 53 -29.5 78.5t-85.5 25.5h-102l22 23v-261z" />
    <glyph glyph-name="uni040B" unicode="&#x40b;" horiz-adv-x="824" 
d="M153 0v72l107 28l-26 -36v559l29 -22h-163l32 28l-27 -127h-85v202h582v-202h-85l-25 121l30 -22h-173l29 22v-253l-23 17q53 16 99.5 24.5t86.5 8.5q93 0 147 -46.5t54 -146.5v-153l-26 30l99 -32v-72h-287v72l90 32l-20 -31v129q0 63 -26 88.5t-76 25.5q-28 0 -63.5 -7
t-76.5 -19l22 26v-252l-25 36l96 -28v-72h-296z" />
    <glyph glyph-name="uni040C" unicode="&#x40c;" horiz-adv-x="718" 
d="M658 68l-39 30l86 -26v-72h-284v72l76 26l-3 -24l-171 262l38 -28h-130l22 29v-267l-18 31l88 -29v-72h-287v72l89 26l-15 -28v561l15 -27l-89 23v72l287 5v-70l-88 -30l18 30v-246l-22 23h140l-37 -22l142 240l11 -21l-84 19v72l270 5v-72l-89 -28l31 24l-173 -280v37z
M261 753l-40 76l230 128l54 -106z" />
    <glyph glyph-name="uni040D" unicode="&#x40d;" horiz-adv-x="802" 
d="M36 0v72l93 27l-19 -29v560l23 -30l-97 27v72l290 5v-72l-95 -32l22 31v-404l-22 9l330 363l-12 -33v64l22 -29l-95 26v72l290 5v-72l-93 -31l19 30v-561l-19 29l93 -27v-72h-290v72l91 27l-18 -29v409l22 -13l-329 -362l11 29v-63l-18 29l91 -27v-72h-290zM511 753
l-246 98l55 106l229 -128z" />
    <glyph glyph-name="uni040E" unicode="&#x40e;" horiz-adv-x="687" 
d="M91 0l26 112q31 -7 54.5 -11.5t40.5 -4.5q38 0 59.5 23t44.5 68l-14 -59l-244 499l33 -25l-88 25v72l293 5v-72l-98 -28l17 35l157 -369l-20 -8l148 369l11 -28l-91 24v72l265 5v-72l-88 -27l34 25l-194 -453q-28 -65 -61.5 -109.5t-75.5 -66.5t-95 -22q-25 0 -54 5.5
t-60 15.5zM357 765q-90 0 -142 42t-57 116l124 9q4 -46 26 -69.5t62 -23.5q39 0 58 21.5t17 65.5l105 6q2 -78 -49 -122.5t-144 -44.5z" />
    <glyph glyph-name="uni040F" unicode="&#x40f;" horiz-adv-x="770" 
d="M343 -191l-22 207l18 -16h-303v72l93 27l-19 -29v560l23 -30l-97 27v72l290 5v-72l-95 -32l22 31v-564l-18 36h309l-27 -36v563l22 -29l-95 26v72l290 5v-72l-93 -31l19 30v-563l-19 31l93 -27v-72h-302l18 16l-22 -207h-85z" />
    <glyph glyph-name="uni0410" unicode="&#x410;" horiz-adv-x="713" 
d="M661 67l-37 33l86 -28v-72h-287v72l87 25l-14 -20l-40 130l22 -18h-264l17 17l-43 -127l-4 15l80 -22v-72h-261v72l83 26l-32 -28l236 632l147 4zM250 269l-10 19h215l-14 -22l-104 361h33z" />
    <glyph glyph-name="uni0411" unicode="&#x411;" horiz-adv-x="631" 
d="M36 0v72l89 26l-15 -21v553l20 -28l-94 25v72l214 5h292v-199h-85l-18 111l25 -15h-233l22 22v-224l-26 26h125q124 0 183 -53t59 -148q0 -65 -30.5 -116t-93 -79.5t-159.5 -28.5h-275zM253 81l-29 22h85q67 0 102 29t35 88q0 56 -29.5 82.5t-86.5 26.5h-99l22 22v-270z
" />
    <glyph glyph-name="uni0412" unicode="&#x412;" horiz-adv-x="647" 
d="M368 350l9 14q70 -1 121 -17.5t79 -53t28 -97.5q0 -62 -30.5 -106t-90.5 -67t-149 -23h-299v72l93 27l-19 -29v560l23 -30l-97 27v72l211 5h103q73 0 124 -18.5t78 -57t27 -98.5q0 -82 -52.5 -126.5t-158.5 -53.5zM322 603h-91l22 22v-237l-22 20h69q38 0 68.5 9
t48.5 31.5t18 61.5q0 37 -15 57t-40.5 28t-57.5 8zM322 102q39 0 70 9t49 32t18 63q0 39 -16 61.5t-41 31.5t-55 9h-116l22 25v-254l-22 23h91z" />
    <glyph glyph-name="uni0413" unicode="&#x413;" horiz-adv-x="562" 
d="M36 0v72l89 26l-15 -21v553l20 -29l-94 26v72l214 5h289l1 -206h-85l-25 118l31 -15h-230l22 22v-546l-18 21l108 -26v-72h-307z" />
    <glyph glyph-name="uni0414" unicode="&#x414;" horiz-adv-x="721" 
d="M157 66q32 23 54 57t36.5 81.5t23 109.5t11.5 139.5t3 174.5l-18 -27h205l-22 33v-567l27 36h-318zM64 83l40 20l-97 -7l-3 -287h85l49 204l-14 -13h457l-15 13l46 -204h85l-1 287l-125 7l22 -36v564l-19 -30l93 31v72h-384l-180 -5v-72l99 -27l-26 24q0 -104 -4 -180
t-12 -131t-21 -95.5t-31.5 -72.5t-43.5 -62z" />
    <glyph glyph-name="uni0415" unicode="&#x415;" horiz-adv-x="609" 
d="M474 188h85l-2 -188h-521v72l93 27l-19 -29v560l18 -28l-92 25v72l214 5h296v-180h-85l-20 97l27 -20h-237l22 22v-237l-22 22h237v-99h-237l22 25v-253l-22 22h249l-27 -22z" />
    <glyph glyph-name="uni0416" unicode="&#x416;" horiz-adv-x="1057" 
d="M18 0v72l87 26l-36 -30l221 317l-10 -37l-171 280l35 -24l-91 25v72l262 1v-71l-85 -23l15 21l139 -240l-38 22h141l-22 -22v242l15 -27l-85 23v72l268 5v-70l-82 -30l17 30v-246l-22 23h136l-37 -22l142 240l11 -21l-84 19v72l261 5v-72l-90 -28l31 24l-173 -280v37
l220 -317l-40 30l87 -26v-72h-281v72l75 26l-2 -24l-170 262l40 -22h-126l22 23v-267l-18 31l83 -29v-72h-266v72l84 26l-16 -28v267l22 -23h-131l43 22l-173 -262l-2 24l76 -26v-72h-282z" />
    <glyph glyph-name="uni0417" unicode="&#x417;" horiz-adv-x="586" 
d="M256 -12q-117 0 -228 48l37 102q45 -18 92.5 -28.5t90.5 -10.5q42 0 74.5 11.5t52 36.5t19.5 63q0 32 -14 55.5t-44.5 36t-79.5 12.5h-78v101h73q64 0 96 25t32 75q0 53 -33 75t-87 22q-25 0 -56.5 -5.5t-64.5 -15.5l20 19l-13 -111h-85l-9 176q61 19 120 30t114 11
q69 0 123 -18t85 -57t31 -103q0 -52 -22.5 -89t-62.5 -58t-93 -26l-1 12q103 -6 149 -51t46 -121q0 -74 -39 -122t-103.5 -71.5t-141.5 -23.5z" />
    <glyph glyph-name="uni0418" unicode="&#x418;" horiz-adv-x="802" 
d="M36 0v72l93 27l-19 -29v560l23 -30l-97 27v72l290 5v-72l-95 -32l22 31v-404l-22 9l330 363l-12 -33v64l22 -29l-95 26v72l290 5v-72l-93 -31l19 30v-561l-19 29l93 -27v-72h-290v72l91 27l-18 -29v409l22 -13l-329 -362l11 29v-63l-18 29l91 -27v-72h-290z" />
    <glyph glyph-name="uni0419" unicode="&#x419;" horiz-adv-x="802" 
d="M36 0v72l93 27l-19 -29v560l23 -30l-97 27v72l290 5v-72l-95 -32l22 31v-404l-22 9l330 363l-12 -33v64l22 -29l-95 26v72l290 5v-72l-93 -31l19 30v-561l-19 29l93 -27v-72h-290v72l91 27l-18 -29v409l22 -13l-329 -362l11 29v-63l-18 29l91 -27v-72h-290zM404 765
q-90 0 -142 42t-57 116l124 9q4 -46 26 -69.5t62 -23.5q39 0 58 21.5t17 65.5l105 6q2 -78 -49 -122.5t-144 -44.5z" />
    <glyph glyph-name="uni041A" unicode="&#x41a;" horiz-adv-x="718" 
d="M658 68l-39 30l86 -26v-72h-284v72l76 26l-3 -24l-171 262l38 -28h-130l22 29v-267l-18 31l88 -29v-72h-287v72l89 26l-15 -28v561l15 -27l-89 23v72l287 5v-70l-88 -30l18 30v-246l-22 23h140l-37 -22l142 240l11 -21l-84 19v72l270 5v-72l-89 -28l31 24l-173 -280v37z
" />
    <glyph glyph-name="uni041B" unicode="&#x41b;" horiz-adv-x="732" 
d="M95 -14q-38 0 -90 15l22 131q20 -5 36 -5q35 0 59 21.5t39.5 60t24 88t13 105t7 112.5t3.5 110l20 -24l-93 27v72l180 5h380v-72l-93 -31l20 30v-561l-20 29l93 -27v-72h-302v72l104 27l-19 -29v564l23 -33h-208l27 26q-5 -78 -9 -156t-11.5 -149.5t-20.5 -132.5
t-36.5 -106.5t-59.5 -71t-89 -25.5z" />
    <glyph glyph-name="uni041C" unicode="&#x41c;" horiz-adv-x="873" 
d="M837 632l-93 -32l20 37v-567l-20 29l93 -27v-72h-279v72l97 28l-23 -30v481l21 -1l-183 -367l-90 -5l-176 374h21v-482l-16 27l90 -25v-72h-263v72l93 27l-19 -29v567l19 -35l-93 25v72l249 5l165 -383h-17l173 378l231 5v-72z" />
    <glyph glyph-name="uni041D" unicode="&#x41d;" horiz-adv-x="787" 
d="M36 0v72l93 27l-19 -29v560l23 -30l-97 27v72l290 5v-72l-95 -32l22 31v-243l-22 22h326l-22 -22v242l22 -29l-96 26v72l290 5v-72l-93 -31l20 30v-561l-20 29l93 -27v-72h-290v72l92 27l-18 -29v260l22 -23h-326l22 23v-260l-18 29l91 -27v-72h-290z" />
    <glyph glyph-name="uni041E" unicode="&#x41e;" horiz-adv-x="732" 
d="M352 -12q-95 0 -164.5 40.5t-107.5 119.5t-38 195q0 93 24 163t68 116.5t104.5 70t134.5 23.5q73 0 131.5 -23t100 -67t64.5 -109.5t23 -151.5q0 -117 -42.5 -201.5t-118.5 -130t-179 -45.5zM363 98q50 0 89 24.5t62.5 82t23.5 154.5q0 90 -21.5 144.5t-59.5 78.5t-90 24
q-50 0 -89 -24t-60.5 -80t-21.5 -154q0 -90 20 -144.5t57.5 -80t89.5 -25.5z" />
    <glyph glyph-name="uni041F" unicode="&#x41f;" horiz-adv-x="774" 
d="M36 0v72l93 27l-19 -29v560l23 -30l-97 27v72l217 5h485v-72l-93 -31l20 30v-561l-20 29l93 -27v-72h-290v72l92 27l-19 -29v564l23 -33h-313l22 33v-564l-18 29l91 -27v-72h-290z" />
    <glyph glyph-name="uni0420" unicode="&#x420;" horiz-adv-x="610" 
d="M303 249h-79l29 22v-201l-20 28l115 -26v-72h-312v72l96 28l-22 -30v562l25 -31l-99 26v72l220 5h91q83 0 136 -28.5t78.5 -77.5t25.5 -111q0 -67 -30.5 -121.5t-93 -85.5t-160.5 -31zM324 602h-93l22 22v-294l-29 22h80q67 0 102 36t35 96q0 55 -29.5 86.5t-87.5 31.5z
" />
    <glyph glyph-name="uni0421" unicode="&#x421;" horiz-adv-x="632" 
d="M341 -12q-82 0 -150 40.5t-109 121t-41 198.5q0 116 40 198t113 126t171 44q52 0 107 -13t118 -39l-9 -180h-85l-24 117l24 -23q-35 14 -67 21t-59 7q-57 0 -96 -28.5t-59 -82.5t-20 -129q0 -88 23.5 -146.5t65 -87t93.5 -28.5q39 0 82.5 16.5t87.5 50.5l53 -83
q-62 -50 -128.5 -75t-130.5 -25z" />
    <glyph glyph-name="uni0422" unicode="&#x422;" horiz-adv-x="612" 
d="M149 0v72l111 28l-26 -36v559l29 -22h-163l32 28l-27 -127h-85v202h572v-202h-85l-25 121l30 -22h-163l29 22v-559l-25 36l110 -28v-72h-314z" />
    <glyph glyph-name="uni0423" unicode="&#x423;" horiz-adv-x="687" 
d="M91 0l26 112q31 -7 54.5 -11.5t40.5 -4.5q38 0 59.5 23t44.5 68l-14 -59l-244 499l33 -25l-88 25v72l293 5v-72l-98 -28l17 35l157 -369l-20 -8l148 369l11 -28l-91 24v72l265 5v-72l-88 -27l34 25l-194 -453q-28 -65 -61.5 -109.5t-75.5 -66.5t-95 -22q-25 0 -54 5.5
t-60 15.5z" />
    <glyph glyph-name="uni0424" unicode="&#x424;" horiz-adv-x="806" 
d="M536 680l-88 -27l15 15v-611l-15 15l88 -24v-68h-266v68l87 24l-14 -15v611l19 -16l-92 23v68l266 5v-68zM385 107q-118 0 -195.5 27t-116 81.5t-38.5 139.5q0 91 42.5 149t126.5 86t206 28q91 0 159 -15.5t113 -46t67 -76t22 -107.5q0 -87 -43.5 -146.5t-129 -89.5
t-213.5 -30zM398 187q73 0 123.5 16.5t76.5 56t26 108.5q0 63 -23.5 100t-72 53.5t-124.5 16.5q-74 0 -123.5 -16.5t-74 -55t-24.5 -105.5q0 -61 22 -99t69.5 -56t124.5 -19z" />
    <glyph glyph-name="uni0425" unicode="&#x425;" horiz-adv-x="711" 
d="M654 68l-42 30l82 -26v-72h-295v72l83 24l3 -22l-162 226l34 1l-164 -233l-7 31l87 -27v-72h-255v72l82 27l-39 -33l226 305l-1 -37l-212 296l33 -22l-77 19v72l289 5v-72l-78 -24l5 18l146 -210l-32 7l144 203l7 -21l-81 22v72l251 5v-72l-81 -32l35 30l-211 -285l4 36z
" />
    <glyph glyph-name="uni0426" unicode="&#x426;" horiz-adv-x="786" 
d="M679 -191l-50 204l16 -13h-609v72l93 27l-19 -29v560l23 -30l-97 27v72l290 5v-72l-95 -32l22 31v-564l-18 36h309l-27 -36v563l22 -29l-95 26v72l290 5v-72l-93 -31l19 30v-565l-19 36l122 -6l1 -287h-85z" />
    <glyph glyph-name="uni0427" unicode="&#x427;" horiz-adv-x="704" 
d="M467 296q-48 -18 -93.5 -27t-85.5 -9q-59 0 -106 21t-74 66.5t-27 116.5v166l26 -30l-99 27v72l286 5v-72l-89 -32l19 31v-131q0 -51 13 -81t36.5 -42t56.5 -12q30 0 64.5 7.5t72.5 19.5l-16 -14v252l22 -29l-92 26v72l287 5v-72l-93 -31l19 30v-561l-19 29l93 -27v-72
h-312v72l113 27l-18 -29v241z" />
    <glyph glyph-name="uni0428" unicode="&#x428;" horiz-adv-x="1066" 
d="M36 0v72l93 27l-19 -29v560l23 -30l-97 27v72l287 5v-72l-92 -32l22 31v-564l-18 36h253l-26 -36v563l22 -30l-92 27v72l283 5v-72l-90 -31l20 30v-564l-20 36h256l-27 -36v563l22 -29l-92 26v72l286 5v-72l-93 -31l20 30v-563l-19 31l92 -27v-72h-994z" />
    <glyph glyph-name="uni0429" unicode="&#x429;" horiz-adv-x="1084" 
d="M976 -191l-50 204l24 -13h-914v72l93 27l-19 -29v560l23 -30l-97 27v72l287 5v-72l-92 -32l22 31v-564l-18 36h253l-26 -36v563l22 -30l-92 27v72l283 5v-72l-90 -31l20 30v-564l-20 36h256l-27 -36v563l22 -29l-92 26v72l286 5v-72l-93 -31l20 30v-565l-20 36l123 -6
l1 -287h-85z" />
    <glyph glyph-name="uni042A" unicode="&#x42a;" horiz-adv-x="741" 
d="M149 0v72l100 26l-15 -21v552l29 -28h-163l32 28l-27 -127h-85v202h431v-72l-95 -32l21 31v-224l-25 25h125q124 0 182.5 -53t58.5 -151q0 -68 -30 -119t-93 -80t-160 -29h-286zM377 81l-29 22h87q67 0 102 29.5t35 90.5q0 59 -29.5 86t-86.5 27h-101l22 22v-277z" />
    <glyph glyph-name="uni042B" unicode="&#x42b;" horiz-adv-x="939" 
d="M36 0v72l89 26l-15 -21v553l20 -28l-94 25v72l290 5v-72l-95 -32l22 31v-224l-26 25h119q124 0 182.5 -53t58.5 -151q0 -68 -30 -119t-93 -80t-160 -29h-268zM253 81l-29 22h80q67 0 102 29.5t35 90.5q0 59 -29.5 86t-86.5 27h-94l22 22v-277zM903 632l-88 -30l15 22
v-547l-15 21l88 -26v-72h-290v72l87 25l-14 -20v547l19 -22l-92 25v72l290 5v-72z" />
    <glyph glyph-name="uni042C" unicode="&#x42c;" horiz-adv-x="617" 
d="M36 0v72l89 26l-15 -21v553l20 -28l-94 25v72l290 5v-72l-95 -32l22 31v-224l-26 25h125q124 0 183 -53t59 -151q0 -68 -30.5 -119t-93 -80t-159.5 -29h-275zM253 81l-29 22h87q67 0 102 29.5t35 90.5q0 59 -29.5 86t-86.5 27h-101l22 22v-277z" />
    <glyph glyph-name="uni042D" unicode="&#x42d;" horiz-adv-x="648" 
d="M36 79l50 90q48 -33 94.5 -50t89.5 -17q53 0 95 26.5t66.5 84t24.5 148.5q0 76 -19.5 131t-60.5 85t-104 30q-58 0 -136 -26l27 21l-23 -113h-85l-9 172q139 55 251 55q95 0 164.5 -40.5t107.5 -118.5t38 -191q0 -124 -43.5 -208t-116 -127t-160.5 -43q-62 0 -126.5 22.5
t-124.5 68.5zM184 311v97h333v-97h-333z" />
    <glyph glyph-name="uni042E" unicode="&#x42e;" horiz-adv-x="1043" 
d="M669 -12q-93 0 -161.5 40.5t-106 119.5t-37.5 195q0 93 23.5 163t67 116.5t103.5 70t131 23.5q72 0 129.5 -23t98.5 -67t63 -109.5t22 -150.5q0 -118 -41.5 -202.5t-116.5 -130t-175 -45.5zM36 0v72l93 27l-19 -29v560l23 -30l-97 27v72l290 5v-72l-95 -32l22 31v-241
l-22 22h217v-103h-217l22 23v-262l-18 29l91 -27v-72h-290zM679 98q48 0 86.5 24.5t60.5 82t22 154.5q0 90 -20.5 144.5t-57.5 78.5t-87 24q-47 0 -85 -24t-59 -80t-21 -154q0 -90 19.5 -144.5t56 -80t85.5 -25.5z" />
    <glyph glyph-name="uni042F" unicode="&#x42f;" horiz-adv-x="661" 
d="M625 0h-298v72l101 27l-19 -29v222l23 -20l-63 1q-27 0 -46 -4.5t-34 -22.5t-33 -58l-82 -188h-162v72l89 30l-32 -25l64 142q16 36 38.5 55.5t55.5 27t80 6.5l-5 -22q-81 5 -131 30.5t-72 69.5t-22 103q0 108 64.5 161.5t184.5 53.5h299v-72l-99 -27l26 26v-561l-18 28
l91 -26v-72zM409 343v281l23 -22h-97q-58 0 -85 -28t-27 -83q0 -61 32.5 -93.5t105.5 -32.5h71z" />
    <glyph glyph-name="uni0430" unicode="&#x430;" horiz-adv-x="561" 
d="M482 71l-19 28l86 -27v-71l-175 -9l-19 96l10 -3q-40 -49 -87 -73t-97 -24q-64 0 -106 41t-42 118q0 57 24.5 90.5t71.5 48.5t114 15h109l-10 -11v66q0 47 -22.5 67t-65.5 20q-21 0 -45 -4t-52 -12l14 15l-13 -81h-87l-8 146q68 20 124.5 29.5t103.5 9.5q93 0 142 -40
t49 -124v-311zM174 161q0 -37 17.5 -54.5t44.5 -17.5q25 0 55 15.5t57 42.5l-6 -24v114l10 -10h-86q-52 0 -72 -16t-20 -50z" />
    <glyph glyph-name="uni0431" unicode="&#x431;" horiz-adv-x="595" 
d="M303 -11q-92 0 -149.5 45t-84.5 127t-27 193q0 102 22.5 181t70.5 133.5t125.5 83t187.5 29.5l-27 -24l18 76h89l1 -169q-88 0 -149 -5.5t-99 -21t-58 -45.5t-28 -80t-8 -126q0 -54 3 -99t10 -80.5t21 -59.5t35.5 -36.5t52.5 -12.5q56 0 84 39.5t28 110.5q0 56 -15.5 92
t-41.5 54t-60 18q-30 0 -63 -13.5t-66 -39.5l-5 90q45 35 92.5 52.5t91.5 17.5q59 0 107 -29t76.5 -85t28.5 -139q0 -89 -34 -151t-93 -94t-136 -32z" />
    <glyph glyph-name="uni0432" unicode="&#x432;" horiz-adv-x="578" 
d="M236 534h78q65 0 112.5 -12t73.5 -40.5t26 -79.5q0 -47 -24 -74t-68.5 -39t-105.5 -17l8 14q43 0 81.5 -6t68 -21.5t45.5 -42.5t16 -68q0 -77 -61 -112.5t-180 -35.5h-277v72l77 22l-10 -12v365l9 -9l-76 21v72zM285 443h-71l22 22v-168l-22 16h57q61 0 87.5 15.5
t26.5 52.5q0 36 -24 49t-76 13zM288 93q59 0 86 15.5t27 57.5q0 37 -22 56t-72 19h-93l22 18v-186l-22 20h74z" />
    <glyph glyph-name="uni0433" unicode="&#x433;" horiz-adv-x="508" 
d="M493 534l-5 -211h-85l-17 126l18 -18h-175l7 16v-373l-16 21l101 -23v-72h-292v72l81 23l-14 -21v384l16 -24l-83 25v72l176 3h288z" />
    <glyph glyph-name="uni0434" unicode="&#x434;" horiz-adv-x="644" 
d="M15 -172l-3 248l106 23l-69 -25q32 23 55.5 52.5t39 72.5t23.5 106.5t8 154.5l36 -30l-109 33v71h495v-71l-94 -32l28 28v-384l-27 22l127 -23l-4 -246h-85l-30 190l31 -18h-445l32 18l-29 -190h-86zM171 80l1 23h242l-23 -22v381l22 -31h-165l26 31q0 -102 -8 -176
t-30.5 -124t-64.5 -82z" />
    <glyph glyph-name="uni0435" unicode="&#x435;" horiz-adv-x="550" 
d="M275 -12q-73 0 -128 30.5t-85.5 91t-30.5 147.5q0 90 32.5 154.5t91.5 99.5t139 35q78 0 127 -31t72 -84.5t23 -120.5q0 -17 -1.5 -34t-4.5 -36h-366v83h246l-18 -13q1 40 -7.5 70.5t-28 47.5t-53.5 17q-39 0 -63 -22.5t-34.5 -60.5t-10.5 -85q0 -53 13 -95t42.5 -66
t77.5 -24q34 0 73.5 12.5t82.5 37.5l47 -75q-58 -40 -118.5 -59.5t-117.5 -19.5z" />
    <glyph glyph-name="uni0436" unicode="&#x436;" horiz-adv-x="872" 
d="M10 0v71l79 21l-20 -18l133 226l-4 -36l-116 205l30 -21l-83 11v72l241 7v-72l-68 -21l11 15l83 -160l-25 16h120l-23 -20v167l20 -27l-80 23v72l247 7v-72l-73 -24l13 21v-167l-23 20h120l-26 -16l87 160l11 -15l-68 14v71l241 8v-71l-83 -19l30 21l-120 -205l2 36
l136 -226l-20 17l78 -20v-71h-164l-135 236l22 -13h-111l23 13v-166l-14 27l82 -25v-72h-257v72l79 24l-17 -26v166l23 -13h-111l25 13l-130 -236h-165z" />
    <glyph glyph-name="uni0437" unicode="&#x437;" horiz-adv-x="491" 
d="M210 -12q-49 0 -97.5 10.5t-88.5 30.5l27 88q36 -18 74 -27t73 -9q32 0 57.5 8t41 25.5t15.5 45.5q0 22 -11 38.5t-34 25.5t-61 9h-68v83h64q55 0 79.5 19t24.5 53q0 37 -25 52.5t-64 15.5q-22 0 -48 -4.5t-53 -11.5l27 26l-15 -84h-86l-5 133q51 14 102 22.5t99 8.5
q59 0 106 -14t74.5 -44.5t27.5 -79.5q0 -60 -41 -92.5t-121 -41.5l-5 11q93 -5 136 -39t43 -93q0 -57 -35.5 -93.5t-92 -54t-120.5 -17.5z" />
    <glyph glyph-name="uni0438" unicode="&#x438;" horiz-adv-x="674" 
d="M29 0v72l94 29l-27 -29v386l36 -31l-103 32v72l262 7v-72l-92 -32l30 27v-253l-19 5l246 218l-9 -20l-1 47l22 -22l-84 23v72l262 7v-72l-94 -32l27 27v-389l-27 29l94 -29v-72h-262v72l85 25l-23 -25v275l16 -19l-244 -228l11 22v-50l-8 19l70 -19v-72h-262z" />
    <glyph glyph-name="uni0439" unicode="&#x439;" horiz-adv-x="674" 
d="M29 0v72l94 29l-27 -29v386l36 -31l-103 32v72l262 7v-72l-92 -32l30 27v-253l-19 5l246 218l-9 -20l-1 47l22 -22l-84 23v72l262 7v-72l-94 -32l27 27v-389l-27 29l94 -29v-72h-262v72l85 25l-23 -25v275l16 -19l-244 -228l11 22v-50l-8 19l70 -19v-72h-262zM338 634
q-50 0 -91.5 16t-68.5 51.5t-30 91.5l131 6q2 -48 24.5 -70.5t53.5 -22.5t52 22.5t18 65.5l98 5q2 -57 -24 -93.5t-69.5 -54t-93.5 -17.5z" />
    <glyph glyph-name="uni043A" unicode="&#x43a;" horiz-adv-x="612" 
d="M29 0v72l84 24l-17 -26v393l20 -27l-87 23v72l265 7v-72l-72 -24l14 21v-163l-23 29h133l-43 -25l100 156l10 -15l-70 14v71l243 8v-71l-83 -19l37 21l-133 -201l12 36l128 -230l-19 17l76 -20v-71h-164l-125 240l21 -4h-123l23 4v-170l-15 27l83 -25v-72h-275z" />
    <glyph glyph-name="uni043B" unicode="&#x43b;" horiz-adv-x="631" 
d="M92 -10q-19 0 -40.5 4t-46.5 11l20 109q10 -2 18 -3t16 -1q52 0 77 42t33 123t9 197l36 -42l-109 33v71h498v-71l-94 -32l27 44v-393l-10 12l77 -22v-72h-273v72l77 22l-11 -12v389l22 -40h-174l41 38q-1 -110 -9.5 -198.5t-29.5 -151t-58.5 -96t-95.5 -33.5z" />
    <glyph glyph-name="uni043C" unicode="&#x43c;" horiz-adv-x="750" 
d="M183 411h20v-343l-12 26l72 -22v-72h-234v72l82 24l-15 -28v400l21 -36l-88 27v72l219 7l158 -352h-60l159 345l216 7v-72l-89 -31l23 35v-401l-15 27l81 -24v-72h-245v72l72 24l-15 -22v347h21l-155 -332l-64 -3z" />
    <glyph glyph-name="uni043D" unicode="&#x43d;" horiz-adv-x="672" 
d="M29 0v72l94 29l-27 -44v414l36 -44l-103 32v72l269 7v-72l-92 -32l30 41v-185l-36 37h273l-36 -37v181l22 -35l-84 23v72l268 7v-72l-94 -32l28 41v-418l-27 44l93 -29v-72h-268v72l85 25l-23 -40v208l36 -38h-273l36 38v-208l-23 40l85 -25v-72h-269z" />
    <glyph glyph-name="uni043E" unicode="&#x43e;" horiz-adv-x="577" 
d="M296 546q118 0 184 -70t66 -199q0 -90 -32 -154.5t-92 -99.5t-144 -35q-118 0 -182.5 70t-64.5 199q0 90 31.5 154.5t90.5 99.5t143 35zM289 446q-57 0 -85 -44.5t-28 -137.5t27 -134.5t82 -41.5q40 0 65 20t38 61t13 101q0 91 -28 133.5t-84 42.5z" />
    <glyph glyph-name="uni043F" unicode="&#x43f;" horiz-adv-x="669" 
d="M29 0v72l94 29l-27 -44v420l36 -51l-103 33v72l204 3h407v-71l-94 -34l27 51v-423l-27 44l94 -29v-72h-267v72l83 25l-23 -40v410l37 -36h-270l36 36v-410l-23 40l83 -25v-72h-267z" />
    <glyph glyph-name="uni0440" unicode="&#x440;" horiz-adv-x="608" 
d="M20 -230v72l85 28l-18 -24v607l16 -19l-83 25v72l176 8l16 -87l-16 8q47 42 91.5 64t92.5 22q58 0 102 -30.5t69.5 -90t25.5 -145.5q0 -97 -33 -162t-92.5 -97.5t-138.5 -32.5q-24 0 -50 3.5t-54 9.5l18 16v-171l-15 21l93 -25v-72h-285zM295 87q71 0 103.5 48t32.5 131
q0 55 -13 94.5t-36 61t-57 21.5q-26 0 -55 -14t-60 -43l17 37v-349l-17 27q47 -14 85 -14z" />
    <glyph glyph-name="uni0441" unicode="&#x441;" horiz-adv-x="516" 
d="M273 -12q-69 0 -124.5 32.5t-87.5 93.5t-32 148q0 79 23 133t62 87.5t87 48.5t99 15q48 0 97 -12t80 -27l-4 -147h-90l-15 82l11 -8q-15 6 -36.5 9t-39.5 3q-43 0 -71.5 -21.5t-42.5 -61t-14 -93.5q0 -58 16 -98t45.5 -60.5t68.5 -20.5q31 0 68 13t77 39l47 -71
q-56 -43 -112 -63.5t-112 -20.5z" />
    <glyph glyph-name="uni0442" unicode="&#x442;" horiz-adv-x="548" 
d="M122 0v71l109 26l-27 -36v392l31 -22h-142l28 27l-24 -109h-85v185h524v-185h-85l-22 104l25 -22h-139l29 22v-392l-24 36l107 -26v-71h-305z" />
    <glyph glyph-name="uni0443" unicode="&#x443;" horiz-adv-x="556" 
d="M8 -235l13 99q16 -2 29.5 -3t25.5 -1q44 0 71.5 17.5t48 54t40.5 94.5l-5 -47l-192 477l13 -12l-58 14v72l249 8v-71l-70 -19l7 12l127 -374l-34 7l113 365l7 -14l-69 14v72l236 8v-71l-63 -20l19 12l-165 -457q-21 -58 -45 -103t-54.5 -76.5t-71 -48t-94.5 -16.5
q-35 0 -78 7z" />
    <glyph glyph-name="uni0444" unicode="&#x444;" horiz-adv-x="716" 
d="M418 -148l-10 12l77 -22v-72h-254v72l77 22l-10 -12v835l9 -10l-76 21v72l187 8v-926zM368 538q166 0 244.5 -66.5t78.5 -194.5q0 -87 -37 -150.5t-114 -97t-196 -33.5q-162 0 -240 64.5t-78 195.5q0 93 38 155.5t114.5 94.5t189.5 32zM357 445q-71 0 -113.5 -17.5
t-61.5 -57t-19 -104.5q0 -63 18.5 -102.5t60.5 -57t113 -17.5q72 0 116 19t63.5 59.5t19.5 104.5q0 63 -19 101t-62 55t-116 17z" />
    <glyph glyph-name="uni0445" unicode="&#x445;" horiz-adv-x="569" 
d="M10 0v71l83 19l-34 -19l157 217l32 3l161 239l137 8v-71l-85 -22l40 22l-152 -205l-30 -2l-171 -260h-138zM292 0v72l65 12l-8 -19l-125 177l-161 224l28 -24l-69 16v72l248 8v-71l-67 -15l10 21l109 -158l179 -243l-24 19l80 -19v-72h-265z" />
    <glyph glyph-name="uni0446" unicode="&#x446;" horiz-adv-x="679" 
d="M664 74l2 -246h-89l-31 186l24 -14h-541v72l94 29l-27 -44v414l36 -44l-103 32v72l267 7v-72l-90 -32l30 41v-414l-36 42h261l-36 -42v410l22 -35l-82 23v72l267 7v-72l-94 -32l27 41v-418l-29 41z" />
    <glyph glyph-name="uni0447" unicode="&#x447;" horiz-adv-x="616" 
d="M66 463l36 -36l-102 32v72l263 7v-72l-87 -32l30 29v-91q0 -53 22 -75.5t65 -22.5q22 0 50 5.5t61 13.5l-23 -26v196l22 -27l-79 23v72l263 7v-72l-94 -32l28 29v-393l-27 30l93 -28v-72h-291v72l108 25l-23 -27v171l23 -35q-45 -15 -86 -23t-76 -8q-79 0 -127.5 42
t-48.5 133v113z" />
    <glyph glyph-name="uni0448" unicode="&#x448;" horiz-adv-x="925" 
d="M29 0v72l94 29l-27 -44v414l36 -44l-103 32v72l263 7v-72l-86 -32l30 41v-414l-36 42h227l-34 -42v410l22 -35l-79 23v72l254 7v-72l-84 -32l27 41v-421l-31 49h225l-37 -42v410l22 -35l-78 23v72l263 7v-72l-94 -32l27 41v-418l-27 44l94 -29v-72h-868z" />
    <glyph glyph-name="uni0449" unicode="&#x449;" horiz-adv-x="944" 
d="M842 -172l-30 190l20 -18h-803v72l94 29l-27 -44v414l36 -44l-103 32v72l263 7v-72l-86 -32l30 41v-414l-36 42h227l-34 -42v410l22 -35l-79 23v72l254 7v-72l-84 -32l27 41v-421l-31 49h225l-37 -42v410l22 -35l-78 23v72l263 7v-72l-94 -32l27 41v-418l-27 44l127 -25
l-3 -248h-85z" />
    <glyph glyph-name="uni044A" unicode="&#x44a;" horiz-adv-x="635" 
d="M119 0v71l106 26l-28 -36v392l31 -22h-135l28 27l-24 -109h-85v185h405v-71l-102 -23l22 22v-123l-22 18h106q96 0 149 -43t53 -131q0 -87 -58.5 -135t-187.5 -48h-258zM337 73l-22 20h59q53 0 78 22t25 66q0 41 -21.5 62t-66.5 21h-74l22 18v-209z" />
    <glyph glyph-name="uni044B" unicode="&#x44b;" horiz-adv-x="851" 
d="M756 463v-381l-10 12l77 -22v-72h-273v72l77 22l-11 -12v380l16 -26l-82 23v72l273 7v-72l-89 -26zM29 0v72l77 22l-10 -12v380l15 -26l-82 23v72l287 7v-72l-103 -26l23 22v-125l-22 18h110q96 0 149 -42.5t53 -130.5q0 -87 -58.5 -134.5t-187.5 -47.5h-251zM236 73
l-22 20h63q54 0 78.5 21.5t24.5 64.5q0 42 -21.5 62.5t-66.5 20.5h-78l22 18v-207z" />
    <glyph glyph-name="uni044C" unicode="&#x44c;" horiz-adv-x="537" 
d="M29 0v72l77 22l-10 -12v380l15 -26l-82 23v72l287 7v-72l-103 -26l23 22v-125l-22 18h110q96 0 148.5 -42.5t52.5 -130.5q0 -87 -58 -134.5t-187 -47.5h-251zM236 73l-22 20h63q57 0 82.5 21.5t25.5 64.5q0 42 -22.5 62.5t-70.5 20.5h-78l22 18v-207z" />
    <glyph glyph-name="uni044D" unicode="&#x44d;" horiz-adv-x="517" 
d="M20 61l45 85q42 -27 79.5 -40.5t69.5 -13.5q39 0 67.5 19.5t45 58t16.5 94.5q0 88 -34 135.5t-107 47.5q-31 0 -70 -12l10 9l-13 -71h-86l-4 136q102 37 187 37q79 0 137.5 -31t92 -91.5t33.5 -150.5t-36 -153.5t-95 -97.5t-131 -34q-50 0 -103 18t-104 55zM149 231l2 83
h264v-83h-266z" />
    <glyph glyph-name="uni044E" unicode="&#x44e;" horiz-adv-x="861" 
d="M29 0v72l94 29l-27 -44v414l36 -44l-103 32v72l269 7v-72l-92 -32l30 41v-185l-36 37h200v-100h-200l36 38v-208l-23 40l85 -25v-72h-269zM587 546q116 0 179.5 -68t63.5 -199q0 -92 -31 -157t-90 -99.5t-142 -34.5q-112 0 -175.5 66.5t-63.5 201.5q0 95 32 159.5
t90 97.5t137 33zM580 446q-31 0 -56 -17t-38.5 -56.5t-13.5 -108.5q0 -66 13 -104.5t36.5 -55t54.5 -16.5q33 0 57.5 18t39 58.5t14.5 108.5q0 65 -13.5 102.5t-37.5 54t-56 16.5z" />
    <glyph glyph-name="uni044F" unicode="&#x44f;" horiz-adv-x="579" 
d="M10 0v71l78 21l-22 -20l39 91q14 33 42.5 47t68.5 15l16 -10q-83 2 -124.5 41.5t-41.5 107.5q0 54 22.5 92t67.5 58t110 20h284v-71l-81 -26l14 12v-372l-12 18l79 -23v-72h-267v72l72 20l-12 -16v134l11 -12h-52q-28 0 -45.5 -12.5t-28.5 -42.5l-51 -143h-167zM343 267
v189l12 -12h-69q-37 0 -60 -18t-23 -62q0 -45 23 -64t69 -19h59z" />
    <glyph glyph-name="uni0450" unicode="&#x450;" horiz-adv-x="550" 
d="M275 -12q-73 0 -128 30.5t-85.5 91t-30.5 147.5q0 90 32.5 154.5t91.5 99.5t139 35q78 0 127 -31t72 -84.5t23 -120.5q0 -17 -1.5 -34t-4.5 -36h-366v83h246l-18 -13q1 40 -7.5 70.5t-28 47.5t-53.5 17q-39 0 -63 -22.5t-34.5 -60.5t-10.5 -85q0 -53 13 -95t42.5 -66
t77.5 -24q34 0 73.5 12.5t82.5 37.5l47 -75q-58 -40 -118.5 -59.5t-117.5 -19.5zM216 839l208 -161l-53 -72l-228 135z" />
    <glyph glyph-name="uni0451" unicode="&#x451;" horiz-adv-x="550" 
d="M275 -12q-73 0 -128 30.5t-85.5 91t-30.5 147.5q0 90 32.5 154.5t91.5 99.5t139 35q78 0 127 -31t72 -84.5t23 -120.5q0 -17 -1.5 -34t-4.5 -36h-366v83h246l-18 -13q1 40 -7.5 70.5t-28 47.5t-53.5 17q-39 0 -63 -22.5t-34.5 -60.5t-10.5 -85q0 -53 13 -95t42.5 -66
t77.5 -24q34 0 73.5 12.5t82.5 37.5l47 -75q-58 -40 -118.5 -59.5t-117.5 -19.5zM393 624q-33 0 -51 19.5t-18 54.5q-1 35 19.5 55t49.5 20q33 0 52 -20t19 -55t-20.5 -54.5t-50.5 -19.5zM173 624q-32 0 -50 19.5t-19 54.5t19.5 55t49.5 20q33 0 52 -20t19 -55t-21 -54.5
t-50 -19.5z" />
    <glyph glyph-name="uni0452" unicode="&#x452;" horiz-adv-x="606" 
d="M344 -242l-10 99q47 7 65 37t18 92v301q0 44 -20.5 65t-53.5 21q-28 0 -61 -15t-65 -47l9 23v-261l-13 21l73 -22v-72h-267v72l84 24l-17 -20v620l17 -22l-84 24v72l207 8v-402l-27 7q49 49 102.5 72.5t101.5 23.5q44 0 78.5 -19t55 -56t20.5 -90v-290
q0 -94 -26.5 -152.5t-74.5 -85t-112 -28.5zM19 546v77h357v-77h-357z" />
    <glyph glyph-name="uni0453" unicode="&#x453;" horiz-adv-x="508" 
d="M493 534l-5 -211h-85l-17 126l18 -18h-175l7 16v-373l-16 21l101 -23v-72h-292v72l81 23l-14 -21v384l16 -24l-83 25v72l176 3h288zM200 606l-49 68l208 162l71 -96z" />
    <glyph glyph-name="uni0454" unicode="&#x454;" horiz-adv-x="518" 
d="M368 314l-2 -83h-264v83h266zM274 -12q-70 0 -126 32.5t-87.5 93.5t-31.5 148q0 95 35.5 157.5t97 94.5t138.5 32q41 0 87.5 -9t91.5 -29l-5 -135h-86l-13 70l9 -10q-20 7 -40 10t-37 3q-44 0 -73.5 -20t-44.5 -58.5t-15 -97.5t16 -99t46 -60t70 -20q32 0 70 13t77 40
l47 -72q-56 -43 -112.5 -63.5t-113.5 -20.5z" />
    <glyph glyph-name="uni0455" unicode="&#x455;" horiz-adv-x="504" 
d="M183 399q0 -23 20 -37t51.5 -24t67 -21t67 -28.5t51.5 -46.5t20 -75q0 -59 -32 -99t-87 -60t-124 -20q-40 0 -84.5 7t-91.5 19l6 151h88l11 -88l-12 17q20 -6 44 -9.5t42 -3.5q26 0 48.5 7t37 20.5t14.5 34.5q0 24 -20 38t-51.5 24t-66 21t-66 29t-51.5 48t-20 78
q0 58 29 94.5t77.5 53.5t106.5 17q41 0 87 -7.5t94 -21.5l-5 -134h-89l-16 79l19 -21q-47 13 -83 13q-37 0 -59.5 -14.5t-22.5 -40.5z" />
    <glyph glyph-name="uni0456" unicode="&#x456;" horiz-adv-x="318" 
d="M236 82l-10 12l77 -22v-72h-274v72l77 22l-10 -12v365l9 -9l-76 21v72l207 7v-456zM162 616q-37 0 -59.5 21t-22.5 60q0 42 23.5 62.5t59.5 20.5q35 0 58 -20.5t23 -61.5t-23.5 -61.5t-58.5 -20.5z" />
    <glyph glyph-name="uni0457" unicode="&#x457;" horiz-adv-x="318" 
d="M253 624q-30 0 -48 19.5t-18 54.5q-1 35 19 55t47 20q30 0 48.5 -20t18.5 -55t-20 -54.5t-47 -19.5zM51 624q-30 0 -47.5 19.5t-18.5 54.5q0 35 19.5 55t46.5 20q31 0 49.5 -20t18.5 -55t-20.5 -54.5t-47.5 -19.5zM236 82l-10 12l77 -22v-72h-274v72l77 22l-10 -12v365
l9 -9l-76 21v72l207 7v-456z" />
    <glyph glyph-name="uni0458" unicode="&#x458;" horiz-adv-x="305" 
d="M19 -242q-13 0 -25.5 0.5t-26.5 3.5l11 100q6 -1 12 -1h12q49 0 70.5 22t21.5 76v493l13 -16l-80 23v72l207 7v-537q0 -62 -14.5 -107.5t-42.5 -75.5t-68 -45t-90 -15zM155 616q-36 0 -59 21t-23 60q0 42 23.5 62.5t59.5 20.5q35 0 58 -20.5t23 -61.5t-23.5 -61.5
t-58.5 -20.5z" />
    <glyph glyph-name="uni0459" unicode="&#x459;" horiz-adv-x="829" 
d="M94 -12q-19 0 -41 4.5t-48 12.5l20 109q9 -2 17.5 -3t16.5 -1q52 0 76.5 41.5t33 122.5t9.5 198l36 -42l-109 33v71h511v-71l-104 -23l22 22v-125l-22 18h104q96 0 148.5 -42.5t52.5 -130.5q0 -87 -58 -134.5t-187 -47.5h-244v72l77 22l-11 -12v389l22 -40h-172l40 38
q-1 -148 -17 -256.5t-56.5 -166.5t-116.5 -58zM534 73l-22 20h57q53 0 78 20.5t25 65.5q0 43 -22 63t-66 20h-72l22 18v-207z" />
    <glyph glyph-name="uni045A" unicode="&#x45a;" horiz-adv-x="858" 
d="M29 0v72l94 29l-27 -44v414l36 -44l-103 32v72l267 7v-72l-90 -32l30 41v-176l-36 38h262l-37 -38v163l16 -26l-76 23v72l282 7v-72l-104 -26l22 22v-143l-22 18h104q96 0 148.5 -40t52.5 -124q0 -85 -58 -129t-187 -44h-238v72l83 25l-23 -40v217l37 -31h-262l36 31
v-217l-23 40l83 -25v-72h-267zM565 73l-22 20h57q53 0 78 17.5t25 58.5q0 37 -22 55.5t-66 18.5h-72l22 18v-188z" />
    </font>
</defs>
</svg>
