<svg width="17" height="16" viewBox="0 0 17 16" fill="none" xmlns="http://www.w3.org/2000/svg">
<path fill-rule="evenodd" clip-rule="evenodd" d="M12.0236 1.30612C12.9763 1.30612 13.8899 1.68455 14.5635 2.35815C15.2371 3.03175 15.6155 3.94534 15.6155 4.89796V11.102C15.6155 12.0547 15.2371 12.9683 14.5635 13.6419C13.8899 14.3155 12.9763 14.6939 12.0236 14.6939H5.81956C4.86695 14.6939 3.95335 14.3155 3.27975 13.6419C2.60615 12.9683 2.22772 12.0547 2.22772 11.102V4.89796C2.22772 3.94534 2.60615 3.03175 3.27975 2.35815C3.95335 1.68455 4.86695 1.30612 5.81956 1.30612H12.0236ZM12.0236 0H5.81956C4.52173 0.00387607 3.27817 0.521154 2.36046 1.43886C1.44275 2.35657 0.925476 3.60013 0.9216 4.89796V11.102C0.925476 12.3999 1.44275 13.6434 2.36046 14.5611C3.27817 15.4788 4.52173 15.9961 5.81956 16H12.0236C13.3215 15.9961 14.565 15.4788 15.4827 14.5611C16.4004 13.6434 16.9177 12.3999 16.9216 11.102V4.89796C16.9177 3.60013 16.4004 2.35657 15.4827 1.43886C14.565 0.521154 13.3215 0.00387607 12.0236 0ZM13.1894 2.7749C13.0043 2.7749 12.8235 2.82978 12.6696 2.93259C12.5158 3.03541 12.3959 3.18155 12.3251 3.35253C12.2542 3.5235 12.2357 3.71164 12.2718 3.89315C12.3079 4.07466 12.397 4.24139 12.5279 4.37225C12.6587 4.50311 12.8254 4.59222 13.0069 4.62833C13.1883 4.66443 13.3764 4.6459 13.5474 4.57508C13.7183 4.50426 13.8644 4.38433 13.9672 4.23045C14.07 4.07658 14.1249 3.89567 14.1249 3.7106C14.1249 3.58773 14.1007 3.46605 14.0537 3.35253C14.0067 3.239 13.9377 3.13585 13.8509 3.04896C13.764 2.96207 13.6609 2.89315 13.5474 2.84613C13.4339 2.7991 13.3122 2.7749 13.1894 2.7749ZM10.7888 5.79185C10.3138 5.47481 9.75554 5.30576 9.18449 5.30608C8.41977 5.30738 7.68674 5.61173 7.14599 6.15245C6.60525 6.69317 6.30089 7.42618 6.29959 8.19088C6.29927 8.7619 6.46833 9.32018 6.78538 9.7951C7.10244 10.27 7.55323 10.6402 8.08074 10.8589C8.60826 11.0776 9.18878 11.1349 9.74886 11.0236C10.3089 10.9122 10.8234 10.6373 11.2272 10.2335C11.631 9.82975 11.906 9.31528 12.0173 8.75522C12.1286 8.19516 12.0713 7.61466 11.8526 7.08717C11.6339 6.55967 11.2637 6.10889 10.7888 5.79185ZM6.85724 4.71065C7.54568 4.24892 8.35555 4.00162 9.18449 4.00001C9.73563 3.99893 10.2816 4.10653 10.7911 4.31664C11.3006 4.52675 11.7637 4.83525 12.1539 5.2245C12.544 5.61374 12.8536 6.07609 13.0649 6.58509C13.2762 7.09409 13.3851 7.63976 13.3853 8.19088C13.3856 9.01979 13.1402 9.83021 12.6801 10.5197C12.2199 11.2092 11.5657 11.7468 10.8001 12.0646C10.0345 12.3824 9.19189 12.4662 8.37871 12.3052C7.56553 12.1443 6.81831 11.746 6.23147 11.1605C5.64462 10.5751 5.24451 9.82879 5.08168 9.01602C4.91885 8.20325 5.00062 7.36045 5.31666 6.59413C5.63269 5.82782 6.1688 5.17238 6.85724 4.71065Z" fill="#CCCCCC"/>
</svg>
