<svg width="198" height="60" viewBox="0 0 198 60" fill="none" xmlns="http://www.w3.org/2000/svg">
<path d="M17.5119 4.5H32.8719V29.76C32.8719 31.88 32.4519 33.88 31.6119 35.76C30.8119 37.6 29.7119 39.22 28.3119 40.62C26.9119 41.98 25.2719 43.06 23.3919 43.86C21.5119 44.62 19.5319 45 17.4519 45C15.3319 45 13.3319 44.6 11.4519 43.8C9.57188 43 7.93188 41.92 6.53188 40.56C5.13188 39.16 4.01188 37.52 3.17188 35.64C2.37188 33.76 1.97188 31.72 1.97188 29.52H5.99188C5.99188 31.12 6.29188 32.62 6.89188 34.02C7.49188 35.42 8.29188 36.64 9.29188 37.68C10.3319 38.68 11.5519 39.48 12.9519 40.08C14.3519 40.68 15.8519 40.98 17.4519 40.98C19.0119 40.98 20.4719 40.7 21.8319 40.14C23.2319 39.54 24.4519 38.74 25.4919 37.74C26.5319 36.74 27.3519 35.56 27.9519 34.2C28.5519 32.8 28.8519 31.32 28.8519 29.76V8.52H17.5119V4.5ZM71.0436 39.12C69.2036 40.96 67.0436 42.4 64.5636 43.44C62.1236 44.48 59.5036 45 56.7036 45C53.9036 45 51.2636 44.48 48.7836 43.44C46.3436 42.36 44.2036 40.92 42.3636 39.12C40.5636 37.28 39.1236 35.14 38.0436 32.7C37.0036 30.22 36.4836 27.58 36.4836 24.78C36.4836 21.98 37.0036 19.36 38.0436 16.92C39.1236 14.44 40.5636 12.28 42.3636 10.44C44.2036 8.6 46.3436 7.16 48.7836 6.12C51.2636 5.04 53.9036 4.5 56.7036 4.5C59.5036 4.5 62.1236 5.04 64.5636 6.12C67.0436 7.16 69.2036 8.6 71.0436 10.44L68.1636 13.26C66.6836 11.82 64.9436 10.68 62.9436 9.84C60.9836 8.96 58.9036 8.52 56.7036 8.52C54.5436 8.52 52.4836 8.96 50.5236 9.84C48.6036 10.68 46.8836 11.84 45.3636 13.32C43.8836 14.76 42.7036 16.48 41.8236 18.48C40.9436 20.44 40.5036 22.54 40.5036 24.78C40.5036 26.94 40.9236 29 41.7636 30.96C42.6036 32.88 43.7436 34.6 45.1836 36.12C46.6636 37.6 48.3836 38.78 50.3436 39.66C52.3036 40.54 54.4236 40.98 56.7036 40.98C58.8636 40.98 60.9436 40.58 62.9436 39.78C64.9436 38.94 66.6836 37.76 68.1636 36.24L71.0436 39.12Z" fill="#383838"/>
<path d="M87.654 26.398V27H84.336V26.398L85.442 26.16V17.116L84.336 16.892V16.29L86.562 16.192V26.16L87.654 26.398ZM92.5562 27.126C91.9309 27.126 91.3755 26.986 90.8902 26.706C90.4142 26.4167 90.0409 25.9967 89.7702 25.446C89.4995 24.8953 89.3642 24.2187 89.3642 23.416C89.3642 22.6133 89.5042 21.918 89.7842 21.33C90.0642 20.742 90.4562 20.2893 90.9602 19.972C91.4735 19.6453 92.0802 19.482 92.7802 19.482C93.4335 19.482 93.9702 19.622 94.3902 19.902C94.8195 20.1727 95.1369 20.5507 95.3422 21.036C95.5569 21.5213 95.6642 22.0767 95.6642 22.702C95.6642 22.8047 95.6595 22.912 95.6502 23.024C95.6409 23.1267 95.6315 23.248 95.6222 23.388H90.5262C90.5449 24.2653 90.7502 24.9653 91.1422 25.488C91.5342 26.0013 92.0942 26.258 92.8222 26.258C93.1675 26.258 93.5455 26.1927 93.9562 26.062C94.3669 25.922 94.7915 25.712 95.2302 25.432L95.6362 26.062C95.1135 26.426 94.5909 26.6967 94.0682 26.874C93.5455 27.042 93.0415 27.126 92.5562 27.126ZM92.6962 20.336C92.0802 20.336 91.5902 20.546 91.2262 20.966C90.8715 21.3767 90.6522 21.918 90.5682 22.59H94.5022C94.5115 22.1887 94.4555 21.82 94.3342 21.484C94.2129 21.1387 94.0169 20.8633 93.7462 20.658C93.4849 20.4433 93.1349 20.336 92.6962 20.336ZM100.744 30.346C99.6524 30.346 98.8358 30.1873 98.2944 29.87C97.7531 29.5527 97.4824 29.0953 97.4824 28.498C97.4824 27.77 97.9164 27.168 98.7844 26.692C98.4111 26.608 98.2244 26.4073 98.2244 26.09C98.2244 26.006 98.2384 25.908 98.2664 25.796C98.3038 25.684 98.3738 25.5113 98.4764 25.278C98.5791 25.0447 98.7331 24.704 98.9384 24.256C98.1731 23.8173 97.7904 23.108 97.7904 22.128C97.7904 21.3067 98.0564 20.6627 98.5884 20.196C99.1298 19.72 99.8718 19.482 100.814 19.482C101.374 19.482 101.869 19.5707 102.298 19.748L104.342 19.636L104.356 20.322L103.264 20.532C103.591 20.9147 103.754 21.4093 103.754 22.016C103.754 22.8373 103.479 23.486 102.928 23.962C102.378 24.438 101.65 24.676 100.744 24.676C100.296 24.676 99.8811 24.6153 99.4984 24.494L99.2044 25.978H101.682C102.588 25.978 103.269 26.1553 103.726 26.51C104.193 26.8553 104.426 27.3547 104.426 28.008C104.426 28.764 104.114 29.3427 103.488 29.744C102.872 30.1453 101.958 30.346 100.744 30.346ZM100.73 23.892C101.337 23.892 101.804 23.7333 102.13 23.416C102.466 23.0893 102.634 22.632 102.634 22.044C102.634 21.4653 102.476 21.0267 102.158 20.728C101.841 20.42 101.388 20.266 100.8 20.266C100.203 20.266 99.7411 20.4247 99.4144 20.742C99.0878 21.0593 98.9244 21.512 98.9244 22.1C98.9244 22.6693 99.0784 23.1127 99.3864 23.43C99.7038 23.738 100.152 23.892 100.73 23.892ZM100.842 29.492C102.513 29.492 103.348 29.0253 103.348 28.092C103.348 27.2613 102.732 26.846 101.5 26.846H99.4844C98.8124 27.3033 98.4764 27.784 98.4764 28.288C98.4764 29.0907 99.2651 29.492 100.842 29.492ZM110.837 27.07L110.683 25.852C110.281 26.272 109.847 26.5893 109.381 26.804C108.923 27.0187 108.48 27.126 108.051 27.126C107.509 27.126 107.052 26.9533 106.679 26.608C106.305 26.2533 106.119 25.726 106.119 25.026C106.119 24.494 106.231 24.0787 106.455 23.78C106.688 23.472 107.01 23.2573 107.421 23.136C107.831 23.0147 108.312 22.954 108.863 22.954H110.571V21.764C110.571 21.26 110.435 20.896 110.165 20.672C109.894 20.448 109.521 20.336 109.045 20.336C108.578 20.336 108.06 20.4293 107.491 20.616L107.379 21.75H106.623L106.511 20.014C107.043 19.8367 107.542 19.706 108.009 19.622C108.475 19.5287 108.909 19.482 109.311 19.482C110.048 19.482 110.627 19.65 111.047 19.986C111.476 20.3127 111.691 20.84 111.691 21.568V26.16L112.797 26.37V26.986L110.837 27.07ZM107.253 24.942C107.253 25.3993 107.36 25.7353 107.575 25.95C107.799 26.1647 108.079 26.272 108.415 26.272C108.732 26.272 109.082 26.1787 109.465 25.992C109.847 25.8053 110.216 25.5487 110.571 25.222V23.696H109.031C108.368 23.696 107.906 23.7987 107.645 24.004C107.383 24.2 107.253 24.5127 107.253 24.942ZM117.415 26.398V27H114.097V26.398L115.203 26.16V17.116L114.097 16.892V16.29L116.323 16.192V26.16L117.415 26.398ZM125.456 26.398V27H122.012V26.398L123.09 26.16L126.422 17.242L127.584 17.2L130.734 26.16L131.812 26.398V27H128.172V26.398L129.46 26.146L128.83 24.242H124.84L124.14 26.16L125.456 26.398ZM125.106 23.402H128.578L126.926 18.292L125.106 23.402ZM135.738 27.126C135.216 27.126 134.744 26.986 134.324 26.706C133.914 26.4167 133.587 25.9967 133.344 25.446C133.102 24.886 132.98 24.2093 132.98 23.416C132.98 22.1187 133.307 21.1387 133.96 20.476C134.623 19.8133 135.538 19.482 136.704 19.482C136.91 19.482 137.124 19.496 137.348 19.524C137.582 19.552 137.82 19.594 138.062 19.65V17.144L136.9 16.892V16.29L139.182 16.192V26.16L140.274 26.37V26.986L138.314 27.07L138.174 26.02C137.381 26.7573 136.569 27.126 135.738 27.126ZM136.13 26.272C136.429 26.272 136.742 26.1973 137.068 26.048C137.404 25.8987 137.736 25.6747 138.062 25.376V20.532C137.558 20.3827 137.092 20.308 136.662 20.308C135.841 20.308 135.216 20.574 134.786 21.106C134.357 21.638 134.142 22.3753 134.142 23.318C134.142 24.242 134.329 24.9653 134.702 25.488C135.085 26.0107 135.561 26.272 136.13 26.272ZM145.569 19.65L148.495 19.552V20.168L147.669 20.406L145.303 27.028H143.987L141.803 20.42L140.991 20.252V19.65L144.071 19.552V20.168L142.951 20.378L144.729 26.146L146.661 20.392L145.569 20.252V19.65ZM152.884 26.398V27H149.58V26.398L150.672 26.16V20.476L149.58 20.252V19.65L151.792 19.566V26.16L152.884 26.398ZM151.148 18.054C150.933 18.054 150.756 17.9887 150.616 17.858C150.476 17.718 150.406 17.522 150.406 17.27C150.406 17.018 150.476 16.8267 150.616 16.696C150.765 16.556 150.947 16.486 151.162 16.486C151.386 16.486 151.568 16.556 151.708 16.696C151.848 16.8267 151.918 17.018 151.918 17.27C151.918 17.522 151.843 17.718 151.694 17.858C151.554 17.9887 151.372 18.054 151.148 18.054ZM155.864 21.4C155.864 21.6987 155.962 21.932 156.158 22.1C156.354 22.268 156.606 22.408 156.914 22.52C157.222 22.6227 157.549 22.7253 157.894 22.828C158.239 22.9307 158.566 23.0567 158.874 23.206C159.182 23.3553 159.434 23.5607 159.63 23.822C159.826 24.0833 159.924 24.4287 159.924 24.858C159.924 25.3527 159.789 25.768 159.518 26.104C159.247 26.44 158.879 26.6967 158.412 26.874C157.955 27.042 157.441 27.126 156.872 27.126C156.517 27.126 156.158 27.098 155.794 27.042C155.439 26.986 155.071 26.9067 154.688 26.804L154.786 24.928H155.5L155.626 26.174C155.831 26.2207 156.046 26.2627 156.27 26.3C156.503 26.328 156.718 26.342 156.914 26.342C157.241 26.342 157.549 26.2953 157.838 26.202C158.127 26.0993 158.361 25.9547 158.538 25.768C158.715 25.572 158.804 25.3293 158.804 25.04C158.804 24.732 158.706 24.4893 158.51 24.312C158.323 24.1347 158.076 23.99 157.768 23.878C157.46 23.766 157.133 23.6633 156.788 23.57C156.443 23.4673 156.116 23.3413 155.808 23.192C155.509 23.0427 155.262 22.8373 155.066 22.576C154.87 22.3147 154.772 21.9693 154.772 21.54C154.772 21.064 154.893 20.6767 155.136 20.378C155.388 20.07 155.715 19.846 156.116 19.706C156.527 19.5567 156.965 19.482 157.432 19.482C157.749 19.482 158.099 19.5147 158.482 19.58C158.865 19.6453 159.257 19.7433 159.658 19.874L159.588 21.456H158.874L158.692 20.448C158.253 20.336 157.843 20.28 157.46 20.28C157.003 20.28 156.62 20.378 156.312 20.574C156.013 20.7607 155.864 21.036 155.864 21.4ZM165.42 19.482C166.437 19.482 167.24 19.804 167.828 20.448C168.416 21.092 168.71 22.002 168.71 23.178C168.71 23.9807 168.57 24.676 168.29 25.264C168.01 25.852 167.604 26.3093 167.072 26.636C166.549 26.9627 165.919 27.126 165.182 27.126C164.174 27.126 163.385 26.8133 162.816 26.188C162.246 25.5533 161.962 24.6433 161.962 23.458C161.962 22.646 162.097 21.9413 162.368 21.344C162.648 20.7467 163.044 20.2893 163.558 19.972C164.08 19.6453 164.701 19.482 165.42 19.482ZM165.364 20.308C164.645 20.308 164.094 20.5787 163.712 21.12C163.329 21.6613 163.138 22.422 163.138 23.402C163.138 24.3633 163.32 25.0867 163.684 25.572C164.048 26.0573 164.57 26.3 165.252 26.3C165.998 26.3 166.563 26.0293 166.946 25.488C167.338 24.9467 167.534 24.1953 167.534 23.234C167.534 22.282 167.342 21.5587 166.96 21.064C166.586 20.56 166.054 20.308 165.364 20.308ZM170.588 27V26.398L171.68 26.16V20.49L170.588 20.252V19.65L172.548 19.552L172.688 20.742C173.071 20.3407 173.454 20.0327 173.836 19.818C174.228 19.594 174.648 19.482 175.096 19.482C175.395 19.482 175.708 19.5287 176.034 19.622L175.95 21.666H175.25L175.11 20.42C175.008 20.4013 174.896 20.392 174.774 20.392C174.42 20.392 174.074 20.4947 173.738 20.7C173.412 20.896 173.099 21.1573 172.8 21.484V26.16L174.158 26.398V27H170.588ZM177.337 30.276L177.435 29.45C177.547 29.4687 177.65 29.4827 177.743 29.492C177.846 29.5013 177.939 29.506 178.023 29.506C178.462 29.506 178.817 29.408 179.087 29.212C179.367 29.0253 179.601 28.7407 179.787 28.358C179.983 27.9847 180.175 27.518 180.361 26.958L177.841 20.392L177.043 20.252V19.65L180.109 19.552V20.168L178.975 20.364L180.879 25.796L182.727 20.392L181.621 20.252V19.65L184.589 19.552V20.168L183.777 20.35L181.341 27.028C181.117 27.6533 180.879 28.2133 180.627 28.708C180.375 29.212 180.053 29.6087 179.661 29.898C179.279 30.1967 178.765 30.346 178.121 30.346C177.897 30.346 177.636 30.3227 177.337 30.276ZM86.226 36.608C86.226 36.9627 86.3193 37.252 86.506 37.476C86.6927 37.7 86.94 37.8867 87.248 38.036C87.5653 38.176 87.9107 38.302 88.284 38.414C88.6573 38.526 89.0307 38.652 89.404 38.792C89.7773 38.9227 90.118 39.0907 90.426 39.296C90.734 39.492 90.9813 39.7533 91.168 40.08C91.364 40.3973 91.462 40.7987 91.462 41.284C91.462 41.9373 91.294 42.474 90.958 42.894C90.6313 43.314 90.1927 43.6267 89.642 43.832C89.0913 44.028 88.4893 44.126 87.836 44.126C87.3693 44.126 86.8933 44.0793 86.408 43.986C85.9227 43.8833 85.4467 43.734 84.98 43.538L85.064 41.242H85.75L85.96 42.838C86.5853 43.1087 87.234 43.244 87.906 43.244C88.3447 43.244 88.746 43.1787 89.11 43.048C89.474 42.9173 89.768 42.7167 89.992 42.446C90.216 42.1753 90.328 41.8393 90.328 41.438C90.328 41.0647 90.23 40.766 90.034 40.542C89.8473 40.3087 89.6 40.122 89.292 39.982C88.984 39.8327 88.6433 39.702 88.27 39.59C87.8967 39.478 87.5233 39.3567 87.15 39.226C86.7767 39.0953 86.436 38.932 86.128 38.736C85.82 38.54 85.568 38.288 85.372 37.98C85.1853 37.6627 85.092 37.2613 85.092 36.776C85.092 36.1787 85.2367 35.684 85.526 35.292C85.8247 34.8907 86.226 34.592 86.73 34.396C87.234 34.2 87.8033 34.102 88.438 34.102C89.3527 34.102 90.2767 34.2933 91.21 34.676L91.098 36.874H90.398L90.202 35.306C89.9407 35.2033 89.6607 35.124 89.362 35.068C89.0633 35.012 88.7647 34.984 88.466 34.984C88.074 34.984 87.7053 35.04 87.36 35.152C87.024 35.2547 86.7487 35.4273 86.534 35.67C86.3287 35.9127 86.226 36.2253 86.226 36.608ZM96.7808 44.126C96.1555 44.126 95.6001 43.986 95.1148 43.706C94.6388 43.4167 94.2655 42.9967 93.9948 42.446C93.7241 41.8953 93.5888 41.2187 93.5888 40.416C93.5888 39.6133 93.7288 38.918 94.0088 38.33C94.2888 37.742 94.6808 37.2893 95.1848 36.972C95.6981 36.6453 96.3048 36.482 97.0048 36.482C97.6581 36.482 98.1948 36.622 98.6148 36.902C99.0441 37.1727 99.3615 37.5507 99.5668 38.036C99.7815 38.5213 99.8888 39.0767 99.8888 39.702C99.8888 39.8047 99.8841 39.912 99.8748 40.024C99.8655 40.1267 99.8561 40.248 99.8468 40.388H94.7508C94.7695 41.2653 94.9748 41.9653 95.3668 42.488C95.7588 43.0013 96.3188 43.258 97.0468 43.258C97.3921 43.258 97.7701 43.1927 98.1808 43.062C98.5915 42.922 99.0161 42.712 99.4548 42.432L99.8608 43.062C99.3381 43.426 98.8155 43.6967 98.2928 43.874C97.7701 44.042 97.2661 44.126 96.7808 44.126ZM96.9208 37.336C96.3048 37.336 95.8148 37.546 95.4508 37.966C95.0961 38.3767 94.8768 38.918 94.7928 39.59H98.7268C98.7361 39.1887 98.6801 38.82 98.5588 38.484C98.4375 38.1387 98.2415 37.8633 97.9708 37.658C97.7095 37.4433 97.3595 37.336 96.9208 37.336ZM101.805 44V43.398L102.897 43.16V37.49L101.805 37.252V36.65L103.765 36.552L103.905 37.742C104.288 37.3407 104.67 37.0327 105.053 36.818C105.445 36.594 105.865 36.482 106.313 36.482C106.612 36.482 106.924 36.5287 107.251 36.622L107.167 38.666H106.467L106.327 37.42C106.224 37.4013 106.112 37.392 105.991 37.392C105.636 37.392 105.291 37.4947 104.955 37.7C104.628 37.896 104.316 38.1573 104.017 38.484V43.16L105.375 43.398V44H101.805ZM112.77 36.65L115.696 36.552V37.168L114.87 37.406L112.504 44.028H111.188L109.004 37.42L108.192 37.252V36.65L111.272 36.552V37.168L110.152 37.378L111.93 43.146L113.862 37.392L112.77 37.252V36.65ZM120.085 43.398V44H116.781V43.398L117.873 43.16V37.476L116.781 37.252V36.65L118.993 36.566V43.16L120.085 43.398ZM118.349 35.054C118.135 35.054 117.957 34.9887 117.817 34.858C117.677 34.718 117.607 34.522 117.607 34.27C117.607 34.018 117.677 33.8267 117.817 33.696C117.967 33.556 118.149 33.486 118.363 33.486C118.587 33.486 118.769 33.556 118.909 33.696C119.049 33.8267 119.119 34.018 119.119 34.27C119.119 34.522 119.045 34.718 118.895 34.858C118.755 34.9887 118.573 35.054 118.349 35.054ZM124.927 44.126C124.33 44.126 123.788 43.9813 123.303 43.692C122.827 43.3933 122.449 42.964 122.169 42.404C121.898 41.844 121.763 41.172 121.763 40.388C121.763 39.4827 121.926 38.7453 122.253 38.176C122.58 37.5973 123.009 37.1727 123.541 36.902C124.082 36.622 124.661 36.482 125.277 36.482C125.65 36.482 126.047 36.5333 126.467 36.636C126.896 36.7387 127.27 36.8787 127.587 37.056L127.531 38.806H126.775L126.593 37.56C126.378 37.476 126.15 37.4153 125.907 37.378C125.664 37.3313 125.45 37.308 125.263 37.308C124.535 37.308 123.961 37.5787 123.541 38.12C123.13 38.6613 122.925 39.394 122.925 40.318C122.925 41.27 123.135 41.998 123.555 42.502C123.984 43.006 124.526 43.258 125.179 43.258C125.506 43.258 125.856 43.1927 126.229 43.062C126.612 42.922 127.004 42.7073 127.405 42.418L127.797 43.034C127.312 43.4073 126.826 43.6827 126.341 43.86C125.856 44.0373 125.384 44.126 124.927 44.126ZM132.615 44.126C131.989 44.126 131.434 43.986 130.949 43.706C130.473 43.4167 130.099 42.9967 129.829 42.446C129.558 41.8953 129.423 41.2187 129.423 40.416C129.423 39.6133 129.563 38.918 129.843 38.33C130.123 37.742 130.515 37.2893 131.019 36.972C131.532 36.6453 132.139 36.482 132.839 36.482C133.492 36.482 134.029 36.622 134.449 36.902C134.878 37.1727 135.195 37.5507 135.401 38.036C135.615 38.5213 135.723 39.0767 135.723 39.702C135.723 39.8047 135.718 39.912 135.709 40.024C135.699 40.1267 135.69 40.248 135.681 40.388H130.585C130.603 41.2653 130.809 41.9653 131.201 42.488C131.593 43.0013 132.153 43.258 132.881 43.258C133.226 43.258 133.604 43.1927 134.015 43.062C134.425 42.922 134.85 42.712 135.289 42.432L135.695 43.062C135.172 43.426 134.649 43.6967 134.127 43.874C133.604 44.042 133.1 44.126 132.615 44.126ZM132.755 37.336C132.139 37.336 131.649 37.546 131.285 37.966C130.93 38.3767 130.711 38.918 130.627 39.59H134.561C134.57 39.1887 134.514 38.82 134.393 38.484C134.271 38.1387 134.075 37.8633 133.805 37.658C133.543 37.4433 133.193 37.336 132.755 37.336ZM139.053 38.4C139.053 38.6987 139.151 38.932 139.347 39.1C139.543 39.268 139.795 39.408 140.103 39.52C140.411 39.6227 140.738 39.7253 141.083 39.828C141.428 39.9307 141.755 40.0567 142.063 40.206C142.371 40.3553 142.623 40.5607 142.819 40.822C143.015 41.0833 143.113 41.4287 143.113 41.858C143.113 42.3527 142.978 42.768 142.707 43.104C142.436 43.44 142.068 43.6967 141.601 43.874C141.144 44.042 140.63 44.126 140.061 44.126C139.706 44.126 139.347 44.098 138.983 44.042C138.628 43.986 138.26 43.9067 137.877 43.804L137.975 41.928H138.689L138.815 43.174C139.02 43.2207 139.235 43.2627 139.459 43.3C139.692 43.328 139.907 43.342 140.103 43.342C140.43 43.342 140.738 43.2953 141.027 43.202C141.316 43.0993 141.55 42.9547 141.727 42.768C141.904 42.572 141.993 42.3293 141.993 42.04C141.993 41.732 141.895 41.4893 141.699 41.312C141.512 41.1347 141.265 40.99 140.957 40.878C140.649 40.766 140.322 40.6633 139.977 40.57C139.632 40.4673 139.305 40.3413 138.997 40.192C138.698 40.0427 138.451 39.8373 138.255 39.576C138.059 39.3147 137.961 38.9693 137.961 38.54C137.961 38.064 138.082 37.6767 138.325 37.378C138.577 37.07 138.904 36.846 139.305 36.706C139.716 36.5567 140.154 36.482 140.621 36.482C140.938 36.482 141.288 36.5147 141.671 36.58C142.054 36.6453 142.446 36.7433 142.847 36.874L142.777 38.456H142.063L141.881 37.448C141.442 37.336 141.032 37.28 140.649 37.28C140.192 37.28 139.809 37.378 139.501 37.574C139.202 37.7607 139.053 38.036 139.053 38.4Z" fill="#383838"/>
</svg>
