<svg width="16" height="16" viewBox="0 0 16 16" fill="none" xmlns="http://www.w3.org/2000/svg">
<path fill-rule="evenodd" clip-rule="evenodd" d="M14.96 7.3744C14.96 3.8816 11.84 1.04 8 1.04C4.16 1.04 1.04 3.8816 1.04 7.3744C1.04 9.256 1.952 11.0288 3.5472 12.2304L3.9568 12.5504V14.3008L5.3968 13.56L5.7456 13.3808L6.1264 13.4768C6.73883 13.6321 7.36819 13.7105 8 13.7104C11.84 13.7104 14.96 10.8672 14.96 7.3744ZM0 7.3744C0 3.3024 3.5824 0 8 0C12.4176 0 16 3.304 16 7.376C16 11.448 12.4176 14.7504 8 14.7504C7.28179 14.7502 6.5664 14.6604 5.8704 14.4832L2.9104 16V13.0656C1.1328 11.712 0 9.6656 0 7.3744ZM7.0848 5.21891L2.992 9.60949L6.7264 7.57741L8.7424 9.7807L12.8512 5.29572L9.1632 7.3118L7.0848 5.21891Z" fill="#CCCCCC"/>
</svg>
